<?xml version="1.0" encoding="UTF-8" standalone="no"?>
<svg
   xmlns:dc="http://purl.org/dc/elements/1.1/"
   xmlns:cc="http://creativecommons.org/ns#"
   xmlns:rdf="http://www.w3.org/1999/02/22-rdf-syntax-ns#"
   xmlns:svg="http://www.w3.org/2000/svg"
   xmlns="http://www.w3.org/2000/svg"
   xmlns:sodipodi="http://sodipodi.sourceforge.net/DTD/sodipodi-0.dtd"
   xmlns:inkscape="http://www.inkscape.org/namespaces/inkscape"
   id="Layer_1"
   enable-background="new 0 0 64 64"
   height="512"
   viewBox="0 0 64 64"
   width="512"
   version="1.1"
   sodipodi:docname="analyse.svg"
   inkscape:version="0.92.4 (33fec40, 2019-01-16)">
  <metadata
     id="metadata1183">
    <rdf:RDF>
      <cc:Work
         rdf:about="">
        <dc:format>image/svg+xml</dc:format>
        <dc:type
           rdf:resource="http://purl.org/dc/dcmitype/StillImage" />
      </cc:Work>
    </rdf:RDF>
  </metadata>
  <defs
     id="defs1181" />
  <sodipodi:namedview
     pagecolor="#ffffff"
     bordercolor="#666666"
     borderopacity="1"
     objecttolerance="10"
     gridtolerance="10"
     guidetolerance="10"
     inkscape:pageopacity="0"
     inkscape:pageshadow="2"
     inkscape:window-width="1853"
     inkscape:window-height="1025"
     id="namedview1179"
     showgrid="false"
     inkscape:zoom="1.01"
     inkscape:cx="226.29703"
     inkscape:cy="256"
     inkscape:window-x="67"
     inkscape:window-y="27"
     inkscape:window-maximized="1"
     inkscape:current-layer="Layer_1" />
  <path
     d="m 16.051805,2.259901 h 32.832781 c 0.820819,0 1.492399,0.9153636 1.492399,2.0341413 V 59.215859 c 0,1.118777 -0.67158,2.034141 -1.492399,2.034141 H 16.051805 c -0.820819,0 -1.492399,-0.915364 -1.492399,-2.034141 V 4.2940423 c 0,-1.1187777 0.67158,-2.0341413 1.492399,-2.0341413 z"
     id="path1134"
     style="fill:#5d5360;fill-opacity:1;stroke-width:0.87117034"
     inkscape:connector-curvature="0" />
  <path
     inkscape:connector-curvature="0"
     class="st7"
     d="m 22.26928,56.14952 c -0.836614,0 -1.509541,-0.576088 -1.509541,-1.292307 V 4.7375 h -1.50954 c -0.836613,0 -1.50954,0.5760887 -1.50954,1.292307 v 51.39645 c 0,0.716219 0.672927,1.292307 1.50954,1.292307 h 27.02622 c 0.836613,0 1.50954,-0.576088 1.50954,-1.292307 V 56.13395 H 22.26928 Z"
     id="path1356"
     style="fill:#eceaec;fill-opacity:1;stroke-width:0.1682779" />
  <path
     inkscape:connector-curvature="0"
     class="st6"
     d="m 46.294606,4.7375 h -3.21914 c -0.618364,0 -1.236731,0.3156608 -1.43679,0.8207178 -0.400119,1.0416805 -1.527727,1.7834836 -2.855395,1.7834836 H 26.77971 c -1.327668,0 -2.455275,-0.7418031 -2.855395,-1.7834836 C 23.724256,5.0373776 23.105891,4.7375 22.487526,4.7375 H 20.759739 L 19.650318,6.0474921 V 56.647907 c 0,0.726019 0.672927,1.309993 1.50954,1.309993 h 25.116561 l 1.50954,-1.089031 V 6.0474921 C 47.785959,5.3214724 47.113032,4.7375 46.294606,4.7375 Z"
     id="path1354"
     style="fill:#ffffff;stroke-width:0.16942541" />
  <path
     d="m 23.315337,25.25 h 2.953858 v 5 h -2.953858 z"
     id="path1140"
     inkscape:connector-curvature="0"
     style="fill:#86d359;fill-opacity:1;stroke-width:0.85933954" />
  <path
     d="m 29.223052,21.25 h 2.953858 v 9 h -2.953858 z"
     id="path1142"
     inkscape:connector-curvature="0"
     style="fill:#86d359;fill-opacity:1;stroke-width:0.85933954" />
  <path
     d="m 35.130768,19.25 h 2.953857 v 11 h -2.953857 z"
     id="path1144"
     inkscape:connector-curvature="0"
     style="fill:#86d359;fill-opacity:1;stroke-width:0.85933954" />
  <path
     d="m 41.038483,12.25 h 2.953858 v 18 h -2.953858 z"
     id="path1146"
     inkscape:connector-curvature="0"
     style="fill:#86d359;fill-opacity:1;stroke-width:0.85933954" />
  <path
     d="m 21.099944,29.25 h 25.10779 v 2 h -25.10779 z"
     id="path1138"
     inkscape:connector-curvature="0"
     style="fill:#86d359;fill-opacity:1;stroke-width:0.85933954" />
  <g
     id="g1162"
     transform="matrix(0.9568686,0,0,1,6.9969149,0)"
     style="fill:#9ca9cf">
    <path
       d="m 15,34 h 11 v 2 H 15 Z"
       id="path1148"
       inkscape:connector-curvature="0" />
    <path
       d="m 15,38 h 11 v 2 H 15 Z"
       id="path1150"
       inkscape:connector-curvature="0" />
    <path
       d="m 28,38 h 4 v 2 h -4 z"
       id="path1152"
       inkscape:connector-curvature="0" />
    <path
       d="m 15,42 h 11 v 2 H 15 Z"
       id="path1154"
       inkscape:connector-curvature="0" />
    <path
       d="m 28,42 h 4 v 2 h -4 z"
       id="path1156"
       inkscape:connector-curvature="0" />
    <path
       d="m 15,46 h 11 v 2 H 15 Z"
       id="path1158"
       inkscape:connector-curvature="0" />
    <path
       d="m 28,46 h 4 v 2 h -4 z"
       id="path1160"
       inkscape:connector-curvature="0" />
  </g>
  <path
     d="m 53.626228,57.4 -6.941565,-9.4 -2.215393,3 6.941565,9.4 c 0.590772,0.8 1.624622,0.8 2.215393,0 0.590772,-0.8 0.590772,-2.2 0,-3 z"
     id="path1166"
     inkscape:connector-curvature="0"
     style="fill:#858585;stroke-width:0.85933954" />
  <path
     d="m 26.390021,20.671287 -0.990124,-1.192397 5.445685,-4.844114 2.828927,2.235745 4.45556,-4.098866 0.990125,1.192397 -5.445685,4.844115 -2.828927,-2.235745 z"
     id="path1168"
     inkscape:connector-curvature="0"
     style="fill:#e0ed0e;fill-opacity:1;stroke-width:0.72599125" />
  <path
     d="m 39.469762,16.070301 h -1.285146 v -2.235744 h -1.927719 v -1.490498 h 3.212865 z"
     id="path1170"
     inkscape:connector-curvature="0"
     style="fill:#e0ed0e;fill-opacity:1;stroke-width:0.69200903" />
  <ellipse
     cx="41.515411"
     cy="44"
     id="circle1172"
     rx="8.6263781"
     ry="9"
     style="fill:#57adff;stroke-width:0.97902322" />
  <path
     d="m 40.776948,40 h 1.476928 v 8 h -1.476928 z"
     id="path1174"
     inkscape:connector-curvature="0"
     style="fill:#a3cdf4;stroke-width:0.85933954" />
  <path
     d="m 37.571455,43 h 7.887914 v 2 h -7.887914 z"
     id="path1176"
     inkscape:connector-curvature="0"
     style="fill:#a3cdf4;stroke-width:0.99296987" />
</svg>
