<?xml version="1.0" encoding="utf-8"?>
<!-- Generator: Adobe Illustrator 22.1.0, SVG Export Plug-In . SVG Version: 6.00 Build 0)  -->
<svg version="1.1" id="Layer_1" xmlns="http://www.w3.org/2000/svg" xmlns:xlink="http://www.w3.org/1999/xlink" x="0px" y="0px"
	 viewBox="0 0 83.5 138" style="enable-background:new 0 0 83.5 138;" xml:space="preserve">
<style type="text/css">
	.st0{fill:#28C000;}
</style>
<path class="st0" d="M1,69.9c0,26.9,15.6,41.5,39,54.8c23.4-13.3,39-27.9,39-54.8s-15.6-53.7-39-67C16.6,16.2,1,43,1,69.9z"/>
<path d="M43.1,0.4c-0.8-0.5-1.8-0.5-2.7,0C28.5,7.1,18.3,17.3,11.1,29.7C3.8,42.2,0,56,0,69.7C0,83,3.7,94.2,11.3,103.9
	c6.1,7.8,14.7,14.7,27.7,22.2v9.2c0,1.5,1.2,2.7,2.7,2.7s2.7-1.2,2.7-2.7v-9.2c13-7.5,21.6-14.4,27.7-22.2
	c7.6-9.7,11.3-20.8,11.3-34.2c0-13.7-3.8-27.5-11.1-40C65.1,17.3,55,7.1,43.1,0.4z M44.4,119.8V97.4l22.1-22.1
	c1.1-1.1,1.1-2.8,0-3.8c-1.1-1.1-2.8-1.1-3.8,0L44.4,89.7V66.2l18.8-18.8c1.1-1.1,1.1-2.8,0-3.8c-1.1-1.1-2.8-1.1-3.8,0l-15,15V36
	c0-1.5-1.2-2.7-2.7-2.7S39,34.5,39,36v22.6l-15-15c-1.1-1.1-2.8-1.1-3.8,0c-1.1,1.1-1.1,2.8,0,3.8L39,66.2v23.5L20.8,71.5
	c-1.1-1.1-2.8-1.1-3.8,0c-1.1,1.1-1.1,2.8,0,3.8l22,22.1v22.5c-20.3-12.3-33.6-26-33.6-50.2c0-25.4,14.5-50.8,36.3-63.9
	C63.5,18.9,78,44.3,78,69.7C78.1,93.9,64.8,107.6,44.4,119.8z"/>
</svg>
