<?xml version="1.0" encoding="UTF-8" standalone="no"?>
<!-- Generator: Adobe Illustrator 22.1.0, SVG Export Plug-In . SVG Version: 6.00 Build 0)  -->

<svg
   xmlns:dc="http://purl.org/dc/elements/1.1/"
   xmlns:cc="http://creativecommons.org/ns#"
   xmlns:rdf="http://www.w3.org/1999/02/22-rdf-syntax-ns#"
   xmlns:svg="http://www.w3.org/2000/svg"
   xmlns="http://www.w3.org/2000/svg"
   xmlns:sodipodi="http://sodipodi.sourceforge.net/DTD/sodipodi-0.dtd"
   xmlns:inkscape="http://www.inkscape.org/namespaces/inkscape"
   version="1.1"
   id="Calque_1"
   x="0px"
   y="0px"
   viewBox="0 0 432 432"
   style="enable-background:new 0 0 432 432;"
   xml:space="preserve"
   sodipodi:docname="naslov.svg"
   inkscape:version="0.92.4 (33fec40, 2019-01-16)"><metadata
   id="metadata5912"><rdf:RDF><cc:Work
       rdf:about=""><dc:format>image/svg+xml</dc:format><dc:type
         rdf:resource="http://purl.org/dc/dcmitype/StillImage" /></cc:Work></rdf:RDF></metadata><defs
   id="defs5910" /><sodipodi:namedview
   pagecolor="#ffffff"
   bordercolor="#666666"
   borderopacity="1"
   objecttolerance="10"
   gridtolerance="10"
   guidetolerance="10"
   inkscape:pageopacity="0"
   inkscape:pageshadow="2"
   inkscape:window-width="1853"
   inkscape:window-height="1025"
   id="namedview5908"
   showgrid="false"
   inkscape:zoom="1.26"
   inkscape:cx="-92.167866"
   inkscape:cy="216"
   inkscape:window-x="67"
   inkscape:window-y="27"
   inkscape:window-maximized="1"
   inkscape:current-layer="Calque_1" />
<style
   type="text/css"
   id="style5799">
	.st0{display:none;}
	.st1{display:inline;fill:#333333;}
	.st2{display:none;fill:#333333;}
	.st3{fill:none;}
	.st4{opacity:0.7;enable-background:new    ;}
	.st5{font-family:'BerlinSansFB-Reg';}
	.st6{font-size:60.0001px;}
	.st7{opacity:0.7;}
	.st8{fill:#009C00;}
	.st9{fill:#FF491F;}
</style>
<g
   id="g5819"
   transform="translate(-4)">
	<g
   class="st0"
   id="g5813"
   style="display:none">
		<path
   class="st1"
   d="m 76.6,328.2 c -3.5,0 -7.1,0 -10.6,0 -1.2,0 -1.2,0 -1.3,1.2 -0.5,3.3 -1,6.7 -1.5,10 -0.1,0.8 0,1.2 0.7,1.5 0.9,0.5 1.7,1.2 2.4,1.9 0.5,0.5 0.8,1.1 0.5,1.9 -0.3,0.7 -0.9,0.9 -1.7,1 -2.9,0.4 -5.8,0.2 -8.8,0.2 -0.4,0 -0.7,-0.1 -1.1,-0.2 -0.7,-0.2 -1.2,-0.7 -1.3,-1.5 -0.2,-0.8 0.2,-1.4 0.8,-1.8 1,-0.7 2.1,-1.4 3.2,-2 0.6,-0.4 0.9,-0.8 1,-1.5 1.1,-10.6 2.8,-21.2 5.5,-31.6 1.3,-5 3,-9.8 5,-14.6 1.7,-4.1 3.8,-8 6.4,-11.7 0.9,-1.2 1.9,-2.3 3,-3.3 2.6,-2.2 5.6,-1.5 7.4,0.3 0.8,0.7 1.4,1.6 2,2.5 3,4.4 4.4,9.3 5.4,14.5 0.9,5.2 1.4,10.4 1.7,15.6 0.2,4.1 0.3,8.1 0.5,12.2 0.1,1.2 0.2,2.4 0.3,3.6 0.4,3.6 0.3,7.3 0.2,11 0,0.7 0.1,1.2 0.6,1.7 0.8,0.8 1.4,1.6 2.1,2.4 0.4,0.5 0.8,1 1,1.5 0.8,1.6 0.1,3 -1.7,3.3 -0.8,0.1 -1.7,0.3 -2.5,0.3 -3.3,0 -6.7,0 -10,0 -0.6,0 -1.2,-0.1 -1.8,-0.3 -2,-0.6 -2.6,-2.8 -1.1,-4.2 1.2,-1.1 2.4,-2 3.7,-2.9 0.7,-0.5 1,-1 1,-1.8 0.1,-2.8 0.3,-5.6 0.5,-8.5 0.1,-1.2 0,-1.2 -1.2,-1.2 -3.2,0.1 -6.7,0.4 -10.3,0.5 z M 65.4,325 c 0.6,0.2 1.2,0.1 1.7,0.1 4.2,-0.3 8.4,-0.4 12.6,-0.5 2.4,0 4.8,-0.3 7.2,-0.5 1.4,-0.1 1.4,-0.1 1.3,-1.5 -0.2,-8.3 -0.1,-16.7 -0.7,-25 -0.3,-4.1 -0.8,-8.1 -1.7,-12.1 -0.3,-1.2 -0.6,-2.3 -1.3,-3.4 -0.6,-0.9 -1.2,-1 -2.1,-0.4 -0.3,0.2 -0.7,0.5 -0.9,0.8 -1,1.1 -2,2.2 -2.9,3.3 -4,4.7 -6.2,10.4 -8.3,16.1 -2.7,7.5 -4,15.2 -4.9,23.1 z"
   id="path5801"
   inkscape:connector-curvature="0"
   style="display:inline;fill:#333333" />
		<path
   class="st1"
   d="m 163.7,297.6 c -0.1,6.4 -3.2,12.3 -9.3,16.6 -3.1,2.2 -6.6,3.8 -10.3,4.8 -0.7,0.2 -0.9,0.5 -0.9,1.1 0.2,4.5 0.3,9 0.6,13.5 0.2,2.5 1,4.9 2.2,7.1 0.4,0.7 0.9,1.3 1.5,1.8 0.4,0.5 0.8,1 0.7,1.8 -0.1,0.9 -0.9,1.5 -1.9,1.6 -3.4,0.2 -6.8,0.4 -10.2,0.9 -0.9,0.1 -1.9,-0.3 -2.2,-1.1 -0.4,-0.7 -0.3,-1.7 0.5,-2.3 2.3,-1.8 2.7,-4.3 3,-6.9 0.3,-3.8 0.3,-7.7 0.1,-11.5 -0.2,-6.8 -0.4,-13.5 -0.7,-20.3 -0.2,-4.7 -0.5,-9.4 -0.7,-14.2 -0.1,-1.6 -0.1,-3.3 -0.1,-4.9 0.1,-1.6 -0.6,-2.8 -1.7,-3.8 -0.4,-0.4 -0.9,-0.7 -1.2,-1.1 -0.9,-1.1 -0.6,-2.4 0.7,-3 0.6,-0.3 1.1,-0.4 1.7,-0.4 1.7,0 3.4,0 5.1,0.2 1.6,0.2 3.2,0.1 4.9,0.1 1.9,0 3.8,0 5.7,0.4 3.5,0.8 6.2,2.9 8.4,5.6 3,3.8 4.1,8.2 4.1,14 z M 143,315.3 c 0.4,0.2 0.6,0 0.8,-0.1 2.8,-1.3 5.5,-2.8 7.8,-4.7 4.7,-3.9 6.5,-9 6.2,-14.9 -0.2,-4 -1.9,-7.4 -4.5,-10.4 -1.3,-1.6 -3,-2.8 -5.2,-2.9 -1.4,0 -2.8,0 -4.2,-0.3 -0.8,-0.1 -0.9,0 -0.8,0.8 0.3,7.4 0.2,14.7 -0.1,22.1 -0.1,3.5 0,6.9 0,10.4 z"
   id="path5803"
   inkscape:connector-curvature="0"
   style="display:inline;fill:#333333" />
		<path
   class="st1"
   d="m 188.5,346.8 c -3,0.1 -6.4,-0.5 -9.8,-0.7 -3.4,-0.2 -6.7,-0.2 -9.9,0.5 -1.2,0.3 -1.8,0.1 -2.1,-0.5 -0.3,-0.6 0.1,-1.3 1.2,-1.9 1.6,-0.9 3.3,-1.5 5.1,-1.8 0.4,-0.1 0.7,-0.2 1.1,-0.2 0.6,0 0.8,-0.3 0.8,-0.9 0,-0.8 0,-1.7 0,-2.5 -0.5,-9.9 -0.4,-19.8 -0.8,-29.8 -0.3,-6.8 -0.2,-13.5 -0.1,-20.3 0,-1.3 0.1,-2.5 0.3,-3.7 0.1,-0.7 -0.1,-1.3 -0.5,-1.8 -0.3,-0.4 -0.6,-0.8 -0.9,-1.2 -0.7,-1.1 -0.4,-2 0.7,-2.7 0.7,-0.4 1.5,-0.5 2.3,-0.5 2.4,-0.2 4.8,0.1 7.2,0.4 0.3,0 0.6,0.1 0.9,0.3 1.3,0.6 1.4,1.9 0.3,2.8 -0.8,0.6 -1.4,1.2 -2,1.9 -0.3,0.3 -0.4,0.7 -0.3,1.1 0.6,7.3 0.6,14.5 0.6,21.8 0.1,6.2 -0.3,12.4 -0.5,18.6 -0.1,2 0,3.9 0,5.8 0,3.1 -0.1,6.1 -0.1,9.2 0,1.1 0,1.2 1.1,1.3 3.4,0.3 6.8,0.9 10.3,0.7 1.4,-0.1 2.8,-0.4 4,-0.9 1.6,-0.7 2.7,-1.9 3.1,-3.7 0.1,-0.5 0.1,-0.9 0.3,-1.4 0.3,-0.8 0.9,-1.1 1.6,-1 0.7,0.1 1.3,0.7 1.2,1.5 -0.2,2.7 -0.8,5.1 -3.1,6.8 -1.9,1.5 -4.2,2.1 -6.5,2.5 -1.9,0.3 -3.5,0.2 -5.5,0.3 z"
   id="path5805"
   inkscape:connector-curvature="0"
   style="display:inline;fill:#333333" />
		<path
   class="st1"
   d="m 226.3,328.2 c -3.5,0 -7.1,0 -10.6,0 -1.1,0 -1.1,0 -1.3,1.2 -0.5,3.3 -1,6.7 -1.5,10 -0.1,0.8 0.1,1.2 0.7,1.5 0.9,0.5 1.7,1.2 2.4,1.9 0.5,0.5 0.8,1.1 0.5,1.9 -0.3,0.7 -0.9,0.9 -1.7,1 -2.9,0.4 -5.8,0.2 -8.8,0.2 -0.4,0 -0.7,-0.1 -1.1,-0.2 -0.7,-0.2 -1.2,-0.7 -1.4,-1.5 -0.2,-0.8 0.2,-1.4 0.8,-1.8 1,-0.7 2.1,-1.4 3.2,-2 0.6,-0.4 0.9,-0.8 0.9,-1.5 1.1,-10.6 2.8,-21.2 5.5,-31.6 1.3,-5 3,-9.8 5,-14.6 1.7,-4.1 3.8,-8 6.4,-11.7 0.9,-1.2 1.9,-2.3 3,-3.3 2.6,-2.2 5.6,-1.5 7.4,0.3 0.8,0.7 1.4,1.6 2,2.5 3,4.4 4.4,9.3 5.4,14.5 0.9,5.2 1.4,10.4 1.7,15.6 0.2,4.1 0.3,8.1 0.5,12.2 0.1,1.2 0.2,2.4 0.3,3.6 0.4,3.6 0.3,7.3 0.2,11 0,0.7 0.1,1.2 0.6,1.7 0.8,0.8 1.4,1.6 2.1,2.4 0.4,0.5 0.8,1 1,1.5 0.8,1.6 0.1,3 -1.7,3.3 -0.8,0.1 -1.6,0.3 -2.5,0.3 -3.3,0 -6.7,0 -10,0 -0.6,0 -1.2,-0.1 -1.8,-0.3 -2,-0.6 -2.6,-2.8 -1.1,-4.2 1.1,-1.1 2.4,-2 3.7,-2.9 0.7,-0.5 1,-1 1,-1.8 0.1,-2.8 0.3,-5.6 0.5,-8.5 0.1,-1.2 0,-1.2 -1.2,-1.2 -3.1,0.1 -6.6,0.4 -10.1,0.5 z M 215.1,325 c 0.6,0.2 1.2,0.1 1.7,0.1 4.2,-0.3 8.4,-0.4 12.6,-0.5 2.4,0 4.8,-0.3 7.2,-0.5 1.4,-0.1 1.4,-0.1 1.4,-1.5 -0.2,-8.3 -0.1,-16.7 -0.7,-25 -0.3,-4.1 -0.8,-8.1 -1.7,-12.1 -0.3,-1.2 -0.6,-2.3 -1.3,-3.4 -0.6,-0.9 -1.2,-1 -2.1,-0.4 -0.3,0.2 -0.7,0.5 -0.9,0.8 -1,1.1 -2,2.2 -2.9,3.3 -4,4.7 -6.2,10.4 -8.3,16.1 -2.8,7.5 -4.1,15.2 -5,23.1 z"
   id="path5807"
   inkscape:connector-curvature="0"
   style="display:inline;fill:#333333" />
		<path
   class="st1"
   d="m 269.5,293.2 c 0,1.4 0,2.7 0,3.9 0.2,6.9 0.3,13.7 0.5,20.6 0.2,4.4 0.1,8.8 0.5,13.2 0.1,2.1 0.1,4.2 0.4,6.3 0.2,1.6 0.5,3.1 1.6,4.4 0.2,0.2 0.4,0.5 0.5,0.8 0.6,1.5 0.1,2.5 -1.4,3 -1.2,0.4 -2.5,0.5 -3.7,0.6 -2,0.2 -3.9,0.7 -5.9,0.7 -0.6,0 -1.2,0 -1.8,-0.3 -1.1,-0.6 -1.3,-1.1 -0.7,-2.3 0.3,-0.5 0.5,-1 0.7,-1.5 0.6,-1.7 0.9,-3.4 0.8,-5.3 -0.9,-12.8 -0.8,-25.7 -0.9,-38.5 0,-4 0,-8.1 0,-12.1 0,-1.4 -0.5,-2.5 -1.6,-3.4 -0.7,-0.6 -1.4,-1 -2.1,-1.5 -0.5,-0.4 -0.9,-0.8 -0.8,-1.5 0.2,-0.6 0.6,-1 1.2,-1.2 2.1,-0.6 4.2,-0.7 6.3,-0.8 1.9,-0.1 3.8,0 5.7,-0.1 0.6,0 1.2,0 1.8,-0.1 1.5,-0.3 2.4,1 1.9,2.3 -0.1,0.3 -0.4,0.6 -0.6,0.9 -0.6,0.7 -1.1,1.5 -1.8,2.1 -0.8,0.7 -0.8,1.5 -0.3,2.4 1.3,2.7 2.6,5.4 3.8,8.2 5.2,11.6 10.3,23.2 15.3,34.9 0.3,0.6 0.5,1.2 0.8,1.8 0.5,-0.1 0.3,-0.5 0.3,-0.7 0,-5.9 0,-11.9 0.1,-17.8 0,-4.3 -0.3,-8.6 -0.8,-12.9 -0.5,-4.3 -0.5,-8.7 -0.3,-13.1 0,-1.1 -0.1,-2.1 -1,-2.8 -0.8,-0.6 -1,-1.5 -1.1,-2.5 -0.1,-1.1 0.4,-1.7 1.4,-2.1 0.8,-0.3 1.5,-0.3 2.3,-0.4 1.4,-0.3 2.7,-0.4 4.1,-0.6 0.4,0 0.8,-0.1 1.3,0 1.1,0.1 1.6,0.7 1.7,1.8 0,0.8 -0.1,1.6 -0.4,2.3 -1,2 -1.4,4.2 -1.3,6.5 0.2,8.7 -0.1,17.3 -0.1,26 0,3.8 0.4,7.6 0.2,11.4 -0.2,2.9 -0.2,5.8 -0.2,8.8 0,1.5 0.2,2.9 0,4.4 -0.2,1.1 0.2,2.1 1.1,2.8 0.5,0.4 0.8,0.9 1.1,1.4 0.7,1.1 0.3,2.4 -0.9,2.7 -2.5,0.6 -5,1 -7.5,0.4 -0.2,0 -0.5,-0.1 -0.7,-0.2 -1.4,-0.6 -1.7,-1.9 -0.8,-3.1 0.3,-0.4 0.7,-0.8 1.1,-1.1 1,-0.8 1,-0.8 0.5,-2 -3,-7 -6,-13.9 -8.9,-20.8 -3.4,-8.2 -7,-16.3 -10.3,-24.5 -0.5,-0.4 -0.6,-0.9 -1.1,-1.4 z"
   id="path5809"
   inkscape:connector-curvature="0"
   style="display:inline;fill:#333333" />
		<path
   class="st1"
   d="m 324.7,277.8 c 4.4,0 8.5,0.3 12.6,0.6 1.2,0.1 2.4,0.3 3.6,0.5 1.4,0.2 2.3,0.9 3,2.1 0.7,1.3 1,2.8 0.6,4.3 -0.2,0.8 -0.4,1.5 -0.7,2.3 -0.2,0.7 -0.8,1.1 -1.5,1.1 -0.7,0 -1.3,-0.4 -1.5,-1.1 -0.3,-0.9 -0.8,-1.8 -0.9,-2.8 -0.1,-0.5 -0.3,-0.8 -0.9,-0.9 -0.5,-0.1 -1,-0.2 -1.5,-0.2 -3,0 -6,0 -9,0 -1.4,0 -1.4,0 -1.5,1.5 -0.4,4.8 -0.4,9.6 -0.3,14.5 0.1,8.4 0.1,16.7 -0.1,25 -0.1,4.4 0,8.7 0,13.1 0,1.3 0.6,2.2 1.2,3.2 0.5,0.8 1.2,1.5 1.8,2.3 1.3,1.7 0.8,3 -1.3,3.3 -2.2,0.4 -4.4,0.3 -6.5,0.2 -1.4,-0.1 -2.9,-0.1 -4.3,-0.2 -1.1,0 -2.2,-0.2 -2.6,-1.4 -0.4,-0.9 0.1,-1.9 1.4,-2.8 2,-1.3 2.8,-3.1 2.8,-5.4 -0.1,-11.5 0.3,-22.9 0.3,-34.4 0,-5.6 0.3,-11.2 0.2,-16.8 0,-0.2 0,-0.5 0,-0.7 0.1,-0.7 -0.2,-0.9 -0.9,-0.9 -1.7,0.1 -3.3,0.2 -5,0.4 -2.1,0.2 -4.1,0.5 -6.2,0.7 -0.7,0.1 -1,0.3 -1,1 0,0.5 0,1 -0.1,1.5 -0.1,0.8 -0.7,1.3 -1.2,1.4 -0.5,0 -1.2,-0.5 -1.2,-1.3 -0.1,-1.7 -0.4,-3.4 -0.3,-5.1 0.1,-1.4 1,-2.3 2.2,-2.8 0.8,-0.3 1.7,-0.6 2.5,-0.7 5.4,-0.8 10.9,-1.6 16.3,-1.5 z"
   id="path5811"
   inkscape:connector-curvature="0"
   style="display:inline;fill:#333333" />
	</g>
	<g
   id="g5817">
		<path
   class="st2"
   d="m 248.6,123.8 c -1.1,1 -1.8,1.8 -2.6,2.5 -2.3,2.2 -4.5,4.4 -6.9,6.5 -0.9,0.8 -1.3,1.6 -1.2,2.9 0.4,12.2 -1.4,24 -5.1,35.6 -1.5,4.8 -3.3,9.4 -5.9,13.7 -1.8,3 -3.8,5.7 -6.4,8 -5.8,5.2 -13.1,5.4 -19.2,0.5 -3,-2.4 -5.1,-5.5 -6.8,-9 -0.4,-0.8 -0.7,-1.6 -1.2,-2.8 -0.3,0.6 -0.5,1 -0.6,1.4 -2.2,8.4 -4.4,16.8 -6.7,25.2 -0.6,2 -1.3,4 -2.2,5.9 -1.6,3.3 -4.4,4.3 -7.7,2.8 -1.3,-0.6 -2.5,-1.3 -3.4,-2.3 -1.8,-2 -3.5,-4.1 -4.8,-6.3 -4.4,-7.3 -6.8,-15.3 -8.3,-23.6 -1.2,-6.7 -1.7,-13.5 -2,-20.3 0,-0.4 -0.1,-0.9 -0.4,-1.4 -0.2,0.6 -0.5,1.3 -0.7,1.9 -2,5.8 -4,11.6 -6.1,17.4 -0.8,2.1 -1.7,4.1 -2.9,6.1 -2.1,3.5 -5.6,4.6 -9.4,3.4 -2.1,-0.7 -3.7,-1.9 -5.2,-3.4 -2.2,-2.2 -3.9,-4.8 -5.3,-7.5 -0.3,-0.6 -0.6,-1.2 -1.2,-2.2 -0.2,0.8 -0.3,1.1 -0.3,1.5 -1.7,10.2 -3.3,20.3 -5.1,30.5 -0.3,1.6 -0.8,3.3 -1.5,4.8 -1.4,3.1 -4.2,4.1 -7.1,2.4 -1.5,-0.9 -2.9,-2.2 -4,-3.6 -2.8,-3.5 -4.6,-7.5 -6.3,-11.6 -2.8,-7.1 -4.5,-14.4 -5.5,-21.9 -0.9,-6.6 -1.4,-13.2 -1.3,-19.9 0,-0.3 0,-0.7 -0.1,-1.2 -0.9,0.5 -1.1,1.3 -1.4,1.9 -2.7,4.7 -5.3,9.4 -8.1,14 -1.2,2 -2.7,3.9 -4.2,5.8 -1,1.2 -2.3,2.3 -3.6,3.2 -3.7,2.4 -7.8,2.3 -11.4,-0.3 -2.4,-1.7 -4.1,-4 -5.5,-6.6 -2.2,-3.9 -3.6,-8.2 -4.5,-12.6 -2.6,-13.4 -1.8,-26.5 2.7,-39.3 1.7,-4.9 4.1,-9.5 7.7,-13.4 2,-2.2 4.3,-4.1 6.9,-5.4 6.3,-3.4 13.2,-2.4 18.5,2.4 2.7,2.5 4.6,5.7 6.1,9 0.5,1.1 0.9,2.1 1.5,3.5 0.4,-0.8 0.7,-1.3 1,-1.9 0.7,-1.2 1.4,-2.5 2.2,-3.5 1.3,-1.7 3.2,-2.2 5.3,-1.9 2.8,0.5 4.1,2.4 3.6,5.1 -1.1,6.3 -2.3,12.7 -3.3,19 -1.7,10.5 -2.8,21.1 -2.6,31.8 0.2,11.3 1,22.5 4.5,33.4 0.8,2.6 1.9,5.1 3,7.6 0.3,0.8 0.9,1.5 1.7,2.8 0.4,-1.1 0.7,-1.8 0.8,-2.4 1,-4.7 2,-9.4 2.9,-14.2 1.5,-8.9 2.9,-17.8 4.4,-26.7 0.3,-1.9 -0.2,-3.6 -0.4,-5.4 -0.8,-6.1 -0.9,-12.2 0.7,-18.2 0.7,-2.8 1.8,-5.4 3.6,-7.8 5.7,-7.8 16.6,-9.1 23.9,-2.9 2.7,2.3 4.6,5.1 6.1,8.2 0.3,0.5 0.5,1.1 1,2.1 0.4,-3.2 0.7,-5.9 1.1,-8.7 1.8,-11.6 4.3,-23 9.3,-33.7 1.4,-3.1 3.2,-6.1 5.1,-8.9 1.7,-2.6 3.8,-4.9 6.5,-6.5 1.7,-1 3.5,-1.9 5.3,-2.4 5,-1.3 9.2,0.6 11.7,5.1 2.2,3.9 2.7,8.2 2.3,12.6 -0.5,5.1 -2.3,9.8 -4.7,14.3 -4.5,8.5 -10.6,15.6 -17.4,22.3 -1.8,1.7 -3.6,3.3 -5.5,4.9 -0.8,0.7 -1.3,1.4 -1.3,2.4 -0.4,5.3 -0.9,10.6 -1.1,15.9 -0.2,5.7 -0.2,11.4 0.1,17 0.4,7.9 1.6,15.8 4.4,23.2 0.9,2.2 2,4.3 3.1,6.4 0.4,0.9 1.1,1.6 1.9,2.7 0.5,-1.2 1.1,-2.1 1.3,-3.1 1.6,-5.4 3.2,-10.9 4.7,-16.3 2,-6.9 3.9,-13.9 5.8,-20.9 0.3,-1 0.4,-2.1 0.4,-3.1 -0.1,-7.1 1.4,-13.9 4.3,-20.4 0.9,-1.9 2.1,-3.6 3.4,-5.2 1.4,-1.6 3.3,-2.4 5.4,-2.2 2.6,0.2 4,1.9 3.4,4.4 -0.7,3.3 -1.6,6.5 -2.5,9.8 -1.6,6 -2.3,12.1 -2,18.3 0.2,4.6 1.1,9.1 3.6,13 0.8,1.2 1.8,2.3 2.9,3.3 1.6,1.3 3.4,1.4 5.1,0.3 1.1,-0.7 2.2,-1.5 3.1,-2.5 3.1,-3 5.1,-6.6 6.8,-10.5 2.8,-6.6 4.6,-13.4 5.8,-20.4 0.9,-5.5 1.4,-11.1 2.1,-16.7 0.1,-1.2 0,-2.4 0,-3.8 -0.6,0.2 -1.1,0.3 -1.6,0.5 -10.7,3.6 -21.5,-2.5 -23.9,-13.5 -1.2,-5.7 -0.5,-11.2 3.3,-15.9 5.1,-6.4 13.6,-6.7 19.2,-0.7 2.1,2.3 3.6,4.9 4.5,7.8 1.1,3.5 1.9,7 2.8,10.5 0.2,0.9 0.3,1.8 0.5,2.9 0.5,-0.4 1,-0.7 1.4,-1 3.4,-3.3 6.9,-6.6 10.3,-9.9 0.6,-0.6 1,-1.5 1.3,-2.3 0.6,-1.6 1,-3.2 1.7,-4.7 1.3,-2.8 4.2,-3.9 7.1,-2.9 1.6,0.6 2.9,1.6 3,3.4 0.1,1.9 0,3.9 -0.2,5.8 -0.8,5.6 -1.8,11.1 -2.6,16.6 -0.8,5.8 -1.3,11.6 -1.9,17.3 -0.1,0.5 0,1 0.3,1.6 0.2,-0.6 0.4,-1.1 0.5,-1.7 2.3,-7.2 5,-14.3 8.8,-20.9 2.1,-3.7 4.5,-7.3 7.6,-10.3 1.7,-1.6 3.6,-3.1 5.7,-4.2 5.2,-2.8 11.1,-2.1 15.7,1.8 2.9,2.4 4.7,5.5 5.9,9 1.4,3.9 2,8 2.4,12.1 0.1,0.6 0.1,1.1 0.2,1.9 0.5,-0.3 0.9,-0.5 1.3,-0.8 3.8,-3.6 7.7,-7.2 11.4,-10.9 0.6,-0.6 1.1,-1.3 1.2,-2.1 0.8,-4.1 1.6,-8.3 2.3,-12.4 0,-0.1 0,-0.3 -0.1,-0.6 -1.1,-0.5 -2.3,-1 -3.5,-1.5 -6.7,-2.8 -13.4,-5.2 -20.6,-6.6 -7.9,-1.5 -15.8,-1.9 -23.8,-0.7 -0.7,0.1 -1.6,0.1 -2.3,-0.1 -1.2,-0.4 -1.4,-1.4 -0.4,-2.2 0.7,-0.5 1.6,-1 2.5,-1.1 3.2,-0.6 6.5,-1.5 9.7,-1.7 11.1,-0.6 21.7,1.8 32,5.7 2.5,1 5.1,2 7.8,3.1 0.3,-0.9 0.5,-1.8 0.8,-2.7 1.5,-4.7 3,-9.3 4.7,-13.9 0.6,-1.7 1.5,-3.3 2.4,-4.9 1.1,-1.9 3,-2.6 5,-2 2,0.6 3,2 3.1,4.2 0.1,3.6 -0.8,7.1 -1.6,10.6 -0.9,4.2 -2,8.3 -3,12.5 -0.1,0.3 -0.1,0.7 -0.2,1.1 0.4,0.3 0.8,0.5 1.3,0.7 5.9,2.7 11.8,5.2 18.2,6.3 2.9,0.5 5.7,0.6 8.5,-0.1 5.6,-1.5 9.6,-6.3 10.3,-12 0.1,-1 0.3,-1.9 0.6,-2.9 0.4,-1.3 1.3,-1.8 2.6,-1.7 1.3,0.1 2,0.7 2.4,2 0.6,1.9 0.2,3.8 -0.4,5.6 -2.4,7.1 -7.4,11.4 -14.6,13.2 -5,1.3 -10.1,0.8 -15,-0.7 -4.2,-1.2 -8.4,-2.8 -12.5,-4.2 -0.8,-0.3 -1.5,-0.6 -2.6,-1 -0.2,0.8 -0.4,1.5 -0.6,2.2 -2.7,13 -4.8,26.2 -5.7,39.5 -0.8,11.1 -0.5,22.1 2.4,33 1,3.8 2.3,7.5 4.2,10.9 0.9,1.6 2,3.2 3.9,4.3 0.6,-0.8 1.3,-1.5 1.8,-2.3 1.1,-2.2 2.2,-4.4 3.2,-6.6 3.6,-8.8 6.1,-17.9 8.7,-27 0.5,-1.6 0.9,-3.1 1.3,-4.6 0.2,-0.6 0.4,-1.2 0.7,-1.7 0.7,-1.2 1.9,-1.7 3.2,-1.3 1.3,0.3 2.1,1.4 2,2.8 -0.1,1.6 -0.4,3.2 -0.8,4.8 -2.6,10 -5.9,19.7 -9.9,29.2 -1.3,3.2 -2.9,6.4 -5.5,8.9 -3.3,3.2 -7.3,3.6 -11.1,0.9 -2.4,-1.7 -4.3,-4 -5.8,-6.6 -3.3,-5.4 -5.2,-11.3 -6.7,-17.4 -2.7,-11.3 -3,-22.8 -2.3,-34.3 0.4,-6.2 1,-12.4 1.6,-18.9 -0.6,0.5 -1.1,1 -1.6,1.4 -3.2,3 -6.4,6.1 -9.6,9.1 -0.9,0.8 -1.3,1.7 -1.3,2.9 -0.1,5.8 -0.7,11.5 -1.9,17.1 -1.3,6 -3.3,11.7 -6.4,17 -1.7,2.9 -3.8,5.4 -6.4,7.4 -2.4,1.8 -5,3 -8,3.4 -7.9,0.9 -12.3,-5.1 -12.7,-10.7 -0.3,-2.9 0.3,-5.7 1.5,-8.4 1.6,-3.9 4,-7.2 6.9,-10.2 4.2,-4.3 8.9,-7.9 13.7,-11.4 1.4,-1 2,-2.1 1.9,-3.8 -0.2,-5.1 -0.1,-10.2 -0.5,-15.3 -0.2,-2.6 -0.9,-5.2 -1.7,-7.8 -0.5,-1.6 -1.5,-3 -2.4,-4.4 -0.9,-1.3 -2.3,-1.6 -3.7,-1 -1.5,0.7 -3,1.5 -4.3,2.5 -2.9,2.2 -5,5 -7,8 -4.7,7.2 -7.8,15.1 -10.2,23.2 -3.6,12.1 -5.5,24.5 -5.5,37.1 0,8.1 0.2,16.3 0.4,24.4 0,2.6 -0.6,3.7 -2.5,4.2 -2.3,0.5 -4.5,-0.5 -5.2,-2.8 -0.8,-2.7 -1.5,-5.4 -2.1,-8.1 -1.7,-7.5 -2.8,-15 -3.2,-22.6 -0.4,-6.8 -0.7,-13.6 -0.7,-20.4 0,-8.8 0.8,-17.6 1.8,-26.4 1.1,-5.1 1.8,-10 2.5,-15.5 z M 65.4,155.5 c 0.2,2.4 0.5,6.4 1,10.3 0.6,4.3 1.7,8.5 3.9,12.3 1.9,3.4 3.1,3.6 5.8,0.7 2,-2.2 3.8,-4.5 5.4,-7 4.4,-6.9 8.6,-13.9 12.9,-20.9 0.8,-1.3 1.1,-2.7 1.3,-4.1 0.6,-5.4 1.2,-10.7 1.8,-16 0.1,-0.5 0.2,-1.1 0.1,-1.6 -1.2,-5.3 -3.1,-10.3 -6.4,-14.7 -1,-1.3 -2.3,-2.4 -3.7,-3.3 -2.3,-1.5 -4.8,-1.5 -7.1,0.1 -1.6,1.2 -3.2,2.5 -4.5,4.1 -3.2,3.6 -5.1,8 -6.7,12.5 -2.7,8.4 -3.5,17.2 -3.8,27.6 z m 90.8,-2.3 c -1.1,-2.1 -1.9,-3.7 -2.8,-5.4 -1.6,-3.2 -3.6,-6 -6.6,-8.1 -3.4,-2.4 -6.8,-1.9 -9.5,1.3 -0.8,1 -1.6,2 -2,3.2 -0.8,2.2 -1.7,4.5 -2.1,6.8 -1.1,7.6 -0.7,15.1 1.1,22.5 0.9,3.9 2.2,7.7 4.4,11.1 0.7,1.2 1.6,2.3 2.9,2.9 1.6,-1.3 2.4,-3.1 3.2,-4.8 4.6,-9.6 7.9,-19.7 11.4,-29.5 z m 15.2,-12.5 c 0.1,0.1 0.3,0.1 0.5,0.1 0.4,-0.3 0.7,-0.6 1.1,-0.9 4.5,-4.4 8.6,-9 12.2,-14.1 3.4,-4.8 6.2,-10 8,-15.6 1.1,-3.4 1.8,-6.9 1.5,-10.5 -0.2,-2.5 -0.8,-4.8 -2.3,-6.9 -1,-1.4 -1.8,-1.7 -3.2,-0.7 -1.5,1 -3,2.2 -3.9,3.7 -1.7,2.6 -3.2,5.4 -4.4,8.3 -4.1,9.8 -6.6,20 -8.5,30.5 -0.4,1.9 -0.7,4 -1,6.1 z m 61.5,-9.1 c -0.2,-1.8 -0.3,-3.3 -0.4,-4.8 -0.5,-4.6 -1.4,-9.2 -3.5,-13.3 -0.9,-1.8 -2,-3.5 -3.4,-4.9 -2.4,-2.4 -5.7,-2.4 -8.4,-0.3 -1.5,1.2 -2.8,2.6 -3.5,4.4 -2.6,6.6 -2,13 2.5,18.6 3.9,4.8 9.8,5.6 15.1,2.6 1.1,-0.6 1.9,-1.3 1.6,-2.3 z m 60.1,24.6 c -1.4,1.1 -2.6,2 -3.7,2.9 -4.4,3.5 -8.5,7.3 -11.6,12 -1.2,1.8 -2.1,3.8 -2.5,5.9 -0.6,3.1 -0.3,6.2 1.9,8.7 2.3,2.7 5.2,2.8 7.5,0.1 0.9,-1 1.6,-2.2 2.2,-3.3 4.2,-8 5.4,-16.9 6.2,-26.3 z"
   id="path5815"
   inkscape:connector-curvature="0"
   style="display:none;fill:#333333" />
	</g>
</g>
<rect
   x="51.900002"
   y="133.5"
   class="st3"
   width="352.5"
   height="87.699997"
   id="rect5821"
   style="fill:none" />
<text
   class="st4 st5 st6"
   id="text5823"
   x="88.896927"
   y="189.83502"
   style="font-size:49.33906937px;font-family:BerlinSansFB-Reg;opacity:0.74900004;fill:#f9f9f9;stroke-width:0.82231647;enable-background:new">Prihodnost je</text>


<g
   class="st7"
   id="g5839"
   style="opacity:0.7;fill:#f2f2f2"
   transform="translate(-2,-4)">
	<g
   id="g5837"
   style="fill:#f2f2f2">
		<path
   d="M 33,284.2 64.5,244 v -0.4 H 35.9 v -14.8 h 53 v 9.5 l -30.8,40.2 v 0.4 h 31.5 v 14.8 H 33 Z"
   id="path5825"
   inkscape:connector-curvature="0"
   style="fill:#f2f2f2" />
		<path
   d="m 143.5,268 h -26.4 v 11 h 29.4 v 14.6 H 99 v -64.7 h 46.1 v 14.6 h -27.9 v 9.9 h 26.4 V 268 Z"
   id="path5827"
   inkscape:connector-curvature="0"
   style="fill:#f2f2f2" />
		<path
   d="m 156.6,229 h 18.2 v 49.5 h 27.9 v 15.2 h -46.1 z"
   id="path5829"
   inkscape:connector-curvature="0"
   style="fill:#f2f2f2" />
		<path
   d="m 255.8,268 h -26.4 v 11 h 29.4 v 14.6 h -47.5 v -64.7 h 46.1 v 14.6 h -28 v 9.9 h 26.4 z"
   id="path5831"
   inkscape:connector-curvature="0"
   style="fill:#f2f2f2" />
		<path
   d="m 268.9,293.6 v -64.7 h 22.8 l 10.6,18.7 c 4.1,7.2 8.2,16 11.4,24.4 h 0.3 c -1.2,-9.6 -1.3,-17.5 -1.3,-26.4 v -16.9 h 16.8 v 64.7 H 309.7 L 297.9,272 c -4.1,-7.5 -8.7,-16.2 -12.5,-25.1 H 285 c 0.5,9.9 0.6,19.2 0.6,29 v 17.5 h -16.7 z"
   id="path5833"
   inkscape:connector-curvature="0"
   style="fill:#f2f2f2" />
		<path
   d="m 360.6,277.8 -4.1,15.7 h -19.1 l 20.5,-64.7 h 24.8 l 21.7,64.7 h -20.2 l -4.9,-15.7 z m 16,-13.2 -3.5,-11.4 c -1.2,-3.7 -2.6,-8.3 -3.7,-12.2 h -0.3 c -1,3.7 -2,8.4 -3.1,12.2 l -3.1,11.4 z"
   id="path5835"
   inkscape:connector-curvature="0"
   style="fill:#f2f2f2" />
	</g>
</g>
<path
   class="st8"
   d="m 74.9,224.9 c 2.9,3.5 5.5,6.5 8.1,9.6 0.6,0.7 1.3,1.5 1.8,2.2 2.6,3.9 1.7,7.9 -2.5,10.2 -0.4,0.2 -0.8,0.4 -1.2,0.6 -6,2 -12,2.3 -17.9,-0.5 -10.4,-4.9 -12.1,-15.6 -10.2,-23 0.2,-0.8 0.5,-1.5 0.7,-2.4 -4.2,-1 -8.3,-1.8 -12.3,-2.9 -5,-1.3 -10,-2.7 -14.9,-4.3 -2.3,-0.7 -4.5,-1.9 -6.7,-2.9 -0.6,-0.3 -1.2,-0.7 -1.7,-1.2 -0.7,-0.7 -1.1,-1.8 -0.4,-2.6 0.5,-0.6 1.5,-1 2.2,-0.9 2.2,0.3 4.3,0.9 6.4,1.4 9.8,2.4 19.5,5 29.4,7 16.8,3.5 33.8,4.6 51,4.2 0.6,0 1.2,-0.1 2,-0.2 -0.5,-0.9 -0.8,-1.7 -1.2,-2.5 -6.7,-12.4 -0.5,-33.2 17.7,-36.7 5.4,-1 10.7,-0.6 15.5,2.3 2.5,1.5 4.4,3.5 5.3,6.3 0.8,2.7 0.3,5.2 -1,7.6 -4.1,7.7 -9.2,14.5 -15.8,20.1 -0.6,0.5 -1.1,1 -1.7,1.5 22.5,-1.1 44.6,-4.5 67,-7.9 -0.5,-0.9 -0.8,-1.5 -1.2,-2.1 -6.3,-10.4 -3.5,-22.6 6.8,-29.2 4.7,-3 9.8,-4.7 15.4,-4.1 1.4,0.1 2.8,0.5 4.1,1 4.6,1.9 6.7,5.9 5.2,10.7 -2.3,7.4 -5.2,14.5 -10.8,20.2 -0.2,0.2 -0.3,0.4 -0.5,0.8 24.9,-2.6 49.6,-5.2 74.5,-7.8 -0.4,-0.8 -0.7,-1.7 -1.1,-2.5 -2.9,-6.5 -3,-12.9 1,-19 4,-6.2 11.8,-9.5 18.9,-8 1.3,0.3 2.5,0.8 3.7,1.4 4.4,2.5 5.7,6.7 3.6,11.2 -2.4,5.1 -5.4,9.8 -9.3,14 -0.5,0.6 -1,1.1 -1.8,2 0.9,0.1 1.4,0.2 2,0.1 10.2,-0.5 20.3,-0.4 30.5,0.2 1,0.1 1.8,-0.1 2.6,-0.8 7.4,-6.7 16.2,-9.5 26.1,-9.2 8,0.2 15.8,1.8 23.2,5.2 7.6,3.5 13.8,8.6 18.6,15.4 3.5,4.9 2.7,9.5 -2.4,12.8 -1.9,1.2 -4,2.3 -6.1,3 -8.7,2.9 -17.6,4.6 -26.8,4.1 -4.8,-0.2 -9.3,-1.6 -13.7,-3.4 -6.8,-2.8 -12.9,-6.8 -17.8,-12.2 -1.9,-2.1 -3.4,-4.4 -5.1,-6.7 0.1,-0.2 0.2,-0.3 0.3,-0.5 -1,-0.1 -2.1,-0.3 -3.1,-0.2 -9.5,0.2 -19.1,0.2 -28.6,0.6 -8.1,0.4 -16.1,1.1 -24.1,1.8 -7.4,0.6 -14.8,1.4 -22.2,2.2 -0.1,0 -0.3,0.2 -0.5,0.4 0.2,0.3 0.4,0.6 0.6,0.7 4.2,3.3 7.5,7.6 10.9,11.7 0.7,0.8 1.3,1.9 1.8,2.9 1.6,3.6 0.4,7.3 -3.1,9.2 -3.3,1.8 -6.9,2.4 -10.7,2.2 -9.6,-0.4 -17.8,-7.2 -19.5,-16.5 -0.5,-2.6 -0.1,-5.4 -0.1,-8.5 -22.4,2.1 -44.3,5.1 -66.9,8.1 1.4,1 2.4,1.5 3.2,2.3 3.9,3.7 7.9,7.2 11.5,11.1 3.7,4.1 2.3,8.9 -2.9,10.9 -1.4,0.6 -3,0.9 -4.6,1 -12.9,1.1 -23.3,-7.4 -25.1,-20.5 -0.1,-0.8 -0.2,-1.6 -0.2,-2.3 -12.7,0.9 -25.2,2 -37.7,2.6 -12.7,0.8 -25.2,0 -38.2,-1.3 z"
   id="path5841"
   inkscape:connector-curvature="0"
   style="fill:#009c00;opacity:1" />
<g
   id="g5845"
   transform="matrix(0.76622208,0,0,0.76622208,34.452892,44.40789)"
   style="opacity:0.57700004">
	<path
   class="st9"
   d="m 26.2,165.4 c 0.3,-1.6 0.4,-2.9 0.7,-4.2 0.7,-3.3 2.3,-6.1 5.2,-7.9 4,-2.5 8.7,-1.4 11.2,2.6 1.5,2.3 2.1,4.8 2.4,7.4 0.8,8.8 -1,17.1 -4.7,25 -1.5,3.3 -4.2,4.5 -7.7,4.4 -1,0 -2,-0.1 -2.9,-0.4 -7,-2.2 -13.2,-5.7 -18.1,-11.2 -2.3,-2.5 -3.7,-5.5 -4.8,-8.7 -1.9,-5.7 2.1,-9.6 6,-10.5 3.5,-0.8 6.8,-0.2 9.9,1.6 0.8,0.7 1.6,1.2 2.8,1.9 z"
   id="path5843"
   inkscape:connector-curvature="0"
   style="fill:#ff491f" />
</g>
<g
   class="st7"
   id="g5905"
   style="opacity:0.7;fill:#cccccc"
   transform="translate(-4)">
	<g
   id="g5903"
   style="fill:#cccccc">
		<path
   d="m 41,316.4 c -0.8,-0.4 -1.4,-1 -1.8,-1.9 -0.4,-0.8 -0.6,-1.8 -0.6,-3 V 302 h 1.8 v 9.6 c 0,1.2 0.3,2.1 0.9,2.7 0.6,0.6 1.4,0.9 2.6,0.9 1.1,0 2,-0.3 2.6,-0.9 0.6,-0.6 0.9,-1.5 0.9,-2.7 V 302 h 1.8 v 9.6 c 0,1.2 -0.2,2.2 -0.6,3 -0.4,0.8 -1,1.4 -1.8,1.9 -0.8,0.4 -1.7,0.6 -2.9,0.6 -1.2,0 -2.1,-0.2 -2.9,-0.7 z"
   id="path5847"
   inkscape:connector-curvature="0"
   style="fill:#cccccc" />
		<path
   d="m 52.6,302 h 1.8 v 14.9 h -1.8 z m 1.1,7.4 h 4.8 c 0.5,0 1,-0.1 1.4,-0.4 0.4,-0.2 0.7,-0.6 0.9,-1 0.2,-0.4 0.3,-0.9 0.3,-1.5 0,-0.6 -0.1,-1.1 -0.3,-1.5 -0.2,-0.4 -0.5,-0.8 -0.9,-1 -0.4,-0.2 -0.8,-0.4 -1.4,-0.4 H 53.7 V 302 h 4.7 c 0.9,0 1.7,0.2 2.3,0.6 0.7,0.4 1.2,0.9 1.6,1.6 0.4,0.7 0.6,1.5 0.6,2.4 0,0.9 -0.2,1.7 -0.6,2.4 -0.4,0.7 -0.9,1.2 -1.6,1.6 -0.7,0.4 -1.5,0.6 -2.3,0.6 h -4.7 z"
   id="path5849"
   inkscape:connector-curvature="0"
   style="fill:#cccccc" />
		<path
   d="M 67.8,316.4 C 67,316 66.4,315.3 66,314.5 c -0.4,-0.8 -0.6,-1.8 -0.6,-2.9 v -4.2 c 0,-1.1 0.2,-2.1 0.6,-2.9 0.4,-0.8 1,-1.5 1.8,-1.9 0.8,-0.4 1.7,-0.7 2.8,-0.7 1.1,0 2,0.2 2.8,0.7 0.8,0.4 1.4,1.1 1.8,1.9 0.4,0.8 0.6,1.8 0.6,2.9 v 4.2 c 0,1.1 -0.2,2.1 -0.6,2.9 -0.4,0.8 -1,1.5 -1.8,1.9 -0.8,0.4 -1.7,0.7 -2.8,0.7 -1.1,0 -2,-0.3 -2.8,-0.7 z m 4.6,-1.5 c 0.5,-0.3 0.9,-0.7 1.2,-1.3 0.3,-0.6 0.4,-1.2 0.4,-2 v -4.4 c 0,-0.8 -0.1,-1.4 -0.4,-2 -0.3,-0.6 -0.7,-1 -1.2,-1.3 -0.5,-0.3 -1.1,-0.4 -1.8,-0.4 -0.7,0 -1.3,0.1 -1.8,0.4 -0.5,0.3 -0.9,0.7 -1.2,1.3 -0.3,0.6 -0.4,1.2 -0.4,2 v 4.4 c 0,0.8 0.1,1.4 0.4,2 0.3,0.6 0.7,1 1.2,1.3 0.5,0.3 1.1,0.4 1.8,0.4 0.7,0 1.3,-0.1 1.8,-0.4 z"
   id="path5851"
   inkscape:connector-curvature="0"
   style="fill:#cccccc" />
		<path
   d="M 79.2,302 H 81 v 14.9 h -1.8 z m 0.9,6.9 h 5.1 c 0.5,0 0.9,-0.1 1.3,-0.3 0.4,-0.2 0.6,-0.5 0.8,-0.9 0.2,-0.4 0.3,-0.9 0.3,-1.4 0,-0.5 -0.1,-1 -0.3,-1.4 -0.2,-0.4 -0.5,-0.7 -0.8,-0.9 -0.4,-0.2 -0.8,-0.3 -1.3,-0.3 H 80.1 V 302 h 5 c 0.9,0 1.6,0.2 2.3,0.5 0.7,0.4 1.2,0.9 1.5,1.5 0.4,0.7 0.5,1.4 0.5,2.3 0,0.9 -0.2,1.6 -0.5,2.3 -0.4,0.7 -0.9,1.2 -1.5,1.5 -0.7,0.4 -1.4,0.5 -2.3,0.5 h -5 z m 4.5,1.2 1.7,-0.5 3.8,7.2 H 88 Z"
   id="path5853"
   inkscape:connector-curvature="0"
   style="fill:#cccccc" />
		<path
   d="m 97,302 h 1.8 l 5.5,14.9 h -1.9 L 98,304.2 93.6,316.9 h -1.9 z m -3,9.8 h 7.8 v 1.7 H 94 Z"
   id="path5855"
   inkscape:connector-curvature="0"
   style="fill:#cccccc" />
		<path
   d="m 106.5,302 h 1.8 v 14.9 h -1.8 z m 1.3,13.3 h 4.1 c 1.2,0 2,-0.2 2.5,-0.7 0.5,-0.4 0.8,-1.1 0.8,-1.9 v 0 c 0,-0.5 -0.1,-1 -0.3,-1.4 -0.2,-0.4 -0.5,-0.7 -0.9,-0.9 -0.4,-0.2 -1,-0.3 -1.6,-0.3 h -4.6 v -1.6 h 4.6 c 0.9,0 1.5,-0.2 2,-0.6 0.4,-0.4 0.7,-1 0.7,-1.8 0,-0.8 -0.2,-1.4 -0.7,-1.8 -0.5,-0.4 -1.2,-0.6 -2.2,-0.6 h -4.3 V 302 h 4.6 c 1,0 1.8,0.2 2.4,0.5 0.6,0.3 1.1,0.8 1.5,1.4 0.4,0.6 0.5,1.3 0.5,2.2 0,0.5 -0.1,1 -0.3,1.4 -0.2,0.4 -0.5,0.8 -0.9,1.2 -0.4,0.4 -0.9,0.5 -1.5,0.6 0.6,0.1 1.1,0.3 1.6,0.6 0.4,0.3 0.8,0.8 1,1.3 0.2,0.5 0.3,1.1 0.3,1.6 v 0 c 0,0.8 -0.2,1.5 -0.5,2.1 -0.3,0.6 -0.9,1.1 -1.5,1.4 -0.6,0.3 -1.4,0.5 -2.3,0.5 H 108 v -1.5 z"
   id="path5857"
   inkscape:connector-curvature="0"
   style="fill:#cccccc" />
		<path
   d="m 120.1,302 h 1.8 v 14.9 h -1.8 z m 1,13.2 h 8.5 v 1.7 h -8.5 c 0,0 0,-1.7 0,-1.7 z"
   id="path5859"
   inkscape:connector-curvature="0"
   style="fill:#cccccc" />
		<path
   d="m 132.2,316.6 c -0.7,-0.3 -1.2,-0.8 -1.6,-1.3 l 1.4,-1.1 c 0.3,0.4 0.6,0.7 1,0.9 0.4,0.2 0.9,0.3 1.5,0.3 0.9,0 1.6,-0.3 2.1,-0.9 0.5,-0.6 0.7,-1.4 0.7,-2.4 V 302 h 1.8 v 10.1 c 0,1.1 -0.2,2 -0.6,2.7 -0.4,0.7 -0.9,1.3 -1.6,1.7 -0.7,0.4 -1.6,0.6 -2.5,0.6 -0.8,0 -1.6,-0.2 -2.2,-0.5 z"
   id="path5861"
   inkscape:connector-curvature="0"
   style="fill:#cccccc" />
		<path
   d="m 146.8,302 h 1.8 l 5.5,14.9 h -1.9 l -4.4,-12.7 -4.4,12.7 h -1.9 z m -3,9.8 h 7.8 v 1.7 h -7.8 z"
   id="path5863"
   inkscape:connector-curvature="0"
   style="fill:#cccccc" />
		<path
   d="m 156.4,316.6 c -0.7,-0.3 -1.2,-0.8 -1.6,-1.3 l 1.4,-1.1 c 0.3,0.4 0.6,0.7 1,0.9 0.4,0.2 0.9,0.3 1.5,0.3 0.9,0 1.6,-0.3 2.1,-0.9 0.5,-0.6 0.7,-1.4 0.7,-2.4 V 302 h 1.8 v 10.1 c 0,1.1 -0.2,2 -0.6,2.7 -0.4,0.7 -0.9,1.3 -1.6,1.7 -0.7,0.4 -1.6,0.6 -2.5,0.6 -0.8,0 -1.6,-0.2 -2.2,-0.5 z"
   id="path5865"
   inkscape:connector-curvature="0"
   style="fill:#cccccc" />
		<path
   d="m 170.5,302 h 1.8 v 14.9 h -1.8 z m 1,0 h 8.6 v 1.7 h -8.6 z m 0,6.7 h 7.4 v 1.7 h -7.4 z m 0,6.5 h 8.6 v 1.7 h -8.6 z"
   id="path5867"
   inkscape:connector-curvature="0"
   style="fill:#cccccc" />
		<path
   d="m 183.1,302 h 1.8 v 14.9 h -1.8 z m 1,13.2 h 8.5 v 1.7 h -8.5 z"
   id="path5869"
   inkscape:connector-curvature="0"
   style="fill:#cccccc" />
		<path
   d="m 195.1,302 h 1.8 v 14.9 h -1.8 z m 1,0 h 8.6 v 1.7 h -8.6 z m 0,6.7 h 7.4 v 1.7 h -7.4 z m 0,6.5 h 8.6 v 1.7 h -8.6 z"
   id="path5871"
   inkscape:connector-curvature="0"
   style="fill:#cccccc" />
		<path
   d="m 207.7,302 h 1.8 v 14.9 h -1.8 z m 1.1,9.4 7.4,-9.4 h 2.2 l -9.5,11.5 z m 3.4,-2.4 1.3,-1.5 5.6,9.5 h -2.2 z"
   id="path5873"
   inkscape:connector-curvature="0"
   style="fill:#cccccc" />
		<path
   d="m 219.1,302 h 10.5 v 1.7 h -10.5 z m 4.4,0.9 h 1.8 v 14 h -1.8 z"
   id="path5875"
   inkscape:connector-curvature="0"
   style="fill:#cccccc" />
		<path
   d="m 231.3,302 h 1.8 v 14.9 h -1.8 z m 0.9,6.9 h 5.1 c 0.5,0 0.9,-0.1 1.3,-0.3 0.4,-0.2 0.6,-0.5 0.8,-0.9 0.2,-0.4 0.3,-0.9 0.3,-1.4 0,-0.5 -0.1,-1 -0.3,-1.4 -0.2,-0.4 -0.5,-0.7 -0.8,-0.9 -0.4,-0.2 -0.8,-0.3 -1.3,-0.3 h -5.1 V 302 h 5 c 0.9,0 1.6,0.2 2.3,0.5 0.7,0.4 1.2,0.9 1.5,1.5 0.4,0.7 0.5,1.4 0.5,2.3 0,0.9 -0.2,1.6 -0.5,2.3 -0.4,0.7 -0.9,1.2 -1.5,1.5 -0.7,0.4 -1.4,0.5 -2.3,0.5 h -5 z m 4.4,1.2 1.7,-0.5 3.8,7.2 H 240 Z"
   id="path5877"
   inkscape:connector-curvature="0"
   style="fill:#cccccc" />
		<path
   d="m 247.1,316.4 c -0.8,-0.4 -1.4,-1.1 -1.8,-1.9 -0.4,-0.8 -0.6,-1.8 -0.6,-2.9 v -4.2 c 0,-1.1 0.2,-2.1 0.6,-2.9 0.4,-0.8 1,-1.5 1.8,-1.9 0.8,-0.4 1.7,-0.7 2.8,-0.7 1.1,0 2,0.2 2.8,0.7 0.8,0.4 1.4,1.1 1.8,1.9 0.4,0.8 0.6,1.8 0.6,2.9 v 4.2 c 0,1.1 -0.2,2.1 -0.6,2.9 -0.4,0.8 -1,1.5 -1.8,1.9 -0.8,0.4 -1.7,0.7 -2.8,0.7 -1.1,0 -2,-0.3 -2.8,-0.7 z m 4.6,-1.5 c 0.5,-0.3 0.9,-0.7 1.2,-1.3 0.3,-0.6 0.4,-1.2 0.4,-2 v -4.4 c 0,-0.8 -0.1,-1.4 -0.4,-2 -0.3,-0.6 -0.7,-1 -1.2,-1.3 -0.5,-0.3 -1.1,-0.4 -1.8,-0.4 -0.7,0 -1.3,0.1 -1.8,0.4 -0.5,0.3 -0.9,0.7 -1.2,1.3 -0.3,0.6 -0.4,1.2 -0.4,2 v 4.4 c 0,0.8 0.1,1.4 0.4,2 0.3,0.6 0.7,1 1.2,1.3 0.5,0.3 1.1,0.4 1.8,0.4 0.7,0 1.3,-0.1 1.8,-0.4 z"
   id="path5879"
   inkscape:connector-curvature="0"
   style="fill:#cccccc" />
		<path
   d="m 258.5,302 h 1.7 l 8,12.5 -0.4,-0.1 V 302 h 1.8 v 14.9 h -1.7 l -8,-12.4 0.5,0.2 V 317 h -1.8 v -15 z"
   id="path5881"
   inkscape:connector-curvature="0"
   style="fill:#cccccc" />
		<path
   d="m 276.6,317.1 c 0,0 -0.3,-0.1 -1,-0.2 -0.6,-0.1 -1.2,-0.3 -1.8,-0.6 -0.6,-0.3 -1.1,-0.6 -1.6,-1 l 1.1,-1.4 c 0.6,0.5 1.3,0.9 2,1.2 0.7,0.3 1.5,0.4 2.3,0.4 1.2,0 2.1,-0.2 2.7,-0.7 0.6,-0.5 1,-1.1 1,-1.9 v 0 c 0,-0.5 -0.1,-1 -0.4,-1.3 -0.3,-0.3 -0.7,-0.6 -1.1,-0.7 -0.5,-0.2 -1,-0.3 -1.8,-0.4 0,0 0,0 -0.1,0 0,0 0,0 -0.1,0 h -0.2 c -1,-0.2 -1.9,-0.4 -2.5,-0.6 -0.6,-0.2 -1.2,-0.6 -1.6,-1.1 -0.4,-0.5 -0.7,-1.3 -0.7,-2.3 v 0 c 0,-0.9 0.2,-1.7 0.6,-2.4 0.4,-0.7 1,-1.1 1.8,-1.5 0.8,-0.3 1.7,-0.5 2.9,-0.5 0.5,0 1,0.1 1.6,0.2 0.5,0.1 1,0.3 1.5,0.5 0.5,0.2 1,0.5 1.5,0.9 l -1,1.4 c -0.6,-0.4 -1.2,-0.8 -1.8,-1 -0.6,-0.2 -1.2,-0.3 -1.8,-0.3 -1.1,0 -2,0.2 -2.6,0.7 -0.6,0.5 -0.9,1.1 -0.9,1.9 v 0 c 0,0.5 0.2,1 0.5,1.3 0.3,0.3 0.7,0.5 1.2,0.7 0.5,0.2 1.1,0.3 1.9,0.5 h 0.1 0.1 0.1 0.1 c 0.9,0.2 1.7,0.4 2.3,0.7 0.6,0.3 1.1,0.6 1.5,1.2 0.4,0.5 0.6,1.3 0.6,2.2 v 0 c 0,0.9 -0.2,1.7 -0.6,2.3 -0.4,0.6 -1.1,1.1 -1.9,1.5 -0.8,0.3 -1.8,0.5 -3,0.5 -0.5,-0.2 -0.9,-0.2 -0.9,-0.2 z"
   id="path5883"
   inkscape:connector-curvature="0"
   style="fill:#cccccc" />
		<path
   d="m 286.1,302 h 1.8 v 14.9 h -1.8 z m 1.2,9.4 7.4,-9.4 h 2.2 l -9.5,11.5 z m 3.4,-2.4 1.3,-1.5 5.6,9.5 h -2.2 z"
   id="path5885"
   inkscape:connector-curvature="0"
   style="fill:#cccccc" />
		<path
   d="m 299.6,302 h 1.8 v 14.9 h -1.8 z m 1,0 h 8.6 v 1.7 h -8.6 z m 0,6.7 h 7.4 v 1.7 h -7.4 z m 0,6.5 h 8.6 v 1.7 h -8.6 z"
   id="path5887"
   inkscape:connector-curvature="0"
   style="fill:#cccccc" />
		<path
   d="m 315.7,302 h 1.8 v 14.9 h -1.8 z m 1,6.9 h 5.1 c 0.5,0 0.9,-0.1 1.3,-0.3 0.4,-0.2 0.6,-0.5 0.8,-0.9 0.2,-0.4 0.3,-0.9 0.3,-1.4 0,-0.5 -0.1,-1 -0.3,-1.4 -0.2,-0.4 -0.5,-0.7 -0.8,-0.9 -0.4,-0.2 -0.8,-0.3 -1.3,-0.3 h -5.1 V 302 h 5 c 0.9,0 1.6,0.2 2.3,0.5 0.7,0.4 1.2,0.9 1.5,1.5 0.4,0.7 0.5,1.4 0.5,2.3 0,0.9 -0.2,1.6 -0.5,2.3 -0.4,0.7 -0.9,1.2 -1.5,1.5 -0.7,0.4 -1.4,0.5 -2.3,0.5 h -5 z m 4.4,1.2 1.7,-0.5 3.8,7.2 h -2.1 z"
   id="path5889"
   inkscape:connector-curvature="0"
   style="fill:#cccccc" />
		<path
   d="m 333.5,302 h 1.8 l 5.5,14.9 h -1.9 l -4.4,-12.7 -4.4,12.7 H 328 Z m -3,9.8 h 7.8 v 1.7 h -7.8 z"
   id="path5891"
   inkscape:connector-curvature="0"
   style="fill:#cccccc" />
		<path
   d="m 346.4,317.1 c 0,0 -0.4,-0.2 -1.2,-0.7 -0.8,-0.5 -1.4,-1.1 -1.8,-1.9 -0.4,-0.8 -0.6,-1.8 -0.6,-2.9 v -4.1 c 0,-1.1 0.2,-2.1 0.6,-2.9 0.4,-0.8 1,-1.5 1.8,-2 0.8,-0.5 1.7,-0.7 2.7,-0.7 0.9,0 1.6,0.2 2.4,0.5 0.8,0.3 1.3,0.9 1.8,1.5 0.5,0.7 0.8,1.4 1,2.3 h -1.8 c -0.2,-0.5 -0.4,-1 -0.7,-1.4 -0.3,-0.4 -0.7,-0.7 -1.2,-0.9 -0.5,-0.2 -0.9,-0.3 -1.4,-0.3 -0.7,0 -1.3,0.2 -1.8,0.5 -0.5,0.3 -0.9,0.8 -1.2,1.4 -0.3,0.6 -0.4,1.3 -0.4,2 v 4.1 c 0,0.8 0.1,1.4 0.4,2 0.3,0.6 0.7,1 1.2,1.4 0.5,0.3 1.1,0.5 1.8,0.5 0.5,0 1,-0.1 1.4,-0.3 0.4,-0.2 0.8,-0.5 1.2,-0.9 0.3,-0.4 0.6,-0.9 0.7,-1.4 h 1.8 c -0.2,0.9 -0.5,1.6 -1,2.3 -0.5,0.7 -1.1,1.2 -1.8,1.5 -0.7,0.4 -1.5,0.5 -2.3,0.5 -1.1,-0.1 -1.6,-0.1 -1.6,-0.1 z m -1.5,-18.5 1,-1.1 2,1.6 2,-1.6 1,1.1 -3,2.4 z"
   id="path5893"
   inkscape:connector-curvature="0"
   style="fill:#cccccc" />
		<path
   d="m 358.2,316.4 c -0.8,-0.4 -1.4,-1 -1.8,-1.9 -0.4,-0.8 -0.6,-1.8 -0.6,-3 V 302 h 1.8 v 9.6 c 0,1.2 0.3,2.1 0.9,2.7 0.6,0.6 1.4,0.9 2.6,0.9 1.1,0 2,-0.3 2.6,-0.9 0.6,-0.6 0.9,-1.5 0.9,-2.7 V 302 h 1.8 v 9.6 c 0,1.2 -0.2,2.2 -0.6,3 -0.4,0.8 -1,1.4 -1.8,1.9 -0.8,0.4 -1.7,0.6 -2.9,0.6 -1.2,0 -2.1,-0.2 -2.9,-0.7 z"
   id="path5895"
   inkscape:connector-curvature="0"
   style="fill:#cccccc" />
		<path
   d="m 369.8,302 h 1.7 l 8,12.5 -0.4,-0.1 V 302 h 1.8 v 14.9 h -1.7 l -8,-12.4 0.5,0.2 V 317 h -1.8 v -15 z"
   id="path5897"
   inkscape:connector-curvature="0"
   style="fill:#cccccc" />
		<path
   d="m 384.5,302 h 1.8 v 14.9 h -1.8 z m 1,0 h 8.6 v 1.7 h -8.6 z m 0,6.7 h 7.4 v 1.7 h -7.4 z m 0,6.5 h 8.6 v 1.7 h -8.6 z"
   id="path5899"
   inkscape:connector-curvature="0"
   style="fill:#cccccc" />
		<path
   d="m 396.7,302 h 1.8 v 11.3 h -1.8 z m 0,13.1 h 1.8 v 1.8 h -1.8 z"
   id="path5901"
   inkscape:connector-curvature="0"
   style="fill:#cccccc" />
	</g>
</g>
</svg>