<?xml version="1.0" encoding="UTF-8" standalone="no"?>
<svg
   xmlns:dc="http://purl.org/dc/elements/1.1/"
   xmlns:cc="http://creativecommons.org/ns#"
   xmlns:rdf="http://www.w3.org/1999/02/22-rdf-syntax-ns#"
   xmlns:svg="http://www.w3.org/2000/svg"
   xmlns="http://www.w3.org/2000/svg"
   xmlns:sodipodi="http://sodipodi.sourceforge.net/DTD/sodipodi-0.dtd"
   xmlns:inkscape="http://www.inkscape.org/namespaces/inkscape"
   height="591pt"
   version="1.1"
   viewBox="1 1 591.601 591"
   width="591pt"
   id="svg57"
   sodipodi:docname="password.svg"
   inkscape:version="0.92.4 (33fec40, 2019-01-16)">
  <metadata
     id="metadata63">
    <rdf:RDF>
      <cc:Work
         rdf:about="">
        <dc:format>image/svg+xml</dc:format>
        <dc:type
           rdf:resource="http://purl.org/dc/dcmitype/StillImage" />
      </cc:Work>
    </rdf:RDF>
  </metadata>
  <defs
     id="defs61" />
  <sodipodi:namedview
     pagecolor="#ffffff"
     bordercolor="#666666"
     borderopacity="1"
     objecttolerance="10"
     gridtolerance="10"
     guidetolerance="10"
     inkscape:pageopacity="0"
     inkscape:pageshadow="2"
     inkscape:window-width="1920"
     inkscape:window-height="1052"
     id="namedview59"
     showgrid="false"
     inkscape:zoom="1.0989848"
     inkscape:cx="247.50115"
     inkscape:cy="364.93277"
     inkscape:window-x="1920"
     inkscape:window-y="0"
     inkscape:window-maximized="1"
     inkscape:current-layer="svg57" />
  <path
     inkscape:connector-curvature="0"
     id="path10"
     style="fill:#5d5360;fill-opacity:1;fill-rule:nonzero;stroke:none"
     d="M 481.77209,205.12064 H 73.498645 c -22.546875,0 -40.828125,18.28125 -40.828125,40.82812 V 592.98392 H 522.60021 V 245.94876 c 0,-22.54687 -18.28125,-40.82812 -40.82812,-40.82812 z m 0,0" />
  <path
     inkscape:connector-curvature="0"
     id="path12"
     style="fill:#86d359;fill-opacity:1;fill-rule:nonzero;stroke:none;stroke-width:1.0620091"
     d="M 495.28586,572.56986 V 250.99215 c 0,-11.84344 -9.80823,-21.4388 -21.92378,-21.4388 H 78.742645 c -12.115545,0 -21.923765,9.59536 -21.923765,21.4388 v 321.57771 z m 0,0" />
  <path
     inkscape:connector-curvature="0"
     id="path14"
     style="fill:#86c459;fill-opacity:1;fill-rule:nonzero;stroke:none"
     d="M 495.28586,572.56986 V 266.36283 c 0,-11.27735 -9.13282,-20.41407 -20.41407,-20.41407 h -20.41015 l -326.6211,326.6211 z m 0,0" />
  <path
     inkscape:connector-curvature="0"
     id="path16"
     style="fill:#ffffff;fill-opacity:1;fill-rule:nonzero;stroke:none"
     d="m 137.7439,356.4209 h 285.79296 v 81.65234 H 137.7439 Z m 0,0" />
  <path
     inkscape:connector-curvature="0"
     id="path18"
     style="fill:#115e99;fill-opacity:0.56544501;fill-rule:nonzero;stroke:none"
     d="m 166.85955,394.54964 h 20.41407 v 20.41407 h -20.41407 z m 0,0" />
  <path
     inkscape:connector-curvature="0"
     id="path20"
     style="fill:#115e99;fill-opacity:0.56544501;fill-rule:nonzero;stroke:none"
     d="m 207.68768,394.54964 h 20.41406 v 20.41407 h -20.41406 z m 0,0" />
  <path
     inkscape:connector-curvature="0"
     id="path22"
     style="fill:#115e99;fill-opacity:0.56544501;fill-rule:nonzero;stroke:none"
     d="m 248.5158,394.54964 h 20.41407 v 20.41407 H 248.5158 Z m 0,0" />
  <path
     inkscape:connector-curvature="0"
     id="path24"
     style="fill:#115e99;fill-opacity:0.56544501;fill-rule:nonzero;stroke:none"
     d="m 289.34393,394.54964 h 20.41406 v 20.41407 h -20.41406 z m 0,0" />
  <path
     inkscape:connector-curvature="0"
     id="path26"
     style="fill:#fdb52e;fill-opacity:1;fill-rule:nonzero;stroke:none"
     d="m 332.37755,154.08548 h 237.55469 c 13.32031,0 24.11719,10.80078 24.11719,24.1211 v 125.28125 c 0,13.3164 -10.79688,24.11718 -24.11719,24.11718 H 332.37755 c -13.32031,0 -24.12109,-10.80078 -24.12109,-24.11718 V 178.20658 c 0,-13.32032 10.80078,-24.1211 24.12109,-24.1211 z m 0,0" />
  <path
     inkscape:connector-curvature="0"
     id="path28"
     style="fill:#d9dcde;fill-opacity:1;fill-rule:nonzero;stroke:none"
     d="m 451.15099,0.98392302 c -62.0039,0 -112.27344,50.26953098 -112.27344,112.27734698 v 40.82421 h 40.82813 v -40.82421 c 0,-39.46094 31.98828,-71.449222 71.44531,-71.449222 39.46094,0 71.44922,31.988282 71.44922,71.449222 v 40.82421 h 40.82813 V 113.26127 C 563.42834,51.253454 513.1588,0.98392302 451.15099,0.98392302 Z m 0,0" />
  <path
     inkscape:connector-curvature="0"
     id="path30"
     style="fill:#86d359;fill-opacity:0.56020945;fill-rule:nonzero;stroke:none"
     d="m 175.56505,154.08548 h 20.41407 v 20.41407 h -20.41407 z m 0,0" />
  <path
     inkscape:connector-curvature="0"
     id="path32"
     style="fill:#86d359;fill-opacity:0.56020945;fill-rule:nonzero;stroke:none"
     d="m 175.56505,113.26127 h 20.41407 v 20.41015 h -20.41407 z m 0,0" />
  <path
     inkscape:connector-curvature="0"
     id="path34"
     style="fill:#86d359;fill-opacity:0.56020945;fill-rule:nonzero;stroke:none"
     d="m 175.56505,72.433142 h 20.41407 v 20.414062 h -20.41407 z m 0,0" />
  <path
     inkscape:connector-curvature="0"
     id="path36"
     style="fill:#86d359;fill-opacity:0.56020945;fill-rule:nonzero;stroke:none"
     d="m 175.56505,31.605017 h 20.41407 V 52.01908 h -20.41407 z m 0,0" />
  <path
     inkscape:connector-curvature="0"
     id="path38"
     style="fill:#86d359;fill-opacity:0.56020945;fill-rule:nonzero;stroke:none"
     d="m 216.39318,31.605017 h 20.41406 V 52.01908 h -20.41406 z m 0,0" />
  <path
     inkscape:connector-curvature="0"
     id="path40"
     style="fill:#86d359;fill-opacity:0.56020945;fill-rule:nonzero;stroke:none"
     d="m 257.2213,31.605017 h 20.41407 V 52.01908 H 257.2213 Z m 0,0" />
  <path
     inkscape:connector-curvature="0"
     id="path42"
     style="fill:#86d359;fill-opacity:0.56020945;fill-rule:nonzero;stroke:none"
     d="m 298.04943,31.605017 h 20.41406 V 52.01908 h -20.41406 z m 0,0" />
  <path
     inkscape:connector-curvature="0"
     id="path44"
     style="fill:#4b3f4e;fill-opacity:0.99476439;fill-rule:nonzero;stroke:none"
     d="M 522.60021,592.98392 H 32.67052 c -16.914063,0 -30.6210939,-13.70703 -30.6210939,-30.62109 v -30.6211 H 216.39318 c 6.99219,0 13.39062,3.94922 16.51562,10.20703 3.125,6.25782 9.52344,10.20704 16.51563,10.20704 h 58.83203 c 6.99219,0 13.39063,-3.94922 16.51563,-10.20704 3.12109,-6.25781 9.52343,-10.20703 16.51562,-10.20703 H 553.2213 v 30.6211 c 0,16.91406 -13.70703,30.62109 -30.62109,30.62109 z m 0,0" />
  <path
     inkscape:connector-curvature="0"
     id="path46"
     style="fill:#ffa12e;fill-opacity:1;fill-rule:nonzero;stroke:none"
     d="m 577.83068,155.51517 c -69.21484,103.08984 -182.25391,148.30859 -259.10156,167.84375 4.01172,2.76563 8.76562,4.24609 13.64453,4.24609 h 237.55469 c 13.32031,0 24.12109,-10.80078 24.12109,-24.12109 V 178.20658 c -0.0195,-10.25 -6.53125,-19.35157 -16.21875,-22.69141 z m 0,0" />
  <path
     inkscape:connector-curvature="0"
     id="path48"
     style="fill:#546373;fill-opacity:1;fill-rule:nonzero;stroke:none"
     d="m 471.56505,235.74173 c 0.0508,-11.27734 -9.04296,-20.45312 -20.32031,-20.5039 -11.27734,-0.0508 -20.45312,9.04297 -20.5039,20.32031 -0.0312,7.32812 3.85546,14.10547 10.20703,17.76953 v 33.44922 h 20.41015 v -33.44922 c 6.30078,-3.62109 10.1875,-10.32031 10.20703,-17.58594 z m 0,0" />
  <path
     inkscape:connector-curvature="0"
     id="path50"
     style="fill:#c7cacc;fill-opacity:1;fill-rule:nonzero;stroke:none"
     d="m 338.87755,133.67142 h 40.82813 v 20.41406 h -40.82813 z m 0,0" />
  <path
     inkscape:connector-curvature="0"
     id="path52"
     style="fill:#c7cacc;fill-opacity:1;fill-rule:nonzero;stroke:none"
     d="m 522.60021,133.67142 h 40.82813 v 20.41406 h -40.82813 z m 0,0" />
  <path
     inkscape:connector-curvature="0"
     id="path54"
     style="fill:#eceaec;fill-opacity:1;fill-rule:nonzero;stroke:none"
     d="m 137.7439,356.4209 h 285.79296 v 20.41406 H 137.7439 Z m 0,0" />
</svg>
