<?xml version="1.0" encoding="utf-8"?>
<!-- Generator: Adobe Illustrator 22.1.0, SVG Export Plug-In . SVG Version: 6.00 Build 0)  -->
<svg version="1.1" id="Layer_1" xmlns="http://www.w3.org/2000/svg" xmlns:xlink="http://www.w3.org/1999/xlink" x="0px" y="0px"
	 viewBox="0 0 512 512" style="enable-background:new 0 0 512 512;" xml:space="preserve">
<style type="text/css">
	.st0{fill:#5D5360;}
	.st1{fill:#DAD8DB;}
	.st2{fill:#FF8086;}
	.st3{fill:#86C459;}
	.st4{fill:#4B3F4E;}
	.st5{fill:#86D359;}
	.st6{fill:#FFFFFF;}
	.st7{fill:#ECEAEC;}
	.st8{fill:#FFE07D;}
	.st9{fill:#B3E59F;}
	.st10{fill:#4AD359;}
</style>
<path class="st0" d="M317.7,57.8H136c-6,0-11.7,1.6-16.5,4.4l-8.4,28.6v379.8c0,18.2,14.8,33,33,33h173.6l28.6-8.2
	c2.8-4.9,4.4-10.5,4.4-16.5V90.8C350.7,72.6,336,57.8,317.7,57.8z"/>
<path class="st1" d="M177.3,297.3c0,9.1-7.4,16.5-16.5,16.5s-16.5-7.4-16.5-16.5s7.4-16.5,16.5-16.5S177.3,288.2,177.3,297.3z"/>
<path class="st2" d="M177.3,429.4c0,9.1-7.4,16.5-16.5,16.5s-16.5-7.4-16.5-16.5s7.4-16.5,16.5-16.5S177.3,420.3,177.3,429.4z"/>
<path class="st1" d="M177.3,363.4c0,9.1-7.4,16.5-16.5,16.5s-16.5-7.4-16.5-16.5s7.4-16.5,16.5-16.5S177.3,354.2,177.3,363.4z"/>
<path class="st3" d="M160.8,123.9c-9.1,0-16.5,7.4-16.5,16.5V223c0,9.1,7.4,16.5,16.5,16.5h49.6V123.9H160.8z"/>
<path class="st4" d="M309.4,479H144.3c-4.6,0-8.3-3.7-8.3-8.3c0-4.6,3.7-8.3,8.3-8.3h165.2c4.6,0,8.3,3.7,8.3,8.3
	C317.7,475.3,314,479,309.4,479z"/>
<path class="st4" d="M136,495.5c-9.1,0-16.5-7.4-16.5-16.5V62.2c-9.8,5.7-16.5,16.4-16.5,28.6V479c0,18.2,14.8,33,33,33h181.7
	c12.2,0,22.9-6.7,28.6-16.5H136z"/>
<path class="st5" d="M210.4,223h-24.8c-13.7,0-24.8-11.1-24.8-24.8v-33c0-13.7,11.1-24.8,24.8-24.8h24.8V223z"/>
<path class="st0" d="M383.8,0H243.5l-6.1,24.8v330.5h146.4l24.8-8.6V24.8C408.5,11.1,397.5,0,383.8,0z"/>
<path class="st4" d="M251.7,346.7c-4.6,0-8.3-3.7-8.3-8.3V0h-8.3c-13.7,0-24.8,11.1-24.8,24.8v330.1c0,13.7,11.1,24.8,24.8,24.8
	h148.6c13.7,0,24.8-11.1,24.8-24.8v-8.3H251.7V346.7z"/>
<path class="st6" d="M383.8,16.5h-17.7c-3.4,0-6.8,2-7.9,5.2C356,28.3,349.8,33,342.5,33h-66c-7.3,0-13.5-4.7-15.7-11.3
	c-1.1-3.3-4.5-5.2-7.9-5.2h-9.5l-6.1,8.3v320.6c0,4.6,3.7,8.3,8.3,8.3h138.1l8.3-6.9v-322C392,20.2,388.3,16.5,383.8,16.5z"/>
<path class="st7" d="M251.7,346.7c-4.6,0-8.3-3.7-8.3-8.3V16.5h-8.3c-4.6,0-8.3,3.7-8.3,8.3v330.1c0,4.6,3.7,8.3,8.3,8.3h148.6
	c4.6,0,8.3-3.7,8.3-8.3v-8.3H251.7V346.7z"/>
<path class="st8" d="M243.4,429.4c0,9.1-7.4,16.5-16.5,16.5s-16.5-7.4-16.5-16.5s7.4-16.5,16.5-16.5S243.4,420.3,243.4,429.4z"/>
<path class="st9" d="M309.4,429.4c0,9.1-7.4,16.5-16.5,16.5s-16.5-7.4-16.5-16.5s7.4-16.5,16.5-16.5S309.4,420.3,309.4,429.4z"/>
<path class="st10" d="M350.1,209.1l-6.5-4.2c8.7-13.3,13.4-28.9,13.5-45c-0.1-16.1-4.8-31.6-13.5-45l6.5-4.2
	c9.5,14.6,14.7,31.7,14.9,49.2l0,0l0,0C364.8,177.4,359.6,194.5,350.1,209.1z M343.2,159.8L343.2,159.8L343.2,159.8
	c-0.2-13.8-4.2-27-11.8-38.2l-6.5,4.4c6.7,10,10.3,21.7,10.6,33.7c-0.1,12-3.8,23.8-10.6,33.7l6.5,4.4
	C338.9,186.7,343,173.5,343.2,159.8z M317,181.3c3.2-6.9,4.8-14.2,4.7-21.6c-0.2-9.5-3.2-18.8-8.8-26.7l-6.4,4.5
	c4.7,6.7,7.2,14.5,7.3,22.5c0.1,4.5-0.6,9.1-2.1,13.4l-42.2-32.5l-2,4.6c-0.1,0.2-2.9,6.8-2.9,15.7c0,9.3,5.3,17.6,5.5,17.9l6.5-4.2
	c0-0.1-4.2-6.8-4.2-13.7c0-2.9,0.3-5.5,0.8-7.6l41.7,32L317,181.3z"/>
</svg>
