<?xml version="1.0" encoding="UTF-8" standalone="no"?>
<!-- Generator: Adobe Illustrator 19.0.0, SVG Export Plug-In . SVG Version: 6.00 Build 0)  -->

<svg
   xmlns:dc="http://purl.org/dc/elements/1.1/"
   xmlns:cc="http://creativecommons.org/ns#"
   xmlns:rdf="http://www.w3.org/1999/02/22-rdf-syntax-ns#"
   xmlns:svg="http://www.w3.org/2000/svg"
   xmlns="http://www.w3.org/2000/svg"
   xmlns:sodipodi="http://sodipodi.sourceforge.net/DTD/sodipodi-0.dtd"
   xmlns:inkscape="http://www.inkscape.org/namespaces/inkscape"
   version="1.1"
   id="Capa_1"
   x="0px"
   y="0px"
   viewBox="0 0 468.293 468.293"
   style="enable-background:new 0 0 468.293 468.293;"
   xml:space="preserve"
   sodipodi:docname="logo.svg"
   inkscape:version="0.92.4 (33fec40, 2019-01-16)"
   inkscape:export-filename="/home/lucka/Diploma/www/img/logo.png"
   inkscape:export-xdpi="96"
   inkscape:export-ydpi="96"><metadata
   id="metadata73"><rdf:RDF><cc:Work
       rdf:about=""><dc:format>image/svg+xml</dc:format><dc:type
         rdf:resource="http://purl.org/dc/dcmitype/StillImage" /><dc:title /></cc:Work></rdf:RDF></metadata><defs
   id="defs71" /><sodipodi:namedview
   pagecolor="#ffffff"
   bordercolor="#666666"
   borderopacity="1"
   objecttolerance="10"
   gridtolerance="10"
   guidetolerance="10"
   inkscape:pageopacity="0"
   inkscape:pageshadow="2"
   inkscape:window-width="1850"
   inkscape:window-height="1016"
   id="namedview69"
   showgrid="false"
   inkscape:zoom="0.50395799"
   inkscape:cx="-103.1832"
   inkscape:cy="234.1465"
   inkscape:window-x="70"
   inkscape:window-y="27"
   inkscape:window-maximized="1"
   inkscape:current-layer="Capa_1" />

<path
   style="opacity:1;fill:#f8f300;fill-opacity:1;stroke-width:1.16788864"
   d="M 228.56212,12.007848 C 153.90483,16.77752 86.12876,84.568784 81.364939,159.22724 c -3.180151,49.84199 16.796577,95.08951 50.199351,126.07359 18.34286,17.01614 29.35958,40.47435 29.35958,65.49403 l 156.02063,0.0152 c 0,-24.21384 9.65138,-47.73511 27.64268,-63.93841 C 376.65978,257.98274 396.8339,216.14548 396.8339,169.5771 396.83485,78.937219 320.46566,6.1345392 228.56212,12.007845 Z"
   id="path4"
   inkscape:connector-curvature="0" /><g
   id="g969"
   style="opacity:1;fill:#0d6700;fill-opacity:0.39903846"
   transform="matrix(1.1509496,0,0,1.1620968,-26.64485,-7.8566205)"><path
     inkscape:connector-curvature="0"
     id="path4-7"
     d="m 222.20489,54.96391 c -49.20102,3.130275 -93.86716,47.62077 -97.00664,96.61811 -2.0958,32.71062 11.06936,62.40595 33.08264,82.7404 12.0884,11.16746 19.3487,26.56276 19.3487,42.98285 l 102.82149,0.0101 c 0,-15.89119 6.36051,-31.32789 18.21724,-41.9619 21.13662,-18.95938 34.43188,-46.41663 34.43188,-76.97883 C 333.10092,98.888889 282.7716,51.109465 222.20489,54.964041 Z"
     style="opacity:0.43399999;fill:#0d6700;fill-opacity:0.39903846;stroke-width:0.76806712" /><rect
     y="277.30527"
     x="177.62959"
     height="52.087265"
     width="102.15563"
     id="rect965"
     style="opacity:0.43399999;fill:#0d6700;fill-opacity:0.39903846" /></g><path
   d="m 258.10443,239.69763 v 204.97995 c 0,13.57878 -7.86434,24.60037 -17.55759,24.60037 -9.69324,0 -17.55756,-11.0216 -17.55756,-24.60037 V 239.69762 Z m 0,0"
   id="path14"
   style="fill:#009900;fill-opacity:1;stroke-width:1.3840766"
   inkscape:connector-curvature="0" />










<path
   style="fill:#64798a;fill-opacity:1;stroke-width:1.03652203"
   d="m 322.56304,350.50295 c 0,-8.60107 -6.97267,-15.57375 -15.57373,-15.57375 H 167.6631 c -5.55679,0 -10.39942,2.93131 -13.15553,7.3106 l 159.03671,22.34638 c 5.31319,-2.4804 9.01876,-7.83301 9.01876,-14.08323 z"
   id="path26"
   inkscape:connector-curvature="0" />
<path
   style="fill:#64798a;stroke-width:1.03652203"
   d="m 154.50757,342.2398 c -1.51022,2.39955 -2.4182,5.21888 -2.4182,8.2642 0,8.60104 6.97266,15.57373 15.57373,15.57373 h 139.32517 c 2.35084,0 4.55759,-0.55869 6.55601,-1.49155 z"
   id="path28"
   inkscape:connector-curvature="0" />
<path
   style="fill:#64798a;fill-opacity:1;stroke-width:1.03652203"
   d="m 322.56304,380.15994 c 0,-8.60108 -6.97267,-15.57376 -15.57373,-15.57376 H 167.6631 c -5.55679,0 -10.39942,2.93128 -13.15553,7.3106 l 159.03671,22.34638 c 5.31319,-2.48041 9.01876,-7.83404 9.01876,-14.08322 z"
   id="path30"
   inkscape:connector-curvature="0" />
<path
   style="fill:#64798a;stroke-width:1.03652203"
   d="m 154.50757,371.89574 c -1.51022,2.39954 -2.4182,5.21888 -2.4182,8.2642 0,8.60104 6.97266,15.57373 15.57373,15.57373 h 139.32517 c 2.35084,0 4.55759,-0.55866 6.55601,-1.49156 z"
   id="path32"
   inkscape:connector-curvature="0" />
<path
   style="fill:#64798a;fill-opacity:1;stroke-width:1.03652203"
   d="m 322.56304,409.81585 c 0,-8.60105 -6.97267,-15.57374 -15.57373,-15.57374 H 167.6631 c -5.55679,0 -10.39942,2.9313 -13.15553,7.3106 l 159.03671,22.34638 c 5.31319,-2.48041 9.01876,-7.83299 9.01876,-14.08324 z"
   id="path34"
   inkscape:connector-curvature="0" />
<path
   style="fill:#64798a;stroke-width:1.03652203"
   d="m 154.50757,401.55271 c -1.51022,2.39955 -2.4182,5.2189 -2.4182,8.26419 0,8.60107 6.97266,15.57373 15.57373,15.57373 h 139.32517 c 2.35084,0 4.55759,-0.55866 6.55601,-1.49154 z"
   id="path36"
   inkscape:connector-curvature="0" /><path
   style="fill:#2f4859;stroke-width:1.14596629"
   d="m 192.898,420.88435 c 0,17.90456 20.27788,32.41936 45.29088,32.41936 25.01298,0 45.28973,-14.5148 45.28973,-32.41936 z"
   id="path2"
   inkscape:connector-curvature="0" />
<g
   id="g38"
   transform="matrix(1.1459662,0,0,1.1459662,-12.374161,-60.764849)">
</g>
<g
   id="g40"
   transform="matrix(1.1459662,0,0,1.1459662,-12.374161,-60.764849)">
</g>
<g
   id="g42"
   transform="matrix(1.1459662,0,0,1.1459662,-12.374161,-60.764849)">
</g>
<g
   id="g44"
   transform="matrix(1.1459662,0,0,1.1459662,-12.374161,-60.764849)">
</g>
<g
   id="g46"
   transform="matrix(1.1459662,0,0,1.1459662,-12.374161,-60.764849)">
</g>
<g
   id="g48"
   transform="matrix(1.1459662,0,0,1.1459662,-12.374161,-60.764849)">
</g>
<g
   id="g50"
   transform="matrix(1.1459662,0,0,1.1459662,-12.374161,-60.764849)">
</g>
<g
   id="g52"
   transform="matrix(1.1459662,0,0,1.1459662,-12.374161,-60.764849)">
</g>
<g
   id="g54"
   transform="matrix(1.1459662,0,0,1.1459662,-12.374161,-60.764849)">
</g>
<g
   id="g56"
   transform="matrix(1.1459662,0,0,1.1459662,-12.374161,-60.764849)">
</g>
<g
   id="g58"
   transform="matrix(1.1459662,0,0,1.1459662,-12.374161,-60.764849)">
</g>
<g
   id="g60"
   transform="matrix(1.1459662,0,0,1.1459662,-12.374161,-60.764849)">
</g>
<g
   id="g62"
   transform="matrix(1.1459662,0,0,1.1459662,-12.374161,-60.764849)">
</g>
<g
   id="g64"
   transform="matrix(1.1459662,0,0,1.1459662,-12.374161,-60.764849)">
</g>
<g
   id="g66"
   transform="matrix(1.1459662,0,0,1.1459662,-12.374161,-60.764849)">
</g>
<path
   d="m 320.88902,212.48843 c -0.87577,-0.47158 -21.76507,-11.56928 -41.90098,-5.22164 -10.74847,3.38487 -18.83391,10.9671 -24.10228,17.43847 0,21.00341 0.0328,19.65881 -0.0771,20.18951 11.46614,4.63597 24.9437,6.71885 36.91717,2.94766 20.1359,-6.34764 30.92289,-27.4253 31.37383,-28.31758 1.28411,-2.55718 0.30658,-5.67394 -2.21074,-7.03642 z m 0,0"
   id="path6"
   style="fill:#008e00;fill-opacity:1;stroke-width:0.35195881"
   inkscape:connector-curvature="0" /><path
   d="m 323.44073,215.64918 -68.55497,19.01129 c 0,10.30855 0.0302,9.71598 -0.0771,10.2343 11.46614,4.63597 24.9437,6.71885 36.91717,2.94766 20.1359,-6.34764 30.92289,-27.4253 31.37383,-28.31758 0.62693,-1.24836 0.71492,-2.63142 0.34095,-3.87567 z m 0,0"
   id="path8-3"
   inkscape:connector-curvature="0"
   style="fill:#00a500;fill-opacity:1;stroke-width:0.35195881" /><path
   d="m 225.96997,261.68566 c -5.31467,-6.47237 -13.39748,-13.98464 -24.10992,-17.35788 -20.28108,-6.39342 -41.32098,4.78015 -42.20307,5.25928 -2.5355,1.37229 -3.52004,4.51151 -2.22667,7.08716 0.45419,0.8987 11.31893,22.12835 31.60001,28.52176 11.93657,3.75682 25.41296,1.76 37.03104,-2.90937 -0.13156,-0.56636 -0.0914,0.75605 -0.0914,-20.60095 z m 0,0"
   id="path10"
   style="fill:#008e00;fill-opacity:1;stroke-width:0.3544966"
   inkscape:connector-curvature="0" /><path
   d="m 225.96997,271.98543 -68.90109,-19.15806 c -0.3545,1.23937 -0.2631,2.60611 0.36143,3.84546 0.45419,0.89872 11.31893,22.12974 31.60001,28.52315 11.93657,3.75682 25.41296,1.76 37.03104,-2.90937 -0.126,-0.54698 -0.0914,0.0292 -0.0914,-10.30118 z m 0,0"
   id="path12"
   style="fill:#009d00;fill-opacity:1;stroke-width:0.3544966"
   inkscape:connector-curvature="0" /><path
   d="m 287.9468,96.652497 c -6.85384,-7.430733 -17.97362,-7.430733 -24.82749,0 l -22.7014,24.591073 -22.7014,-24.591073 c -6.85843,-7.430733 -17.97364,-7.430733 -24.83208,0 -6.85842,7.425793 -6.85842,19.474103 0,26.899853 l 29.97135,32.47175 c 0,108.27206 -0.14176,101.17753 0.32462,103.81761 h 34.46589 c 0.46637,-2.62526 0.32461,4.49403 0.32461,-103.81761 l 29.9759,-32.47175 c 6.85845,-7.42575 6.85845,-19.47406 0,-26.899853 z m 0,0"
   id="path30-6"
   style="fill:#009d00;fill-opacity:1;stroke-width:1.2171464"
   inkscape:connector-curvature="0" /></svg>