<?xml version="1.0" encoding="utf-8"?>
<!-- Generator: Adobe Illustrator 22.1.0, SVG Export Plug-In . SVG Version: 6.00 Build 0)  -->
<svg version="1.1" id="Layer_1" xmlns="http://www.w3.org/2000/svg" xmlns:xlink="http://www.w3.org/1999/xlink" x="0px" y="0px"
	 viewBox="0 0 464 464" style="enable-background:new 0 0 464 464;" xml:space="preserve">
<style type="text/css">
	.st0{fill:#5D5E7C;}
	.st1{fill:#ECEAEC;}
	.st2{fill:#FFFFFF;}
	.st3{fill:#808080;}
	.st4{fill:#FFDA44;}
	.st5{fill:#FFCD00;}
	.st6{fill:#5D5360;}
	.st7{fill:#4B3F4E;}
	.st8{fill:#64C37D;}
	.st9{fill:#91DC5A;}
	.st10{fill:#B39A7C;}
</style>
<path class="st0" d="M63.9,19.8h334.9c8.4,0,15.2,7.8,15.2,17.4V446c0,9.6-6.8,17.4-15.2,17.4H63.9c-8.4,0-15.2-7.8-15.2-17.4V37.2
	C48.7,27.6,55.5,19.8,63.9,19.8z"/>
<path class="st1" d="M77.4,35.8h295.2c7.4,0,13.4,7.2,13.4,16.1v377.4c0,8.9-6,16.1-13.4,16.1H77.4c-7.4,0-13.4-7.2-13.4-16.1V51.8
	C64,42.9,70,35.8,77.4,35.8z"/>
<path class="st2" d="M94.1,36.5h288.8c7.2,0,13.1,7.2,13.1,16.1v378.5c0,8.9-5.9,16.1-13.1,16.1H94.1c-7.2,0-13.1-7.2-13.1-16.1
	V52.6C81,43.7,86.9,36.5,94.1,36.5z"/>
<path class="st3" d="M99,418.6h268v12.8H99V418.6z"/>
<path class="st4" d="M262,398.4h83.2v20.8H262V398.4z"/>
<path class="st5" d="M272.4,377.6h83.2v20.8h-83.2V377.6z"/>
<path class="st4" d="M282.8,356.8H366v20.8h-83.2V356.8z"/>
<path class="st5" d="M272.4,336h83.2v20.8h-83.2V336z"/>
<g>
	<path class="st4" d="M277.6,336H288v20.8h-10.4V336z"/>
	<path class="st4" d="M298.4,336h10.4v20.8h-10.4V336z"/>
	<path class="st4" d="M319.2,336h10.4v20.8h-10.4V336z"/>
	<path class="st4" d="M340,336h10.4v20.8H340V336z"/>
</g>
<path class="st5" d="M293.2,356.8h10.4v20.8h-10.4V356.8z"/>
<path class="st5" d="M314,356.8h10.4v20.8H314V356.8z"/>
<path class="st5" d="M334.8,356.8h10.4v20.8h-10.4V356.8z"/>
<path class="st5" d="M355.6,356.8H366v20.8h-10.4V356.8z"/>
<path class="st4" d="M272.4,377.6h10.4v20.8h-10.4V377.6z"/>
<path class="st4" d="M293.2,377.6h10.4v20.8h-10.4V377.6z"/>
<path class="st4" d="M314,377.6h10.4v20.8H314V377.6z"/>
<path class="st4" d="M334.8,377.6h10.4v20.8h-10.4V377.6z"/>
<path class="st5" d="M267.2,398.4h10.4v20.8h-10.4V398.4z"/>
<path class="st5" d="M288,398.4h10.4v20.8H288V398.4z"/>
<path class="st5" d="M308.8,398.4h10.4v20.8h-10.4V398.4z"/>
<path class="st5" d="M329.6,398.4H340v20.8h-10.4V398.4z"/>
<path class="st3" d="M137.4,120.6h59.7v59.7h-59.7V120.6z"/>
<path class="st6" d="M320,49v16c0,8.8-7.2,16-16,16H160c-8.8,0-16-7.2-16-16V49c0-8.8,7.2-16,16-16h8V17c0-8.8,7.2-16,16-16h96
	c8.8,0,16,7.2,16,16v16h8C312.8,33,320,40.2,320,49z"/>
<path class="st4" d="M220,353c0,35.3-28.7,64-64,64h-0.4c-35.3-0.2-63.7-29-63.6-64.3c0.1-35.3,28.8-63.8,64.1-63.7
	C191.4,289.1,220,317.7,220,353z"/>
<path class="st7" d="M192,25h80v16h-80V25z"/>
<path class="st8" d="M167.3,165.4c-2,0-3.9-0.8-5.3-2.2l-14.9-14.9l10.6-10.6l10.5,10.5l47.1-33.7l8.7,12.1L171.6,164
	C170.3,164.9,168.8,165.4,167.3,165.4z"/>
<path class="st3" d="M115,202.7h112v14.9H115V202.7z"/>
<path class="st3" d="M115,232h16v16h-16V232z"/>
<path class="st3" d="M144.9,232.6H227v14.9h-82.1V232.6z"/>
<path class="st9" d="M346.2,231h15.6c0,17.2-14,31.2-31.2,31.2H315C315,245,329,231,346.2,231z"/>
<path class="st10" d="M168,49h16c4.4,0,8,3.6,8,8s-3.6,8-8,8h-16c-4.4,0-8-3.6-8-8S163.6,49,168,49z"/>
<path class="st8" d="M308.8,210.2h10.4V336h-10.4V210.2z"/>
<path class="st9" d="M312.4,218.3h-15.6c-17.2,0-31.2-14-31.2-31.2h15.6C298.4,187.1,312.4,201.1,312.4,218.3z"/>
<g>
	<path class="st2" d="M180.5,378.4c-0.7-1.8-1.5-3.6-2.3-5.3c-0.7-1.6-1.6-2-3.3-1.6c-2.2,0.5-4.3,1.2-6.5,1.6
		c-4.2,0.9-8.4,1-12.6-0.4c-5.2-1.6-8-5.4-9.7-10.3h14.1c1.1,0,2-0.9,2-2v-4.4c0-1.1-0.9-2-2-2h-15.4c0-1.2,0-2.4,0-3.6h15.4
		c1.1,0,2-0.9,2-2V344c0-1.1-0.9-2-2-2h-13.5c0-0.1,0-0.1,0-0.1c1.6-3.7,4-6.6,7.9-8.2c4.5-1.8,9.1-1.7,13.8-0.8
		c2.2,0.4,4.4,1.1,6.6,1.6c1.6,0.4,2.5-0.1,3.2-1.6c0.8-1.7,1.5-3.5,2.3-5.3c0.7-1.7,0.3-2.8-1.3-3.8c-0.4-0.2-0.8-0.4-1.2-0.6
		c-6.5-2.5-13.2-3.5-20.1-2.4c-4.9,0.8-9.4,2.5-13.3,5.5c-5,3.8-8.2,8.9-10,14.8l-0.2,0.7h-6.9c-1.1,0-2,0.9-2,2v4.4
		c0,1.1,0.9,2,2,2h5.5c0,1.2,0,2.4,0,3.6h-5.5c-1.1,0-2,0.9-2,2v4.4c0,1.1,0.9,2,2,2h6.6c0.5,1.6,0.9,3.3,1.6,4.8
		c3.3,8,8.9,13.8,17.3,16.5c7,2.3,14,2.2,21,0.3c1.8-0.5,3.6-1.1,5.4-1.9C180.7,381.3,181.1,380,180.5,378.4z"/>
</g>
<path class="st9" d="M311.4,292.7h-15.6c-17.2,0-31.2-14-31.2-31.2h15.6C297.4,261.5,311.4,275.5,311.4,292.7z"/>
</svg>
