<?xml version="1.0" encoding="UTF-8" standalone="no"?>
<svg
   xmlns:dc="http://purl.org/dc/elements/1.1/"
   xmlns:cc="http://creativecommons.org/ns#"
   xmlns:rdf="http://www.w3.org/1999/02/22-rdf-syntax-ns#"
   xmlns:svg="http://www.w3.org/2000/svg"
   xmlns="http://www.w3.org/2000/svg"
   xmlns:sodipodi="http://sodipodi.sourceforge.net/DTD/sodipodi-0.dtd"
   xmlns:inkscape="http://www.inkscape.org/namespaces/inkscape"
   viewBox="0 0 64 64"
   width="512"
   height="512"
   version="1.1"
   id="svg41"
   sodipodi:docname="logo.svg"
   inkscape:version="0.92.4 (33fec40, 2019-01-16)"
   inkscape:export-filename="/home/lucka/Diploma/www/img/logo.png"
   inkscape:export-xdpi="96"
   inkscape:export-ydpi="96">
  <metadata
     id="metadata47">
    <rdf:RDF>
      <cc:Work
         rdf:about="">
        <dc:format>image/svg+xml</dc:format>
        <dc:type
           rdf:resource="http://purl.org/dc/dcmitype/StillImage" />
      </cc:Work>
    </rdf:RDF>
  </metadata>
  <defs
     id="defs45" />
  <sodipodi:namedview
     pagecolor="#ffffff"
     bordercolor="#666666"
     borderopacity="1"
     objecttolerance="10"
     gridtolerance="10"
     guidetolerance="10"
     inkscape:pageopacity="0"
     inkscape:pageshadow="2"
     inkscape:window-width="1850"
     inkscape:window-height="1016"
     id="namedview43"
     showgrid="false"
     inkscape:zoom="0.65186406"
     inkscape:cx="213.22158"
     inkscape:cy="306.24956"
     inkscape:window-x="70"
     inkscape:window-y="27"
     inkscape:window-maximized="1"
     inkscape:current-layer="svg41" />
  <path
     inkscape:connector-curvature="0"
     id="path2"
     style="fill:#483e37;stroke-width:1.04462039;fill-opacity:1"
     d="M 49.225551,4.2779349 V 60.687434 H 15.797699 A 4.1784815,4.1784815 0 0 1 11.619218,56.508953 V 4.2779349 A 4.1784815,4.1784815 0 0 1 15.797699,0.0994534 H 45.04707 a 4.1784815,4.1784815 0 0 1 4.178481,4.1784815 z" />
  <path
     inkscape:connector-curvature="0"
     id="path4"
     style="fill:#ace6f3;stroke-width:1.04462039;fill-opacity:1"
     d="M 45.04707,2.7333145 H 39.343443 A 1.0582004,1.0582004 0 0 0 38.465961,3.2033937 L 36.690107,4.8225552 H 24.154662 L 22.378808,3.2033937 A 1.0582004,1.0582004 0 0 0 21.501327,2.7333145 h -5.703628 a 1.0446204,1.0446204 0 0 0 -1.04462,1.0446204 V 56.008953 a 1.0446204,1.0446204 0 0 0 1.04462,1.04462 H 46.09169 V 3.7779349 A 1.0446204,1.0446204 0 0 0 45.04707,2.7333145 Z" />
  <path
     inkscape:connector-curvature="0"
     style="fill:#eeedee;stroke-width:0.08331607"
     d="m 40.377559,12.062062 c -1.665345,0 -1.665345,-2.574987 -3.33069,-2.574987 -1.665346,0 -1.665346,2.574987 -3.330691,2.574987 -1.665344,0 -1.665344,-2.574987 -3.330689,-2.574987 -1.665021,0 -1.665021,2.574987 -3.330366,2.574987 -1.665018,0 -1.665018,-2.574987 -3.330365,-2.574987 -1.665019,0 -1.665019,2.574987 -3.330039,2.574987 -1.217847,0 -1.544928,-1.377645 -2.284357,-2.117401 C 17.725025,9.559 17.064354,9.840513 17.064354,10.385325 v 40.861004 c 0,0.545134 0.660671,0.826326 1.046008,0.440989 0.739104,-0.740081 1.06651,-2.117399 2.284357,-2.117399 1.66502,0 1.66502,2.574661 3.330039,2.574661 1.665347,0 1.665347,-2.574661 3.330365,-2.574661 1.665345,0 1.665345,2.574661 3.330366,2.574661 1.665345,0 1.665345,-2.574661 3.330689,-2.574661 1.665345,0 1.665345,2.574661 3.330691,2.574661 1.665345,0 1.665345,-2.574661 3.33069,-2.574661 1.218499,0 1.545579,1.377643 2.285006,2.117399 0.385342,0.385337 1.046009,0.104139 1.046009,-0.440664 V 10.385325 c 0,-0.544808 -0.660667,-0.826325 -1.046009,-0.440988 -0.739427,0.74008 -1.066507,2.117725 -2.285006,2.117725 z m 0,0"
     id="path2-3" />
  <path
     inkscape:connector-curvature="0"
     style="fill:#d6d5d6;stroke-width:0.08331607"
     d="m 40.116404,12.062062 c -0.673037,0 -1.074322,-0.420812 -1.423207,-0.922335 v 39.352526 c 0.348885,-0.501523 0.749844,-0.922334 1.423207,-0.922334 1.218499,0 1.545579,1.377968 2.285006,2.117725 0.385342,0.385337 1.046009,0.103815 1.046009,-0.44099 V 10.385325 c 0,-0.544808 -0.660667,-0.826325 -1.046009,-0.440988 -0.739427,0.74008 -1.066507,2.117725 -2.285006,2.117725 z m 0,0"
     id="path4-6" />
  <g
     transform="matrix(0.08331608,0,0,0.08331608,17.545006,7.9201448)"
     style="fill:#68a1d7"
     id="g12">
    <path
       inkscape:connector-curvature="0"
       d="M 169.51953,232.11328 H 37.148438 c -3.050782,0 -5.523438,-2.47266 -5.523438,-5.52344 v -21.07812 c 0,-3.05078 2.472656,-5.52344 5.523438,-5.52344 H 169.51953 c 3.05078,0 5.52344,2.47266 5.52344,5.52344 v 21.07812 c 0,3.05078 -2.47266,5.52344 -5.52344,5.52344 z m 0,0"
       id="path6-7" />
    <path
       inkscape:connector-curvature="0"
       d="m 279.62891,431.95703 h -80.6211 c -5.26953,0 -9.54297,-4.27344 -9.54297,-9.54297 v -13.03515 c 0,-5.27344 4.27344,-9.54688 9.54297,-9.54688 h 80.6211 c 5.26953,0 9.54296,4.27344 9.54296,9.54688 v 13.03515 c 0,5.26953 -4.27343,9.54297 -9.54296,9.54297 z m 0,0"
       id="path8-5" />
    <path
       inkscape:connector-curvature="0"
       d="m 31.625,85.734375 v 20.742185 c 0,3.14453 2.550781,5.69141 5.691406,5.69141 H 283.48047 c 3.14453,0 5.6914,-2.54688 5.6914,-5.69141 V 85.734375 c 0,-3.144531 -2.54687,-5.691406 -5.6914,-5.691406 H 37.316406 c -3.140625,0 -5.691406,2.546875 -5.691406,5.691406 z m 0,0"
       id="path10-3" />
  </g>
  <path
     inkscape:connector-curvature="0"
     style="fill:#f94530;stroke-width:0.08331607"
     d="M 41.63767,20.039379 H 20.179877 c -0.355395,0 -0.643747,0.288025 -0.643747,0.643421 0,0.35572 0.288352,0.643747 0.643747,0.643747 H 41.63767 c 0.355399,0 0.643752,-0.288027 0.643752,-0.643747 0,-0.355396 -0.288353,-0.643421 -0.643752,-0.643421 z m 0,0"
     id="path14-5" />
  <path
     inkscape:connector-curvature="0"
     style="fill:#5c5c5c;stroke-width:0.08331607"
     d="m 27.966026,30.72499 c 0,-0.355394 -0.288028,-0.643746 -0.643749,-0.643746 h -7.142074 c -0.355721,0 -0.643747,0.288352 -0.643747,0.643746 0,0.355721 0.288026,0.643749 0.643747,0.643749 h 7.142074 c 0.355721,0 0.643749,-0.288027 0.643749,-0.643749 z m 0,0"
     id="path16" />
  <path
     inkscape:connector-curvature="0"
     style="fill:#5c5c5c;stroke-width:0.08331607"
     d="m 26.154552,33.328617 h -5.974349 c -0.355721,0 -0.643747,0.288353 -0.643747,0.643748 0,0.355396 0.288026,0.643748 0.643747,0.643748 h 5.974349 c 0.355393,0 0.643746,-0.288352 0.643746,-0.643748 0,-0.355395 -0.288353,-0.643748 -0.643746,-0.643748 z m 0,0"
     id="path18" />
  <path
     inkscape:connector-curvature="0"
     style="fill:#5c5c5c;stroke-width:0.08331607"
     d="m 26.154552,36.575993 h -5.974349 c -0.355721,0 -0.643747,0.288027 -0.643747,0.643421 0,0.355721 0.288026,0.643746 0.643747,0.643746 h 5.974349 c 0.355393,0 0.643746,-0.288025 0.643746,-0.643746 0,-0.355394 -0.288353,-0.643421 -0.643746,-0.643421 z m 0,0"
     id="path20" />
  <path
     inkscape:connector-curvature="0"
     style="fill:#68a1d7;stroke-width:0.08331607"
     d="m 41.63767,36.575993 h -2.987334 c -0.355396,0 -0.643423,0.288027 -0.643423,0.643747 0,0.355395 0.288027,0.643747 0.643423,0.643747 h 2.987334 c 0.355725,0 0.643752,-0.288352 0.643752,-0.643747 0,-0.35572 -0.288353,-0.643747 -0.643752,-0.643747 z m 0,0"
     id="path22" />
  <path
     inkscape:connector-curvature="0"
     style="fill:#68a1d7;stroke-width:0.08331607"
     d="m 41.63767,33.328617 h -2.987334 c -0.355396,0 -0.643423,0.288353 -0.643423,0.643748 0,0.355396 0.288027,0.643748 0.643423,0.643748 h 2.987334 c 0.355725,0 0.643752,-0.288352 0.643752,-0.643748 0,-0.355395 -0.288353,-0.643748 -0.643752,-0.643748 z m 0,0"
     id="path24" />
  <path
     inkscape:connector-curvature="0"
     style="fill:#68a1d7;stroke-width:0.08331607"
     d="m 41.63767,30.081244 h -2.987334 c -0.355396,0 -0.643423,0.288352 -0.643423,0.643746 0,0.355721 0.288027,0.643749 0.643423,0.643749 h 2.987334 c 0.355725,0 0.643752,-0.288028 0.643752,-0.643749 0,-0.355394 -0.288353,-0.643746 -0.643752,-0.643746 z m 0,0"
     id="path26" />
  <path
     inkscape:connector-curvature="0"
     style="fill:#e2a63b;stroke-width:0.06667795"
     d="m 61.00148,57.936771 v 3.692625 c 0,1.254079 -3.344233,2.299189 -7.454861,2.299189 -4.110629,0 -7.385184,-1.010237 -7.385184,-2.264317 v -0.418004 l -0.06968,-2.926228 h 0.03481 c 0.557361,1.079916 3.622947,1.915991 7.315504,1.915991 3.692559,0 7.489735,-1.045044 7.489735,-2.299189 h 0.06968 z"
     id="path2-6" />
  <path
     inkscape:connector-curvature="0"
     style="fill:#f4b844;stroke-width:0.06667795"
     d="m 53.337583,44.211448 v 3.657753 h -0.06968 c 0,1.288951 -3.448717,2.299188 -7.52454,2.299188 -1.567598,0.03481 -3.17007,-0.139356 -4.702862,-0.522554 l -0.06968,0.06968 C 40.20442,49.088477 39.33354,48.600795 38.39298,48.287275 v -0.06968 l -0.104484,-3.86679 c 0.243841,1.1844 3.48359,2.12496 7.420056,2.12496 3.936466,0 7.559346,-1.010238 7.559346,-2.264317 z"
     id="path4-2" />
  <path
     inkscape:connector-curvature="0"
     style="fill:#fedb41;stroke-width:0.06667795"
     d="m 53.337583,44.281126 v 0 c 0,1.254079 -3.448717,2.264317 -7.559346,2.264317 -4.110629,0 -7.21102,-0.940559 -7.454861,-2.124959 0,-0.03481 -0.03481,-0.104485 -0.03481,-0.139358 0,-1.254078 3.344233,-2.299188 7.489735,-2.299188 4.145368,-0.03481 7.559279,1.010237 7.559279,2.299188 z"
     id="path6" />
  <path
     inkscape:connector-curvature="0"
     style="fill:#f4b844;stroke-width:0.06667795"
     d="m 46.126563,58.319969 v 0 l -0.03481,-0.766396 -0.06968,-3.135197 c 0.243841,1.1844 3.483589,2.124959 7.420055,2.124959 3.936466,0 7.420057,-1.010237 7.524541,-2.229511 h 0.03481 v 3.622947 h -0.06968 c 0,1.25408 -3.379105,2.299189 -7.489734,2.299189 -4.110563,-6.6e-5 -6.758077,-0.836075 -7.315505,-1.915991 z"
     id="path8" />
  <path
     inkscape:connector-curvature="0"
     style="fill:#e2a63b;stroke-width:0.06667795"
     d="m 41.145053,60.653965 c 0.940559,-0.870882 1.672149,-1.98567 2.055282,-3.204877 h 0.174162 c 0.766396,0.06968 1.532793,0.104485 2.368868,0.104485 h 0.348325 v 0.766396 l 0.06968,2.926229 h -0.383198 c -1.532792,0.03481 -3.030713,-0.139357 -4.528633,-0.487682 z"
     id="path10" />
  <path
     inkscape:connector-curvature="0"
     style="fill:#f4b844;stroke-width:0.06667795"
     d="m 46.126563,54.139662 v 0.174162 l 0.06968,3.239749 H 45.84785 c -0.87088,0 -1.672148,-0.03481 -2.438479,-0.104485 h -0.174162 c 0.243841,-0.731523 0.348326,-1.49792 0.348326,-2.264316 0,-0.522555 -0.06968,-1.010238 -0.174164,-1.497921 h 0.174164 c 0.731523,0.06968 1.463114,0.104485 2.264315,0.104485 l 0.31352,0.174163 c -0.03481,0.06961 -0.03481,0.13929 -0.03481,0.174163 z"
     id="path12" />
  <path
     inkscape:connector-curvature="0"
     style="fill:#e2a63b;stroke-width:0.06667795"
     d="m 41.040568,49.645835 c 1.532794,0.383198 3.135199,0.557361 4.702863,0.522554 4.075757,0 7.524541,-1.010237 7.524541,-2.299188 h 0.06968 v 4.110629 c -3.797109,0 -6.897501,0.905753 -7.280699,2.055281 l -0.31352,-0.174163 c -0.766396,0 -1.497919,-0.03481 -2.194637,-0.104484 H 43.37463 C 43.061111,52.153992 42.225036,50.725751 40.970957,49.68064 Z"
     id="path14" />
  <g
     transform="matrix(0.06667795,0,0,0.06667795,28.569058,36.738584)"
     id="g20">
    <path
       inkscape:connector-curvature="0"
       style="fill:#fedb41"
       d="m 223.09,255.225 v 0 c -5.224,-24.033 -18.286,-45.975 -37.094,-62.171 -11.494,-10.449 -25.078,-17.763 -39.706,-21.943 -10.449,-3.657 -21.943,-5.224 -32.914,-5.224 -62.172,-0.524 -112.85,49.109 -113.372,111.28 -0.522,62.171 49.11,112.849 111.282,113.371 28.735,0 55.902,-10.449 77.322,-29.78 14.629,-13.584 25.6,-30.824 31.347,-49.633 3.657,-10.971 5.224,-21.943 5.224,-33.437 0.001,-7.312 -2.089,-15.149 -2.089,-22.463 z"
       id="path16-9" />
    <path
       inkscape:connector-curvature="0"
       style="fill:#fedb41"
       d="m 485.882,262.539 v 1.045 c -1.567,18.286 -52.245,33.437 -112.849,33.437 -60.604,0 -107.625,-14.106 -111.282,-31.869 v -2.612 c 0,-1.045 0,-2.09 0.522,-3.135 5.747,-17.241 52.245,-30.824 109.192,-30.824 h 1.567 c 61.65,-10e-4 112.85,15.15 112.85,33.958 z"
       id="path18-1" />
  </g>
  <path
     inkscape:connector-curvature="0"
     style="fill:#e2a63b;stroke-width:0.06667795"
     d="m 39.438098,58.807651 c -0.139358,-0.348325 -0.522556,-0.55736 -0.905754,-0.418003 v 0 c -1.254078,0.487683 -2.647514,0.174163 -3.588074,-0.766397 -0.174163,-0.139356 -0.313519,-0.313519 -0.418003,-0.522555 h 3.344232 c 0.383198,0 0.696718,-0.313519 0.696718,-0.696718 0,-0.383198 -0.31352,-0.696718 -0.696718,-0.696718 h -3.866788 c -0.03481,-0.243841 -0.03481,-0.452876 -0.03481,-0.696718 h 4.249986 c 0.383198,0 0.696718,-0.313519 0.696718,-0.696718 0,-0.383198 -0.31352,-0.696718 -0.696718,-0.696718 h -3.831982 c 0.174163,-0.278713 0.348326,-0.522554 0.557361,-0.731523 0.94056,-0.940559 2.333996,-1.219273 3.588074,-0.766397 0.348325,0.139357 0.766396,-0.03481 0.905754,-0.383198 0.139356,-0.348325 -0.03481,-0.766396 -0.418004,-0.905753 v 0 c -1.741763,-0.661846 -3.727431,-0.243841 -5.051189,1.079917 -0.487683,0.487682 -0.870881,1.079916 -1.114722,1.706954 h -0.905753 c -0.383198,0 -0.696718,0.31352 -0.696718,0.696718 0,0.383199 0.31352,0.696718 0.696718,0.696718 h 0.627039 c 0,0.243842 0,0.452877 0.03481,0.696718 H 31.94843 c -0.383198,0 -0.696718,0.31352 -0.696718,0.696718 0,0.383199 0.31352,0.696718 0.696718,0.696718 h 1.010238 c 0.209035,0.592234 0.557361,1.114723 1.010237,1.532793 1.323758,1.323758 3.309427,1.741762 5.051189,1.079916 0.348325,-0.139356 0.55736,-0.522554 0.418004,-0.905754 z"
     id="path22-2" />
  <g
     transform="matrix(0.06667795,0,0,0.06667795,28.569058,36.738584)"
     id="g24" />
  <g
     transform="matrix(0.06667795,0,0,0.06667795,28.569058,36.738584)"
     id="g26" />
  <g
     transform="matrix(0.06667795,0,0,0.06667795,28.569058,36.738584)"
     id="g28" />
  <g
     transform="matrix(0.06667795,0,0,0.06667795,28.569058,36.738584)"
     id="g30" />
  <g
     transform="matrix(0.06667795,0,0,0.06667795,28.569058,36.738584)"
     id="g32" />
  <g
     transform="matrix(0.06667795,0,0,0.06667795,28.569058,36.738584)"
     id="g34" />
  <g
     transform="matrix(0.06667795,0,0,0.06667795,28.569058,36.738584)"
     id="g36" />
  <g
     transform="matrix(0.06667795,0,0,0.06667795,28.569058,36.738584)"
     id="g38" />
  <g
     transform="matrix(0.06667795,0,0,0.06667795,28.569058,36.738584)"
     id="g40" />
  <g
     transform="matrix(0.06667795,0,0,0.06667795,28.569058,36.738584)"
     id="g42" />
  <g
     transform="matrix(0.06667795,0,0,0.06667795,28.569058,36.738584)"
     id="g44" />
  <g
     transform="matrix(0.06667795,0,0,0.06667795,28.569058,36.738584)"
     id="g46" />
  <g
     transform="matrix(0.06667795,0,0,0.06667795,28.569058,36.738584)"
     id="g48" />
  <g
     transform="matrix(0.06667795,0,0,0.06667795,28.569058,36.738584)"
     id="g50" />
  <g
     transform="matrix(0.06667795,0,0,0.06667795,28.569058,36.738584)"
     id="g52" />
</svg>
