<?xml version="1.0" encoding="utf-8"?>
<!-- Generator: Adobe Illustrator 22.1.0, SVG Export Plug-In . SVG Version: 6.00 Build 0)  -->
<svg version="1.1" id="Calque_1" xmlns="http://www.w3.org/2000/svg" xmlns:xlink="http://www.w3.org/1999/xlink" x="0px" y="0px"
	 viewBox="0 0 432 432" style="enable-background:new 0 0 432 432;" xml:space="preserve">
<style type="text/css">
	.st0{display:none;}
	.st1{display:inline;fill:#333333;}
	.st2{display:none;fill:#333333;}
	.st3{fill:none;}
	.st4{opacity:0.7;enable-background:new    ;}
	.st5{font-family:'BerlinSansFB-Reg';}
	.st6{font-size:60.0001px;}
	.st7{opacity:0.7;}
	.st8{fill:#009C00;}
	.st9{fill:#FF491F;}
</style>
<g>
	<g class="st0">
		<path class="st1" d="M76.6,328.2c-3.5,0-7.1,0-10.6,0c-1.2,0-1.2,0-1.3,1.2c-0.5,3.3-1,6.7-1.5,10c-0.1,0.8,0,1.2,0.7,1.5
			c0.9,0.5,1.7,1.2,2.4,1.9c0.5,0.5,0.8,1.1,0.5,1.9c-0.3,0.7-0.9,0.9-1.7,1c-2.9,0.4-5.8,0.2-8.8,0.2c-0.4,0-0.7-0.1-1.1-0.2
			c-0.7-0.2-1.2-0.7-1.3-1.5c-0.2-0.8,0.2-1.4,0.8-1.8c1-0.7,2.1-1.4,3.2-2c0.6-0.4,0.9-0.8,1-1.5c1.1-10.6,2.8-21.2,5.5-31.6
			c1.3-5,3-9.8,5-14.6c1.7-4.1,3.8-8,6.4-11.7c0.9-1.2,1.9-2.3,3-3.3c2.6-2.2,5.6-1.5,7.4,0.3c0.8,0.7,1.4,1.6,2,2.5
			c3,4.4,4.4,9.3,5.4,14.5c0.9,5.2,1.4,10.4,1.7,15.6c0.2,4.1,0.3,8.1,0.5,12.2c0.1,1.2,0.2,2.4,0.3,3.6c0.4,3.6,0.3,7.3,0.2,11
			c0,0.7,0.1,1.2,0.6,1.7c0.8,0.8,1.4,1.6,2.1,2.4c0.4,0.5,0.8,1,1,1.5c0.8,1.6,0.1,3-1.7,3.3c-0.8,0.1-1.7,0.3-2.5,0.3
			c-3.3,0-6.7,0-10,0c-0.6,0-1.2-0.1-1.8-0.3c-2-0.6-2.6-2.8-1.1-4.2c1.2-1.1,2.4-2,3.7-2.9c0.7-0.5,1-1,1-1.8
			c0.1-2.8,0.3-5.6,0.5-8.5c0.1-1.2,0-1.2-1.2-1.2C83.7,327.8,80.2,328.1,76.6,328.2z M65.4,325c0.6,0.2,1.2,0.1,1.7,0.1
			c4.2-0.3,8.4-0.4,12.6-0.5c2.4,0,4.8-0.3,7.2-0.5c1.4-0.1,1.4-0.1,1.3-1.5c-0.2-8.3-0.1-16.7-0.7-25c-0.3-4.1-0.8-8.1-1.7-12.1
			c-0.3-1.2-0.6-2.3-1.3-3.4c-0.6-0.9-1.2-1-2.1-0.4c-0.3,0.2-0.7,0.5-0.9,0.8c-1,1.1-2,2.2-2.9,3.3c-4,4.7-6.2,10.4-8.3,16.1
			C67.6,309.4,66.3,317.1,65.4,325z"/>
		<path class="st1" d="M163.7,297.6c-0.1,6.4-3.2,12.3-9.3,16.6c-3.1,2.2-6.6,3.8-10.3,4.8c-0.7,0.2-0.9,0.5-0.9,1.1
			c0.2,4.5,0.3,9,0.6,13.5c0.2,2.5,1,4.9,2.2,7.1c0.4,0.7,0.9,1.3,1.5,1.8c0.4,0.5,0.8,1,0.7,1.8c-0.1,0.9-0.9,1.5-1.9,1.6
			c-3.4,0.2-6.8,0.4-10.2,0.9c-0.9,0.1-1.9-0.3-2.2-1.1c-0.4-0.7-0.3-1.7,0.5-2.3c2.3-1.8,2.7-4.3,3-6.9c0.3-3.8,0.3-7.7,0.1-11.5
			c-0.2-6.8-0.4-13.5-0.7-20.3c-0.2-4.7-0.5-9.4-0.7-14.2c-0.1-1.6-0.1-3.3-0.1-4.9c0.1-1.6-0.6-2.8-1.7-3.8
			c-0.4-0.4-0.9-0.7-1.2-1.1c-0.9-1.1-0.6-2.4,0.7-3c0.6-0.3,1.1-0.4,1.7-0.4c1.7,0,3.4,0,5.1,0.2c1.6,0.2,3.2,0.1,4.9,0.1
			c1.9,0,3.8,0,5.7,0.4c3.5,0.8,6.2,2.9,8.4,5.6C162.6,287.4,163.7,291.8,163.7,297.6z M143,315.3c0.4,0.2,0.6,0,0.8-0.1
			c2.8-1.3,5.5-2.8,7.8-4.7c4.7-3.9,6.5-9,6.2-14.9c-0.2-4-1.9-7.4-4.5-10.4c-1.3-1.6-3-2.8-5.2-2.9c-1.4,0-2.8,0-4.2-0.3
			c-0.8-0.1-0.9,0-0.8,0.8c0.3,7.4,0.2,14.7-0.1,22.1C142.9,308.4,143,311.8,143,315.3z"/>
		<path class="st1" d="M188.5,346.8c-3,0.1-6.4-0.5-9.8-0.7c-3.4-0.2-6.7-0.2-9.9,0.5c-1.2,0.3-1.8,0.1-2.1-0.5s0.1-1.3,1.2-1.9
			c1.6-0.9,3.3-1.5,5.1-1.8c0.4-0.1,0.7-0.2,1.1-0.2c0.6,0,0.8-0.3,0.8-0.9c0-0.8,0-1.7,0-2.5c-0.5-9.9-0.4-19.8-0.8-29.8
			c-0.3-6.8-0.2-13.5-0.1-20.3c0-1.3,0.1-2.5,0.3-3.7c0.1-0.7-0.1-1.3-0.5-1.8c-0.3-0.4-0.6-0.8-0.9-1.2c-0.7-1.1-0.4-2,0.7-2.7
			c0.7-0.4,1.5-0.5,2.3-0.5c2.4-0.2,4.8,0.1,7.2,0.4c0.3,0,0.6,0.1,0.9,0.3c1.3,0.6,1.4,1.9,0.3,2.8c-0.8,0.6-1.4,1.2-2,1.9
			c-0.3,0.3-0.4,0.7-0.3,1.1c0.6,7.3,0.6,14.5,0.6,21.8c0.1,6.2-0.3,12.4-0.5,18.6c-0.1,2,0,3.9,0,5.8c0,3.1-0.1,6.1-0.1,9.2
			c0,1.1,0,1.2,1.1,1.3c3.4,0.3,6.8,0.9,10.3,0.7c1.4-0.1,2.8-0.4,4-0.9c1.6-0.7,2.7-1.9,3.1-3.7c0.1-0.5,0.1-0.9,0.3-1.4
			c0.3-0.8,0.9-1.1,1.6-1s1.3,0.7,1.2,1.5c-0.2,2.7-0.8,5.1-3.1,6.8c-1.9,1.5-4.2,2.1-6.5,2.5C192.1,346.8,190.5,346.7,188.5,346.8z
			"/>
		<path class="st1" d="M226.3,328.2c-3.5,0-7.1,0-10.6,0c-1.1,0-1.1,0-1.3,1.2c-0.5,3.3-1,6.7-1.5,10c-0.1,0.8,0.1,1.2,0.7,1.5
			c0.9,0.5,1.7,1.2,2.4,1.9c0.5,0.5,0.8,1.1,0.5,1.9c-0.3,0.7-0.9,0.9-1.7,1c-2.9,0.4-5.8,0.2-8.8,0.2c-0.4,0-0.7-0.1-1.1-0.2
			c-0.7-0.2-1.2-0.7-1.4-1.5s0.2-1.4,0.8-1.8c1-0.7,2.1-1.4,3.2-2c0.6-0.4,0.9-0.8,0.9-1.5c1.1-10.6,2.8-21.2,5.5-31.6
			c1.3-5,3-9.8,5-14.6c1.7-4.1,3.8-8,6.4-11.7c0.9-1.2,1.9-2.3,3-3.3c2.6-2.2,5.6-1.5,7.4,0.3c0.8,0.7,1.4,1.6,2,2.5
			c3,4.4,4.4,9.3,5.4,14.5c0.9,5.2,1.4,10.4,1.7,15.6c0.2,4.1,0.3,8.1,0.5,12.2c0.1,1.2,0.2,2.4,0.3,3.6c0.4,3.6,0.3,7.3,0.2,11
			c0,0.7,0.1,1.2,0.6,1.7c0.8,0.8,1.4,1.6,2.1,2.4c0.4,0.5,0.8,1,1,1.5c0.8,1.6,0.1,3-1.7,3.3c-0.8,0.1-1.6,0.3-2.5,0.3
			c-3.3,0-6.7,0-10,0c-0.6,0-1.2-0.1-1.8-0.3c-2-0.6-2.6-2.8-1.1-4.2c1.1-1.1,2.4-2,3.7-2.9c0.7-0.5,1-1,1-1.8
			c0.1-2.8,0.3-5.6,0.5-8.5c0.1-1.2,0-1.2-1.2-1.2C233.3,327.8,229.8,328.1,226.3,328.2z M215.1,325c0.6,0.2,1.2,0.1,1.7,0.1
			c4.2-0.3,8.4-0.4,12.6-0.5c2.4,0,4.8-0.3,7.2-0.5c1.4-0.1,1.4-0.1,1.4-1.5c-0.2-8.3-0.1-16.7-0.7-25c-0.3-4.1-0.8-8.1-1.7-12.1
			c-0.3-1.2-0.6-2.3-1.3-3.4c-0.6-0.9-1.2-1-2.1-0.4c-0.3,0.2-0.7,0.5-0.9,0.8c-1,1.1-2,2.2-2.9,3.3c-4,4.7-6.2,10.4-8.3,16.1
			C217.3,309.4,216,317.1,215.1,325z"/>
		<path class="st1" d="M269.5,293.2c0,1.4,0,2.7,0,3.9c0.2,6.9,0.3,13.7,0.5,20.6c0.2,4.4,0.1,8.8,0.5,13.2c0.1,2.1,0.1,4.2,0.4,6.3
			c0.2,1.6,0.5,3.1,1.6,4.4c0.2,0.2,0.4,0.5,0.5,0.8c0.6,1.5,0.1,2.5-1.4,3c-1.2,0.4-2.5,0.5-3.7,0.6c-2,0.2-3.9,0.7-5.9,0.7
			c-0.6,0-1.2,0-1.8-0.3c-1.1-0.6-1.3-1.1-0.7-2.3c0.3-0.5,0.5-1,0.7-1.5c0.6-1.7,0.9-3.4,0.8-5.3c-0.9-12.8-0.8-25.7-0.9-38.5
			c0-4,0-8.1,0-12.1c0-1.4-0.5-2.5-1.6-3.4c-0.7-0.6-1.4-1-2.1-1.5c-0.5-0.4-0.9-0.8-0.8-1.5c0.2-0.6,0.6-1,1.2-1.2
			c2.1-0.6,4.2-0.7,6.3-0.8c1.9-0.1,3.8,0,5.7-0.1c0.6,0,1.2,0,1.8-0.1c1.5-0.3,2.4,1,1.9,2.3c-0.1,0.3-0.4,0.6-0.6,0.9
			c-0.6,0.7-1.1,1.5-1.8,2.1c-0.8,0.7-0.8,1.5-0.3,2.4c1.3,2.7,2.6,5.4,3.8,8.2c5.2,11.6,10.3,23.2,15.3,34.9
			c0.3,0.6,0.5,1.2,0.8,1.8c0.5-0.1,0.3-0.5,0.3-0.7c0-5.9,0-11.9,0.1-17.8c0-4.3-0.3-8.6-0.8-12.9s-0.5-8.7-0.3-13.1
			c0-1.1-0.1-2.1-1-2.8c-0.8-0.6-1-1.5-1.1-2.5c-0.1-1.1,0.4-1.7,1.4-2.1c0.8-0.3,1.5-0.3,2.3-0.4c1.4-0.3,2.7-0.4,4.1-0.6
			c0.4,0,0.8-0.1,1.3,0c1.1,0.1,1.6,0.7,1.7,1.8c0,0.8-0.1,1.6-0.4,2.3c-1,2-1.4,4.2-1.3,6.5c0.2,8.7-0.1,17.3-0.1,26
			c0,3.8,0.4,7.6,0.2,11.4c-0.2,2.9-0.2,5.8-0.2,8.8c0,1.5,0.2,2.9,0,4.4c-0.2,1.1,0.2,2.1,1.1,2.8c0.5,0.4,0.8,0.9,1.1,1.4
			c0.7,1.1,0.3,2.4-0.9,2.7c-2.5,0.6-5,1-7.5,0.4c-0.2,0-0.5-0.1-0.7-0.2c-1.4-0.6-1.7-1.9-0.8-3.1c0.3-0.4,0.7-0.8,1.1-1.1
			c1-0.8,1-0.8,0.5-2c-3-7-6-13.9-8.9-20.8c-3.4-8.2-7-16.3-10.3-24.5C270.1,294.2,270,293.7,269.5,293.2z"/>
		<path class="st1" d="M324.7,277.8c4.4,0,8.5,0.3,12.6,0.6c1.2,0.1,2.4,0.3,3.6,0.5c1.4,0.2,2.3,0.9,3,2.1c0.7,1.3,1,2.8,0.6,4.3
			c-0.2,0.8-0.4,1.5-0.7,2.3c-0.2,0.7-0.8,1.1-1.5,1.1s-1.3-0.4-1.5-1.1c-0.3-0.9-0.8-1.8-0.9-2.8c-0.1-0.5-0.3-0.8-0.9-0.9
			c-0.5-0.1-1-0.2-1.5-0.2c-3,0-6,0-9,0c-1.4,0-1.4,0-1.5,1.5c-0.4,4.8-0.4,9.6-0.3,14.5c0.1,8.4,0.1,16.7-0.1,25
			c-0.1,4.4,0,8.7,0,13.1c0,1.3,0.6,2.2,1.2,3.2c0.5,0.8,1.2,1.5,1.8,2.3c1.3,1.7,0.8,3-1.3,3.3c-2.2,0.4-4.4,0.3-6.5,0.2
			c-1.4-0.1-2.9-0.1-4.3-0.2c-1.1,0-2.2-0.2-2.6-1.4c-0.4-0.9,0.1-1.9,1.4-2.8c2-1.3,2.8-3.1,2.8-5.4c-0.1-11.5,0.3-22.9,0.3-34.4
			c0-5.6,0.3-11.2,0.2-16.8c0-0.2,0-0.5,0-0.7c0.1-0.7-0.2-0.9-0.9-0.9c-1.7,0.1-3.3,0.2-5,0.4c-2.1,0.2-4.1,0.5-6.2,0.7
			c-0.7,0.1-1,0.3-1,1c0,0.5,0,1-0.1,1.5c-0.1,0.8-0.7,1.3-1.2,1.4c-0.5,0-1.2-0.5-1.2-1.3c-0.1-1.7-0.4-3.4-0.3-5.1
			c0.1-1.4,1-2.3,2.2-2.8c0.8-0.3,1.7-0.6,2.5-0.7C313.8,278.5,319.3,277.7,324.7,277.8z"/>
	</g>
	<g>
		<path class="st2" d="M248.6,123.8c-1.1,1-1.8,1.8-2.6,2.5c-2.3,2.2-4.5,4.4-6.9,6.5c-0.9,0.8-1.3,1.6-1.2,2.9
			c0.4,12.2-1.4,24-5.1,35.6c-1.5,4.8-3.3,9.4-5.9,13.7c-1.8,3-3.8,5.7-6.4,8c-5.8,5.2-13.1,5.4-19.2,0.5c-3-2.4-5.1-5.5-6.8-9
			c-0.4-0.8-0.7-1.6-1.2-2.8c-0.3,0.6-0.5,1-0.6,1.4c-2.2,8.4-4.4,16.8-6.7,25.2c-0.6,2-1.3,4-2.2,5.9c-1.6,3.3-4.4,4.3-7.7,2.8
			c-1.3-0.6-2.5-1.3-3.4-2.3c-1.8-2-3.5-4.1-4.8-6.3c-4.4-7.3-6.8-15.3-8.3-23.6c-1.2-6.7-1.7-13.5-2-20.3c0-0.4-0.1-0.9-0.4-1.4
			c-0.2,0.6-0.5,1.3-0.7,1.9c-2,5.8-4,11.6-6.1,17.4c-0.8,2.1-1.7,4.1-2.9,6.1c-2.1,3.5-5.6,4.6-9.4,3.4c-2.1-0.7-3.7-1.9-5.2-3.4
			c-2.2-2.2-3.9-4.8-5.3-7.5c-0.3-0.6-0.6-1.2-1.2-2.2c-0.2,0.8-0.3,1.1-0.3,1.5c-1.7,10.2-3.3,20.3-5.1,30.5
			c-0.3,1.6-0.8,3.3-1.5,4.8c-1.4,3.1-4.2,4.1-7.1,2.4c-1.5-0.9-2.9-2.2-4-3.6c-2.8-3.5-4.6-7.5-6.3-11.6
			c-2.8-7.1-4.5-14.4-5.5-21.9c-0.9-6.6-1.4-13.2-1.3-19.9c0-0.3,0-0.7-0.1-1.2c-0.9,0.5-1.1,1.3-1.4,1.9c-2.7,4.7-5.3,9.4-8.1,14
			c-1.2,2-2.7,3.9-4.2,5.8c-1,1.2-2.3,2.3-3.6,3.2c-3.7,2.4-7.8,2.3-11.4-0.3c-2.4-1.7-4.1-4-5.5-6.6c-2.2-3.9-3.6-8.2-4.5-12.6
			c-2.6-13.4-1.8-26.5,2.7-39.3c1.7-4.9,4.1-9.5,7.7-13.4c2-2.2,4.3-4.1,6.9-5.4c6.3-3.4,13.2-2.4,18.5,2.4c2.7,2.5,4.6,5.7,6.1,9
			c0.5,1.1,0.9,2.1,1.5,3.5c0.4-0.8,0.7-1.3,1-1.9c0.7-1.2,1.4-2.5,2.2-3.5c1.3-1.7,3.2-2.2,5.3-1.9c2.8,0.5,4.1,2.4,3.6,5.1
			c-1.1,6.3-2.3,12.7-3.3,19c-1.7,10.5-2.8,21.1-2.6,31.8c0.2,11.3,1,22.5,4.5,33.4c0.8,2.6,1.9,5.1,3,7.6c0.3,0.8,0.9,1.5,1.7,2.8
			c0.4-1.1,0.7-1.8,0.8-2.4c1-4.7,2-9.4,2.9-14.2c1.5-8.9,2.9-17.8,4.4-26.7c0.3-1.9-0.2-3.6-0.4-5.4c-0.8-6.1-0.9-12.2,0.7-18.2
			c0.7-2.8,1.8-5.4,3.6-7.8c5.7-7.8,16.6-9.1,23.9-2.9c2.7,2.3,4.6,5.1,6.1,8.2c0.3,0.5,0.5,1.1,1,2.1c0.4-3.2,0.7-5.9,1.1-8.7
			c1.8-11.6,4.3-23,9.3-33.7c1.4-3.1,3.2-6.1,5.1-8.9c1.7-2.6,3.8-4.9,6.5-6.5c1.7-1,3.5-1.9,5.3-2.4c5-1.3,9.2,0.6,11.7,5.1
			c2.2,3.9,2.7,8.2,2.3,12.6c-0.5,5.1-2.3,9.8-4.7,14.3c-4.5,8.5-10.6,15.6-17.4,22.3c-1.8,1.7-3.6,3.3-5.5,4.9
			c-0.8,0.7-1.3,1.4-1.3,2.4c-0.4,5.3-0.9,10.6-1.1,15.9c-0.2,5.7-0.2,11.4,0.1,17c0.4,7.9,1.6,15.8,4.4,23.2c0.9,2.2,2,4.3,3.1,6.4
			c0.4,0.9,1.1,1.6,1.9,2.7c0.5-1.2,1.1-2.1,1.3-3.1c1.6-5.4,3.2-10.9,4.7-16.3c2-6.9,3.9-13.9,5.8-20.9c0.3-1,0.4-2.1,0.4-3.1
			c-0.1-7.1,1.4-13.9,4.3-20.4c0.9-1.9,2.1-3.6,3.4-5.2c1.4-1.6,3.3-2.4,5.4-2.2c2.6,0.2,4,1.9,3.4,4.4c-0.7,3.3-1.6,6.5-2.5,9.8
			c-1.6,6-2.3,12.1-2,18.3c0.2,4.6,1.1,9.1,3.6,13c0.8,1.2,1.8,2.3,2.9,3.3c1.6,1.3,3.4,1.4,5.1,0.3c1.1-0.7,2.2-1.5,3.1-2.5
			c3.1-3,5.1-6.6,6.8-10.5c2.8-6.6,4.6-13.4,5.8-20.4c0.9-5.5,1.4-11.1,2.1-16.7c0.1-1.2,0-2.4,0-3.8c-0.6,0.2-1.1,0.3-1.6,0.5
			c-10.7,3.6-21.5-2.5-23.9-13.5c-1.2-5.7-0.5-11.2,3.3-15.9c5.1-6.4,13.6-6.7,19.2-0.7c2.1,2.3,3.6,4.9,4.5,7.8
			c1.1,3.5,1.9,7,2.8,10.5c0.2,0.9,0.3,1.8,0.5,2.9c0.5-0.4,1-0.7,1.4-1c3.4-3.3,6.9-6.6,10.3-9.9c0.6-0.6,1-1.5,1.3-2.3
			c0.6-1.6,1-3.2,1.7-4.7c1.3-2.8,4.2-3.9,7.1-2.9c1.6,0.6,2.9,1.6,3,3.4c0.1,1.9,0,3.9-0.2,5.8c-0.8,5.6-1.8,11.1-2.6,16.6
			c-0.8,5.8-1.3,11.6-1.9,17.3c-0.1,0.5,0,1,0.3,1.6c0.2-0.6,0.4-1.1,0.5-1.7c2.3-7.2,5-14.3,8.8-20.9c2.1-3.7,4.5-7.3,7.6-10.3
			c1.7-1.6,3.6-3.1,5.7-4.2c5.2-2.8,11.1-2.1,15.7,1.8c2.9,2.4,4.7,5.5,5.9,9c1.4,3.9,2,8,2.4,12.1c0.1,0.6,0.1,1.1,0.2,1.9
			c0.5-0.3,0.9-0.5,1.3-0.8c3.8-3.6,7.7-7.2,11.4-10.9c0.6-0.6,1.1-1.3,1.2-2.1c0.8-4.1,1.6-8.3,2.3-12.4c0-0.1,0-0.3-0.1-0.6
			c-1.1-0.5-2.3-1-3.5-1.5c-6.7-2.8-13.4-5.2-20.6-6.6c-7.9-1.5-15.8-1.9-23.8-0.7c-0.7,0.1-1.6,0.1-2.3-0.1
			c-1.2-0.4-1.4-1.4-0.4-2.2c0.7-0.5,1.6-1,2.5-1.1c3.2-0.6,6.5-1.5,9.7-1.7c11.1-0.6,21.7,1.8,32,5.7c2.5,1,5.1,2,7.8,3.1
			c0.3-0.9,0.5-1.8,0.8-2.7c1.5-4.7,3-9.3,4.7-13.9c0.6-1.7,1.5-3.3,2.4-4.9c1.1-1.9,3-2.6,5-2s3,2,3.1,4.2
			c0.1,3.6-0.8,7.1-1.6,10.6c-0.9,4.2-2,8.3-3,12.5c-0.1,0.3-0.1,0.7-0.2,1.1c0.4,0.3,0.8,0.5,1.3,0.7c5.9,2.7,11.8,5.2,18.2,6.3
			c2.9,0.5,5.7,0.6,8.5-0.1c5.6-1.5,9.6-6.3,10.3-12c0.1-1,0.3-1.9,0.6-2.9c0.4-1.3,1.3-1.8,2.6-1.7c1.3,0.1,2,0.7,2.4,2
			c0.6,1.9,0.2,3.8-0.4,5.6c-2.4,7.1-7.4,11.4-14.6,13.2c-5,1.3-10.1,0.8-15-0.7c-4.2-1.2-8.4-2.8-12.5-4.2c-0.8-0.3-1.5-0.6-2.6-1
			c-0.2,0.8-0.4,1.5-0.6,2.2c-2.7,13-4.8,26.2-5.7,39.5c-0.8,11.1-0.5,22.1,2.4,33c1,3.8,2.3,7.5,4.2,10.9c0.9,1.6,2,3.2,3.9,4.3
			c0.6-0.8,1.3-1.5,1.8-2.3c1.1-2.2,2.2-4.4,3.2-6.6c3.6-8.8,6.1-17.9,8.7-27c0.5-1.6,0.9-3.1,1.3-4.6c0.2-0.6,0.4-1.2,0.7-1.7
			c0.7-1.2,1.9-1.7,3.2-1.3c1.3,0.3,2.1,1.4,2,2.8c-0.1,1.6-0.4,3.2-0.8,4.8c-2.6,10-5.9,19.7-9.9,29.2c-1.3,3.2-2.9,6.4-5.5,8.9
			c-3.3,3.2-7.3,3.6-11.1,0.9c-2.4-1.7-4.3-4-5.8-6.6c-3.3-5.4-5.2-11.3-6.7-17.4c-2.7-11.3-3-22.8-2.3-34.3
			c0.4-6.2,1-12.4,1.6-18.9c-0.6,0.5-1.1,1-1.6,1.4c-3.2,3-6.4,6.1-9.6,9.1c-0.9,0.8-1.3,1.7-1.3,2.9c-0.1,5.8-0.7,11.5-1.9,17.1
			c-1.3,6-3.3,11.7-6.4,17c-1.7,2.9-3.8,5.4-6.4,7.4c-2.4,1.8-5,3-8,3.4c-7.9,0.9-12.3-5.1-12.7-10.7c-0.3-2.9,0.3-5.7,1.5-8.4
			c1.6-3.9,4-7.2,6.9-10.2c4.2-4.3,8.9-7.9,13.7-11.4c1.4-1,2-2.1,1.9-3.8c-0.2-5.1-0.1-10.2-0.5-15.3c-0.2-2.6-0.9-5.2-1.7-7.8
			c-0.5-1.6-1.5-3-2.4-4.4c-0.9-1.3-2.3-1.6-3.7-1c-1.5,0.7-3,1.5-4.3,2.5c-2.9,2.2-5,5-7,8c-4.7,7.2-7.8,15.1-10.2,23.2
			c-3.6,12.1-5.5,24.5-5.5,37.1c0,8.1,0.2,16.3,0.4,24.4c0,2.6-0.6,3.7-2.5,4.2c-2.3,0.5-4.5-0.5-5.2-2.8c-0.8-2.7-1.5-5.4-2.1-8.1
			c-1.7-7.5-2.8-15-3.2-22.6c-0.4-6.8-0.7-13.6-0.7-20.4c0-8.8,0.8-17.6,1.8-26.4C247.2,134.2,247.9,129.3,248.6,123.8z M65.4,155.5
			c0.2,2.4,0.5,6.4,1,10.3c0.6,4.3,1.7,8.5,3.9,12.3c1.9,3.4,3.1,3.6,5.8,0.7c2-2.2,3.8-4.5,5.4-7c4.4-6.9,8.6-13.9,12.9-20.9
			c0.8-1.3,1.1-2.7,1.3-4.1c0.6-5.4,1.2-10.7,1.8-16c0.1-0.5,0.2-1.1,0.1-1.6c-1.2-5.3-3.1-10.3-6.4-14.7c-1-1.3-2.3-2.4-3.7-3.3
			c-2.3-1.5-4.8-1.5-7.1,0.1c-1.6,1.2-3.2,2.5-4.5,4.1c-3.2,3.6-5.1,8-6.7,12.5C66.5,136.3,65.7,145.1,65.4,155.5z M156.2,153.2
			c-1.1-2.1-1.9-3.7-2.8-5.4c-1.6-3.2-3.6-6-6.6-8.1c-3.4-2.4-6.8-1.9-9.5,1.3c-0.8,1-1.6,2-2,3.2c-0.8,2.2-1.7,4.5-2.1,6.8
			c-1.1,7.6-0.7,15.1,1.1,22.5c0.9,3.9,2.2,7.7,4.4,11.1c0.7,1.2,1.6,2.3,2.9,2.9c1.6-1.3,2.4-3.1,3.2-4.8
			C149.4,173.1,152.7,163,156.2,153.2z M171.4,140.7c0.1,0.1,0.3,0.1,0.5,0.1c0.4-0.3,0.7-0.6,1.1-0.9c4.5-4.4,8.6-9,12.2-14.1
			c3.4-4.8,6.2-10,8-15.6c1.1-3.4,1.8-6.9,1.5-10.5c-0.2-2.5-0.8-4.8-2.3-6.9c-1-1.4-1.8-1.7-3.2-0.7c-1.5,1-3,2.2-3.9,3.7
			c-1.7,2.6-3.2,5.4-4.4,8.3c-4.1,9.8-6.6,20-8.5,30.5C172,136.5,171.7,138.6,171.4,140.7z M232.9,131.6c-0.2-1.8-0.3-3.3-0.4-4.8
			c-0.5-4.6-1.4-9.2-3.5-13.3c-0.9-1.8-2-3.5-3.4-4.9c-2.4-2.4-5.7-2.4-8.4-0.3c-1.5,1.2-2.8,2.6-3.5,4.4c-2.6,6.6-2,13,2.5,18.6
			c3.9,4.8,9.8,5.6,15.1,2.6C232.4,133.3,233.2,132.6,232.9,131.6z M293,156.2c-1.4,1.1-2.6,2-3.7,2.9c-4.4,3.5-8.5,7.3-11.6,12
			c-1.2,1.8-2.1,3.8-2.5,5.9c-0.6,3.1-0.3,6.2,1.9,8.7c2.3,2.7,5.2,2.8,7.5,0.1c0.9-1,1.6-2.2,2.2-3.3
			C291,174.5,292.2,165.6,293,156.2z"/>
	</g>
</g>
<rect x="55.9" y="133.5" class="st3" width="352.5" height="87.7"/>
<text transform="matrix(1 0 0 1 55.8506 185.9349)" class="st4 st5 st6">Prihodnost je</text>
<g class="st7">
	<g>
		<path d="M33,284.2L64.5,244v-0.4H35.9v-14.8h53v9.5l-30.8,40.2v0.4h31.5v14.8H33V284.2z"/>
		<path d="M143.5,268h-26.4v11h29.4v14.6H99v-64.7h46.1v14.6h-27.9v9.9h26.4V268H143.5z"/>
		<path d="M156.6,229h18.2v49.5h27.9v15.2h-46.1V229z"/>
		<path d="M255.8,268h-26.4v11h29.4v14.6h-47.5v-64.7h46.1v14.6h-28v9.9h26.4L255.8,268L255.8,268z"/>
		<path d="M268.9,293.6v-64.7h22.8l10.6,18.7c4.1,7.2,8.2,16,11.4,24.4h0.3c-1.2-9.6-1.3-17.5-1.3-26.4v-16.9h16.8v64.7h-19.8
			L297.9,272c-4.1-7.5-8.7-16.2-12.5-25.1H285c0.5,9.9,0.6,19.2,0.6,29v17.5h-16.7V293.6z"/>
		<path d="M360.6,277.8l-4.1,15.7h-19.1l20.5-64.7h24.8l21.7,64.7h-20.2l-4.9-15.7H360.6z M376.6,264.6l-3.5-11.4
			c-1.2-3.7-2.6-8.3-3.7-12.2h-0.3c-1,3.7-2,8.4-3.1,12.2l-3.1,11.4H376.6z"/>
	</g>
</g>
<path class="st8" d="M78.9,224.9c2.9,3.5,5.5,6.5,8.1,9.6c0.6,0.7,1.3,1.5,1.8,2.2c2.6,3.9,1.7,7.9-2.5,10.2
	c-0.4,0.2-0.8,0.4-1.2,0.6c-6,2-12,2.3-17.9-0.5c-10.4-4.9-12.1-15.6-10.2-23c0.2-0.8,0.5-1.5,0.7-2.4c-4.2-1-8.3-1.8-12.3-2.9
	c-5-1.3-10-2.7-14.9-4.3c-2.3-0.7-4.5-1.9-6.7-2.9c-0.6-0.3-1.2-0.7-1.7-1.2c-0.7-0.7-1.1-1.8-0.4-2.6c0.5-0.6,1.5-1,2.2-0.9
	c2.2,0.3,4.3,0.9,6.4,1.4c9.8,2.4,19.5,5,29.4,7c16.8,3.5,33.8,4.6,51,4.2c0.6,0,1.2-0.1,2-0.2c-0.5-0.9-0.8-1.7-1.2-2.5
	c-6.7-12.4-0.5-33.2,17.7-36.7c5.4-1,10.7-0.6,15.5,2.3c2.5,1.5,4.4,3.5,5.3,6.3c0.8,2.7,0.3,5.2-1,7.6c-4.1,7.7-9.2,14.5-15.8,20.1
	c-0.6,0.5-1.1,1-1.7,1.5c22.5-1.1,44.6-4.5,67-7.9c-0.5-0.9-0.8-1.5-1.2-2.1c-6.3-10.4-3.5-22.6,6.8-29.2c4.7-3,9.8-4.7,15.4-4.1
	c1.4,0.1,2.8,0.5,4.1,1c4.6,1.9,6.7,5.9,5.2,10.7c-2.3,7.4-5.2,14.5-10.8,20.2c-0.2,0.2-0.3,0.4-0.5,0.8c24.9-2.6,49.6-5.2,74.5-7.8
	c-0.4-0.8-0.7-1.7-1.1-2.5c-2.9-6.5-3-12.9,1-19c4-6.2,11.8-9.5,18.9-8c1.3,0.3,2.5,0.8,3.7,1.4c4.4,2.5,5.7,6.7,3.6,11.2
	c-2.4,5.1-5.4,9.8-9.3,14c-0.5,0.6-1,1.1-1.8,2c0.9,0.1,1.4,0.2,2,0.1c10.2-0.5,20.3-0.4,30.5,0.2c1,0.1,1.8-0.1,2.6-0.8
	c7.4-6.7,16.2-9.5,26.1-9.2c8,0.2,15.8,1.8,23.2,5.2c7.6,3.5,13.8,8.6,18.6,15.4c3.5,4.9,2.7,9.5-2.4,12.8c-1.9,1.2-4,2.3-6.1,3
	c-8.7,2.9-17.6,4.6-26.8,4.1c-4.8-0.2-9.3-1.6-13.7-3.4c-6.8-2.8-12.9-6.8-17.8-12.2c-1.9-2.1-3.4-4.4-5.1-6.7
	c0.1-0.2,0.2-0.3,0.3-0.5c-1-0.1-2.1-0.3-3.1-0.2c-9.5,0.2-19.1,0.2-28.6,0.6c-8.1,0.4-16.1,1.1-24.1,1.8
	c-7.4,0.6-14.8,1.4-22.2,2.2c-0.1,0-0.3,0.2-0.5,0.4c0.2,0.3,0.4,0.6,0.6,0.7c4.2,3.3,7.5,7.6,10.9,11.7c0.7,0.8,1.3,1.9,1.8,2.9
	c1.6,3.6,0.4,7.3-3.1,9.2c-3.3,1.8-6.9,2.4-10.7,2.2c-9.6-0.4-17.8-7.2-19.5-16.5c-0.5-2.6-0.1-5.4-0.1-8.5
	c-22.4,2.1-44.3,5.1-66.9,8.1c1.4,1,2.4,1.5,3.2,2.3c3.9,3.7,7.9,7.2,11.5,11.1c3.7,4.1,2.3,8.9-2.9,10.9c-1.4,0.6-3,0.9-4.6,1
	c-12.9,1.1-23.3-7.4-25.1-20.5c-0.1-0.8-0.2-1.6-0.2-2.3c-12.7,0.9-25.2,2-37.7,2.6C104.4,227,91.9,226.2,78.9,224.9z"/>
<g>
	<path class="st9" d="M26.2,165.4c0.3-1.6,0.4-2.9,0.7-4.2c0.7-3.3,2.3-6.1,5.2-7.9c4-2.5,8.7-1.4,11.2,2.6c1.5,2.3,2.1,4.8,2.4,7.4
		c0.8,8.8-1,17.1-4.7,25c-1.5,3.3-4.2,4.5-7.7,4.4c-1,0-2-0.1-2.9-0.4c-7-2.2-13.2-5.7-18.1-11.2c-2.3-2.5-3.7-5.5-4.8-8.7
		c-1.9-5.7,2.1-9.6,6-10.5c3.5-0.8,6.8-0.2,9.9,1.6C24.2,164.2,25,164.7,26.2,165.4z"/>
</g>
<g class="st7">
	<g>
		<path d="M41,316.4c-0.8-0.4-1.4-1-1.8-1.9c-0.4-0.8-0.6-1.8-0.6-3V302h1.8v9.6c0,1.2,0.3,2.1,0.9,2.7c0.6,0.6,1.4,0.9,2.6,0.9
			c1.1,0,2-0.3,2.6-0.9s0.9-1.5,0.9-2.7V302h1.8v9.6c0,1.2-0.2,2.2-0.6,3c-0.4,0.8-1,1.4-1.8,1.9c-0.8,0.4-1.7,0.6-2.9,0.6
			S41.8,316.9,41,316.4z"/>
		<path d="M52.6,302h1.8v14.9h-1.8V302z M53.7,309.4h4.8c0.5,0,1-0.1,1.4-0.4c0.4-0.2,0.7-0.6,0.9-1s0.3-0.9,0.3-1.5
			s-0.1-1.1-0.3-1.5s-0.5-0.8-0.9-1s-0.8-0.4-1.4-0.4h-4.8V302h4.7c0.9,0,1.7,0.2,2.3,0.6c0.7,0.4,1.2,0.9,1.6,1.6
			c0.4,0.7,0.6,1.5,0.6,2.4s-0.2,1.7-0.6,2.4c-0.4,0.7-0.9,1.2-1.6,1.6c-0.7,0.4-1.5,0.6-2.3,0.6h-4.7V309.4z"/>
		<path d="M67.8,316.4c-0.8-0.4-1.4-1.1-1.8-1.9s-0.6-1.8-0.6-2.9v-4.2c0-1.1,0.2-2.1,0.6-2.9s1-1.5,1.8-1.9s1.7-0.7,2.8-0.7
			s2,0.2,2.8,0.7c0.8,0.4,1.4,1.1,1.8,1.9s0.6,1.8,0.6,2.9v4.2c0,1.1-0.2,2.1-0.6,2.9s-1,1.5-1.8,1.9s-1.7,0.7-2.8,0.7
			S68.6,316.8,67.8,316.4z M72.4,314.9c0.5-0.3,0.9-0.7,1.2-1.3c0.3-0.6,0.4-1.2,0.4-2v-4.4c0-0.8-0.1-1.4-0.4-2s-0.7-1-1.2-1.3
			s-1.1-0.4-1.8-0.4s-1.3,0.1-1.8,0.4s-0.9,0.7-1.2,1.3c-0.3,0.6-0.4,1.2-0.4,2v4.4c0,0.8,0.1,1.4,0.4,2s0.7,1,1.2,1.3
			s1.1,0.4,1.8,0.4S71.9,315.2,72.4,314.9z"/>
		<path d="M79.2,302H81v14.9h-1.8V302z M80.1,308.9h5.1c0.5,0,0.9-0.1,1.3-0.3c0.4-0.2,0.6-0.5,0.8-0.9c0.2-0.4,0.3-0.9,0.3-1.4
			s-0.1-1-0.3-1.4c-0.2-0.4-0.5-0.7-0.8-0.9c-0.4-0.2-0.8-0.3-1.3-0.3h-5.1V302h5c0.9,0,1.6,0.2,2.3,0.5c0.7,0.4,1.2,0.9,1.5,1.5
			c0.4,0.7,0.5,1.4,0.5,2.3s-0.2,1.6-0.5,2.3c-0.4,0.7-0.9,1.2-1.5,1.5c-0.7,0.4-1.4,0.5-2.3,0.5h-5V308.9z M84.6,310.1l1.7-0.5
			l3.8,7.2H88L84.6,310.1z"/>
		<path d="M97,302h1.8l5.5,14.9h-1.9L98,304.2l-4.4,12.7h-1.9L97,302z M94,311.8h7.8v1.7H94V311.8z"/>
		<path d="M106.5,302h1.8v14.9h-1.8V302z M107.8,315.3h4.1c1.2,0,2-0.2,2.5-0.7c0.5-0.4,0.8-1.1,0.8-1.9l0,0c0-0.5-0.1-1-0.3-1.4
			c-0.2-0.4-0.5-0.7-0.9-0.9s-1-0.3-1.6-0.3h-4.6v-1.6h4.6c0.9,0,1.5-0.2,2-0.6c0.4-0.4,0.7-1,0.7-1.8s-0.2-1.4-0.7-1.8
			s-1.2-0.6-2.2-0.6h-4.3V302h4.6c1,0,1.8,0.2,2.4,0.5s1.1,0.8,1.5,1.4s0.5,1.3,0.5,2.2c0,0.5-0.1,1-0.3,1.4
			c-0.2,0.4-0.5,0.8-0.9,1.2s-0.9,0.5-1.5,0.6c0.6,0.1,1.1,0.3,1.6,0.6c0.4,0.3,0.8,0.8,1,1.3s0.3,1.1,0.3,1.6l0,0
			c0,0.8-0.2,1.5-0.5,2.1s-0.9,1.1-1.5,1.4s-1.4,0.5-2.3,0.5H108v-1.5L107.8,315.3L107.8,315.3z"/>
		<path d="M120.1,302h1.8v14.9h-1.8V302z M121.1,315.2h8.5v1.7h-8.5C121.1,316.9,121.1,315.2,121.1,315.2z"/>
		<path d="M132.2,316.6c-0.7-0.3-1.2-0.8-1.6-1.3l1.4-1.1c0.3,0.4,0.6,0.7,1,0.9c0.4,0.2,0.9,0.3,1.5,0.3c0.9,0,1.6-0.3,2.1-0.9
			s0.7-1.4,0.7-2.4V302h1.8v10.1c0,1.1-0.2,2-0.6,2.7s-0.9,1.3-1.6,1.7c-0.7,0.4-1.6,0.6-2.5,0.6
			C133.6,317.1,132.8,316.9,132.2,316.6z"/>
		<path d="M146.8,302h1.8l5.5,14.9h-1.9l-4.4-12.7l-4.4,12.7h-1.9L146.8,302z M143.8,311.8h7.8v1.7h-7.8V311.8z"/>
		<path d="M156.4,316.6c-0.7-0.3-1.2-0.8-1.6-1.3l1.4-1.1c0.3,0.4,0.6,0.7,1,0.9c0.4,0.2,0.9,0.3,1.5,0.3c0.9,0,1.6-0.3,2.1-0.9
			s0.7-1.4,0.7-2.4V302h1.8v10.1c0,1.1-0.2,2-0.6,2.7s-0.9,1.3-1.6,1.7c-0.7,0.4-1.6,0.6-2.5,0.6C157.8,317.1,157,316.9,156.4,316.6
			z"/>
		<path d="M170.5,302h1.8v14.9h-1.8V302z M171.5,302h8.6v1.7h-8.6V302z M171.5,308.7h7.4v1.7h-7.4V308.7z M171.5,315.2h8.6v1.7h-8.6
			V315.2z"/>
		<path d="M183.1,302h1.8v14.9h-1.8V302z M184.1,315.2h8.5v1.7h-8.5V315.2z"/>
		<path d="M195.1,302h1.8v14.9h-1.8V302z M196.1,302h8.6v1.7h-8.6V302z M196.1,308.7h7.4v1.7h-7.4V308.7z M196.1,315.2h8.6v1.7h-8.6
			V315.2z"/>
		<path d="M207.7,302h1.8v14.9h-1.8V302z M208.8,311.4l7.4-9.4h2.2l-9.5,11.5L208.8,311.4z M212.2,309l1.3-1.5l5.6,9.5h-2.2
			L212.2,309z"/>
		<path d="M219.1,302h10.5v1.7h-10.5V302z M223.5,302.9h1.8v14h-1.8V302.9z"/>
		<path d="M231.3,302h1.8v14.9h-1.8V302z M232.2,308.9h5.1c0.5,0,0.9-0.1,1.3-0.3c0.4-0.2,0.6-0.5,0.8-0.9s0.3-0.9,0.3-1.4
			s-0.1-1-0.3-1.4s-0.5-0.7-0.8-0.9c-0.4-0.2-0.8-0.3-1.3-0.3h-5.1V302h5c0.9,0,1.6,0.2,2.3,0.5c0.7,0.4,1.2,0.9,1.5,1.5
			c0.4,0.7,0.5,1.4,0.5,2.3s-0.2,1.6-0.5,2.3c-0.4,0.7-0.9,1.2-1.5,1.5c-0.7,0.4-1.4,0.5-2.3,0.5h-5V308.9z M236.6,310.1l1.7-0.5
			l3.8,7.2H240L236.6,310.1z"/>
		<path d="M247.1,316.4c-0.8-0.4-1.4-1.1-1.8-1.9c-0.4-0.8-0.6-1.8-0.6-2.9v-4.2c0-1.1,0.2-2.1,0.6-2.9c0.4-0.8,1-1.5,1.8-1.9
			s1.7-0.7,2.8-0.7s2,0.2,2.8,0.7c0.8,0.4,1.4,1.1,1.8,1.9c0.4,0.8,0.6,1.8,0.6,2.9v4.2c0,1.1-0.2,2.1-0.6,2.9
			c-0.4,0.8-1,1.5-1.8,1.9s-1.7,0.7-2.8,0.7S247.9,316.8,247.1,316.4z M251.7,314.9c0.5-0.3,0.9-0.7,1.2-1.3c0.3-0.6,0.4-1.2,0.4-2
			v-4.4c0-0.8-0.1-1.4-0.4-2c-0.3-0.6-0.7-1-1.2-1.3s-1.1-0.4-1.8-0.4s-1.3,0.1-1.8,0.4s-0.9,0.7-1.2,1.3c-0.3,0.6-0.4,1.2-0.4,2
			v4.4c0,0.8,0.1,1.4,0.4,2c0.3,0.6,0.7,1,1.2,1.3s1.1,0.4,1.8,0.4S251.2,315.2,251.7,314.9z"/>
		<path d="M258.5,302h1.7l8,12.5l-0.4-0.1V302h1.8v14.9h-1.7l-8-12.4l0.5,0.2V317h-1.8v-15H258.5z"/>
		<path d="M276.6,317.1c0,0-0.3-0.1-1-0.2c-0.6-0.1-1.2-0.3-1.8-0.6c-0.6-0.3-1.1-0.6-1.6-1l1.1-1.4c0.6,0.5,1.3,0.9,2,1.2
			c0.7,0.3,1.5,0.4,2.3,0.4c1.2,0,2.1-0.2,2.7-0.7s1-1.1,1-1.9l0,0c0-0.5-0.1-1-0.4-1.3s-0.7-0.6-1.1-0.7c-0.5-0.2-1-0.3-1.8-0.4
			c0,0,0,0-0.1,0c0,0,0,0-0.1,0h-0.2c-1-0.2-1.9-0.4-2.5-0.6s-1.2-0.6-1.6-1.1s-0.7-1.3-0.7-2.3l0,0c0-0.9,0.2-1.7,0.6-2.4
			c0.4-0.7,1-1.1,1.8-1.5c0.8-0.3,1.7-0.5,2.9-0.5c0.5,0,1,0.1,1.6,0.2c0.5,0.1,1,0.3,1.5,0.5s1,0.5,1.5,0.9l-1,1.4
			c-0.6-0.4-1.2-0.8-1.8-1c-0.6-0.2-1.2-0.3-1.8-0.3c-1.1,0-2,0.2-2.6,0.7s-0.9,1.1-0.9,1.9l0,0c0,0.5,0.2,1,0.5,1.3
			s0.7,0.5,1.2,0.7s1.1,0.3,1.9,0.5h0.1h0.1h0.1h0.1c0.9,0.2,1.7,0.4,2.3,0.7c0.6,0.3,1.1,0.6,1.5,1.2c0.4,0.5,0.6,1.3,0.6,2.2l0,0
			c0,0.9-0.2,1.7-0.6,2.3c-0.4,0.6-1.1,1.1-1.9,1.5c-0.8,0.3-1.8,0.5-3,0.5C277,317.1,276.6,317.1,276.6,317.1z"/>
		<path d="M286.1,302h1.8v14.9h-1.8V302z M287.3,311.4l7.4-9.4h2.2l-9.5,11.5L287.3,311.4z M290.7,309l1.3-1.5l5.6,9.5h-2.2
			L290.7,309z"/>
		<path d="M299.6,302h1.8v14.9h-1.8V302z M300.6,302h8.6v1.7h-8.6V302z M300.6,308.7h7.4v1.7h-7.4V308.7z M300.6,315.2h8.6v1.7h-8.6
			V315.2z"/>
		<path d="M315.7,302h1.8v14.9h-1.8V302z M316.7,308.9h5.1c0.5,0,0.9-0.1,1.3-0.3c0.4-0.2,0.6-0.5,0.8-0.9c0.2-0.4,0.3-0.9,0.3-1.4
			s-0.1-1-0.3-1.4c-0.2-0.4-0.5-0.7-0.8-0.9c-0.4-0.2-0.8-0.3-1.3-0.3h-5.1V302h5c0.9,0,1.6,0.2,2.3,0.5c0.7,0.4,1.2,0.9,1.5,1.5
			c0.4,0.7,0.5,1.4,0.5,2.3s-0.2,1.6-0.5,2.3c-0.4,0.7-0.9,1.2-1.5,1.5c-0.7,0.4-1.4,0.5-2.3,0.5h-5V308.9z M321.1,310.1l1.7-0.5
			l3.8,7.2h-2.1L321.1,310.1z"/>
		<path d="M333.5,302h1.8l5.5,14.9h-1.9l-4.4-12.7l-4.4,12.7H328L333.5,302z M330.5,311.8h7.8v1.7h-7.8V311.8z"/>
		<path d="M346.4,317.1c0,0-0.4-0.2-1.2-0.7c-0.8-0.5-1.4-1.1-1.8-1.9s-0.6-1.8-0.6-2.9v-4.1c0-1.1,0.2-2.1,0.6-2.9s1-1.5,1.8-2
			s1.7-0.7,2.7-0.7c0.9,0,1.6,0.2,2.4,0.5s1.3,0.9,1.8,1.5c0.5,0.7,0.8,1.4,1,2.3h-1.8c-0.2-0.5-0.4-1-0.7-1.4
			c-0.3-0.4-0.7-0.7-1.2-0.9c-0.5-0.2-0.9-0.3-1.4-0.3c-0.7,0-1.3,0.2-1.8,0.5s-0.9,0.8-1.2,1.4c-0.3,0.6-0.4,1.3-0.4,2v4.1
			c0,0.8,0.1,1.4,0.4,2s0.7,1,1.2,1.4c0.5,0.3,1.1,0.5,1.8,0.5c0.5,0,1-0.1,1.4-0.3s0.8-0.5,1.2-0.9c0.3-0.4,0.6-0.9,0.7-1.4h1.8
			c-0.2,0.9-0.5,1.6-1,2.3s-1.1,1.2-1.8,1.5c-0.7,0.4-1.5,0.5-2.3,0.5C346.9,317.1,346.4,317.1,346.4,317.1z M344.9,298.6l1-1.1
			l2,1.6l2-1.6l1,1.1l-3,2.4L344.9,298.6z"/>
		<path d="M358.2,316.4c-0.8-0.4-1.4-1-1.8-1.9c-0.4-0.8-0.6-1.8-0.6-3V302h1.8v9.6c0,1.2,0.3,2.1,0.9,2.7s1.4,0.9,2.6,0.9
			c1.1,0,2-0.3,2.6-0.9s0.9-1.5,0.9-2.7V302h1.8v9.6c0,1.2-0.2,2.2-0.6,3s-1,1.4-1.8,1.9c-0.8,0.4-1.7,0.6-2.9,0.6
			C359.9,317.1,359,316.9,358.2,316.4z"/>
		<path d="M369.8,302h1.7l8,12.5l-0.4-0.1V302h1.8v14.9h-1.7l-8-12.4l0.5,0.2V317h-1.8v-15H369.8z"/>
		<path d="M384.5,302h1.8v14.9h-1.8V302z M385.5,302h8.6v1.7h-8.6V302z M385.5,308.7h7.4v1.7h-7.4V308.7z M385.5,315.2h8.6v1.7h-8.6
			V315.2z"/>
		<path d="M396.7,302h1.8v11.3h-1.8V302z M396.7,315.1h1.8v1.8h-1.8V315.1z"/>
	</g>
</g>
</svg>
