<?xml version="1.0" encoding="utf-8"?>
<!-- Generator: Adobe Illustrator 22.1.0, SVG Export Plug-In . SVG Version: 6.00 Build 0)  -->
<svg version="1.1" id="Layer_1" xmlns="http://www.w3.org/2000/svg" xmlns:xlink="http://www.w3.org/1999/xlink" x="0px" y="0px"
	 viewBox="0 0 456.2 456.2" style="enable-background:new 0 0 456.2 456.2;" xml:space="preserve">
<style type="text/css">
	.st0{fill:#29ABE2;}
	.st1{fill:#4D4D4D;}
	.st2{fill:#FC7A51;}
	.st3{fill:#F4D521;}
	.st4{fill:#86D359;}
	.st5{fill:#77BC4A;}
	.st6{fill:#F9DE58;}
	.st7{fill:#D6B71D;}
	.st8{fill:#4B3F4E;}
	.st9{fill:#5D5360;}
	.st10{fill:#ECEAEC;}
	.st11{fill:#FFFFFF;}
	.st12{fill:#E6E6E6;}
	.st13{fill:#808080;}
	.st14{fill:#999999;}
	.st15{opacity:0.2;fill:#4D4D4D;enable-background:new    ;}
</style>
<g>
	<g>
		<path class="st0" d="M234.7,92.9v115.2c0,7.4-6,13.4-13.4,13.4H15.2c-7.4,0-13.4-6-13.4-13.4V92.9c0-7.4,6-13.4,13.4-13.4h206.1
			C228.7,79.5,234.7,85.5,234.7,92.9z"/>
		<rect x="1.7" y="109.7" class="st1" width="232.9" height="34.7"/>
	</g>
	<path class="st2" d="M31.4,186.8c0,7.2,2.8,13.8,7.2,18.8c-0.7,0.1-1.2,0.1-1.9,0.1c-10.4,0-18.9-8.4-18.9-18.9
		c0-10.4,8.4-18.9,18.9-18.9c0.7,0,1.2,0,1.9,0.1C34.1,173,31.4,179.6,31.4,186.8z"/>
	<circle class="st3" cx="59.4" cy="186.8" r="18.9"/>
</g>
<rect x="164.4" y="148.4" class="st4" width="290.8" height="156.6"/>
<path class="st5" d="M438.7,192.3v69.1c-15,0-27.1,12-27.3,26.9H208.4c-0.2-14.9-12.4-26.9-27.3-26.9v-69.1
	c15.1,0,27.3-12.2,27.3-27.3h202.9C411.3,180.1,423.6,192.3,438.7,192.3z"/>
<g>
	<path class="st6" d="M196.7,294.3c0,26.6-21.6,48.3-48.3,48.3c-1.2,0-2.3,0-3.6-0.1c-7-0.6-13.5-2.6-19.3-5.7
		c-15.1-8.2-25.3-24.1-25.3-42.5s10.2-34.3,25.3-42.5c5.9-3.1,12.4-5.1,19.3-5.7c1.2-0.1,2.3-0.1,3.6-0.1
		C175.1,246,196.7,267.7,196.7,294.3z"/>
	<circle class="st7" cx="148.5" cy="294.3" r="31.3"/>
</g>
<path class="st8" d="M182.6,401.5c-5.1,0-9.2-4.1-9.2-9.2V16.9h-9.2c-15.2,0-27.5,12.3-27.5,27.5v366.3c0,15.2,12.3,27.5,27.5,27.5
	H329c15.2,0,27.5-12.3,27.5-27.5v-9.2L182.6,401.5L182.6,401.5z"/>
<path class="st9" d="M329.1,16.9H173.5l-6.8,27.5v366.7h162.4l27.5-9.5V44.3C356.7,29.2,344.3,16.9,329.1,16.9z"/>
<path class="st10" d="M182.3,384.2c-5.1,0-9.2-3.9-9.2-8.7V37.1H164c-5.1,0-9.2,3.9-9.2,8.7v347.1c0,4.8,4.1,8.7,9.2,8.7h164.9
	c5.1,0,9.2-3.9,9.2-8.7v-8.7H182.3z"/>
<path class="st11" d="M328.9,37.1h-19.6c-3.8,0-7.5,2-8.8,5.4c-2.4,6.8-9.3,11.7-17.4,11.7h-73.2c-8.1,0-15-4.9-17.4-11.7
	c-1.2-3.4-5-5.4-8.8-5.4h-10.5l-6.8,8.5V378c0,4.8,4.1,8.5,9.2,8.5h153.2l9.2-7.2V45.6C338.1,41,334,37.1,328.9,37.1z"/>
<path class="st12" d="M320.9,128.7H176.2c-1.8,0-3.1-1.4-3.1-3.1V86.4c0-1.8,1.4-3.1,3.1-3.1h144.7c1.8,0,3.1,1.4,3.1,3.1v39.3
	C324,127.3,322.6,128.7,320.9,128.7z"/>
<path class="st6" d="M316.8,176.5h-20.4c-1.8,0-3.1-1.4-3.1-3.1v-20.4c0-1.8,1.4-3.1,3.1-3.1h20.4c1.8,0,3.1,1.4,3.1,3.1v20.4
	C319.9,175,318.6,176.5,316.8,176.5z"/>
<path class="st2" d="M316.8,215.3h-20.4c-1.8,0-3.1-1.4-3.1-3.1v-20.4c0-1.8,1.4-3.1,3.1-3.1h20.4c1.8,0,3.1,1.4,3.1,3.1v20.4
	C319.9,213.9,318.6,215.3,316.8,215.3z"/>
<g>
	<path class="st13" d="M191.4,175.4H171c-1.8,0-3.1-1.4-3.1-3.1v-20.4c0-1.8,1.4-3.1,3.1-3.1h20.4c1.8,0,3.1,1.4,3.1,3.1v20.4
		C194.6,173.9,193.2,175.4,191.4,175.4z"/>
	<path class="st13" d="M232.8,175.4h-20.4c-1.8,0-3.1-1.4-3.1-3.1v-20.4c0-1.8,1.4-3.1,3.1-3.1h20.4c1.8,0,3.1,1.4,3.1,3.1v20.4
		C236.1,173.9,234.6,175.4,232.8,175.4z"/>
	<path class="st13" d="M274.3,175.4h-20.4c-1.8,0-3.1-1.4-3.1-3.1v-20.4c0-1.8,1.4-3.1,3.1-3.1h20.4c1.8,0,3.1,1.4,3.1,3.1v20.4
		C277.4,173.9,276,175.4,274.3,175.4z"/>
	<path class="st13" d="M191.4,215.3H171c-1.8,0-3.1-1.4-3.1-3.1v-20.4c0-1.8,1.4-3.1,3.1-3.1h20.4c1.8,0,3.1,1.4,3.1,3.1v20.4
		C194.6,213.9,193.2,215.3,191.4,215.3z"/>
	<path class="st13" d="M232.8,215.3h-20.4c-1.8,0-3.1-1.4-3.1-3.1v-20.4c0-1.8,1.4-3.1,3.1-3.1h20.4c1.8,0,3.1,1.4,3.1,3.1v20.4
		C236.1,213.9,234.6,215.3,232.8,215.3z"/>
	<path class="st13" d="M274.3,215.3h-20.4c-1.8,0-3.1-1.4-3.1-3.1v-20.4c0-1.8,1.4-3.1,3.1-3.1h20.4c1.8,0,3.1,1.4,3.1,3.1v20.4
		C277.4,213.9,276,215.3,274.3,215.3z"/>
	<path class="st13" d="M191.4,256H171c-1.8,0-3.1-1.4-3.1-3.1v-20.4c0-1.8,1.4-3.1,3.1-3.1h20.4c1.8,0,3.1,1.4,3.1,3.1v20.4
		C194.6,254.7,193.2,256,191.4,256z"/>
	<path class="st13" d="M232.8,256h-20.4c-1.8,0-3.1-1.4-3.1-3.1v-20.4c0-1.8,1.4-3.1,3.1-3.1h20.4c1.8,0,3.1,1.4,3.1,3.1v20.4
		C236.1,254.7,234.6,256,232.8,256z"/>
	<path class="st13" d="M274.3,256h-20.4c-1.8,0-3.1-1.4-3.1-3.1v-20.4c0-1.8,1.4-3.1,3.1-3.1h20.4c1.8,0,3.1,1.4,3.1,3.1v20.4
		C277.4,254.7,276,256,274.3,256z"/>
	<path class="st13" d="M315.7,256h-20.4c-1.8,0-3.1-1.4-3.1-3.1v-20.4c0-1.8,1.4-3.1,3.1-3.1h20.4c1.8,0,3.1,1.4,3.1,3.1v20.4
		C318.8,254.7,317.5,256,315.7,256z"/>
</g>
<rect x="276.7" y="112.1" class="st14" width="32.2" height="7.8"/>
<rect x="125.5" y="79.5" class="st15" width="19.3" height="142.1"/>
<path class="st15" d="M145,246.1v96.2c-7-0.6-13.5-2.6-19.3-5.7v-84.9C131.4,248.7,138,246.7,145,246.1z"/>
<rect x="348.1" y="148.4" class="st15" width="15.4" height="156.6"/>
</svg>
