<svg id="icons" enable-background="new 0 0 64 64" height="512" viewBox="0 0 64 64" width="512" xmlns="http://www.w3.org/2000/svg"><path d="m8.995 58h36.01v-5.01h4s2 .899 2 2v6.01c0 1.1-.9 2-2 2h-44.01c-1.101 0-2-.9-2-2v-6.01c0-1.101.899-2 2-2h4z" fill="#656d78"/><path d="m46.008 58.998h-38.014c-.553 0-1-.447-1-1s.447-1 1-1h38.014c.553 0 1 .447 1 1s-.447 1-1 1z" fill="#545c66"/><path d="m57.005 23h-12v-18c0-2.21 1.79-4 4-4s3.99 1.79 3.99 4v9 5h.01c0 2.21 1.79 4 4 4z" fill="#ccd1d9"/><path d="m61.005 14v5c0 2.21-1.79 4-4 4s-4-1.79-4-4h-.01v-5l2-2 2 2h.01l2-2z" fill="#e6e9ed"/><path d="m12.995 1c-2.21 0-4 1.79-4 4v47.99 6.011h36.01v-6.011-29.99-18c0-2.21 1.79-4 4-4z" fill="#e6e9ed"/><path d="m21.995 32h10.01c1.65 0 3-1.35 3-3v3c0 1.65-1.35 3-3 3h-10.01c-1.65 0-3-1.35-3-3v-3c0 1.65 1.35 3 3 3z" fill="#545c66"/><path d="m35.005 29c0 1.65-1.35 3-3 3h-10.01c-1.65 0-3-1.35-3-3v-1h16.01z" fill="#656d78"/><path d="m35.005 14v14h-16.01v-14-3c0-1.65 1.35-3 3-3h10.01c1.65 0 3 1.35 3 3z" fill="#5d9cec"/><path d="m32.006 35.999h-10.007c-2.206 0-4-1.794-4-4v-17.998c0-.553.447-1 1-1s1 .447 1 1v17.998c0 1.103.897 2 2 2h10.007c1.103 0 2-.897 2-2v-17.998c0-.553.447-1 1-1s1 .447 1 1v17.998c0 2.206-1.794 4-4 4z" fill="#545c66"/><g fill="#ccd1d9"><path d="m39.005 43.022h-2c-.553 0-1-.447-1-1s.447-1 1-1h2c.553 0 1 .447 1 1s-.447 1-1 1z"/><path d="m39.006 46.022c-.323 0-.641-.156-.833-.445l-2-3c-.307-.46-.183-1.08.277-1.387.461-.307 1.081-.183 1.387.277l2 3c.307.46.183 1.08-.277 1.387-.171.114-.364.168-.554.168z"/><path d="m39.005 46.022h-2c-.553 0-1-.447-1-1s.447-1 1-1h2c.553 0 1 .447 1 1s-.447 1-1 1z"/><path d="m34.005 45.022h-2.998c-.553 0-1-.447-1-1s.447-1 1-1h2.998c.553 0 1 .447 1 1s-.447 1-1 1z"/><path d="m21.999 45.022h-7.002c-.553 0-1-.447-1-1s.447-1 1-1h7.002c.553 0 1 .447 1 1s-.447 1-1 1z"/><path d="m39.005 50.025h-2c-.553 0-1-.447-1-1s.447-1 1-1h2c.553 0 1 .447 1 1s-.447 1-1 1z"/><path d="m39.006 53.025c-.323 0-.641-.156-.833-.445l-2-3c-.307-.46-.183-1.08.277-1.387.461-.307 1.081-.183 1.387.277l2 3c.307.46.183 1.08-.277 1.387-.171.114-.364.168-.554.168z"/><path d="m39.005 53.025h-2c-.553 0-1-.447-1-1s.447-1 1-1h2c.553 0 1 .447 1 1s-.447 1-1 1z"/><path d="m34.005 52.025h-2.998c-.553 0-1-.447-1-1s.447-1 1-1h2.998c.553 0 1 .447 1 1s-.447 1-1 1z"/><path d="m25.003 52.025h-10.006c-.553 0-1-.447-1-1s.447-1 1-1h10.006c.553 0 1 .447 1 1s-.447 1-1 1z"/></g><path d="m32.006 33h-10.007c-2.206 0-4-1.794-4-4v-17.998c0-2.206 1.794-4 4-4h10.007c2.206 0 4 1.794 4 4v17.998c0 2.206-1.794 4-4 4zm-10.007-23.998c-1.103 0-2 .897-2 2v17.998c0 1.103.897 2 2 2h10.007c1.103 0 2-.897 2-2v-17.998c0-1.103-.897-2-2-2z" fill="#656d78"/><path d="m27.03 31.499c-.553 0-1.005-.447-1.005-1s.442-1 .994-1h.011c.552 0 1 .447 1 1s-.448 1-1 1z" fill="#aab2bd"/></svg>