<svg height="409pt" viewBox="-34 0 409 409.6" width="409pt" xmlns="http://www.w3.org/2000/svg"><path d="m246.058594 6.828125h-161.816406c-16.199219 0-29.328126 13.132813-29.328126 29.324219v59.421875h191.144532zm0 0" fill="#fff"/><path d="m246.058594 6.828125v-6.828125h-161.816406c-19.972657.00390625-36.152344 16.1875-36.15625 36.152344v59.421875c0 1.820312.710937 3.535156 2 4.824219 1.292968 1.292968 3.003906 2 4.828124 2h191.144532c1.824218 0 3.539062-.707032 4.828125-1.996094 1.289062-1.292969 2-3.003906 2-4.828125v-88.746094c0-1.800781-.730469-3.558594-2-4.828125s-3.03125-2-4.828125-2v6.828125h-6.824219v81.917969h-177.496094v-52.589844c.023438-12.421875 10.078125-22.480469 22.503907-22.503906h161.816406v-6.824219h-6.824219zm0 0" fill="#54596e"/><path d="m293.847656 286.71875v-247.171875c0-18.070313-14.652344-32.71875-32.722656-32.71875h-23.304688c-18.070312 0-32.71875 14.648437-32.71875 32.71875v335.917969h88.746094c22.621094 0 40.960938-18.339844 40.960938-40.957032v-47.789062zm0 0" fill="#d8d8d8"/><path d="m293.847656 286.71875h6.824219v-247.171875c-.003906-21.847656-17.703125-39.54296875-39.546875-39.546875h-23.304688c-21.84375.00390625-39.542968 17.703125-39.546874 39.546875v335.917969c0 1.824218.710937 3.539062 2 4.828125 1.289062 1.289062 3.003906 2 4.828124 2h88.746094c26.394532-.003907 47.78125-21.390625 47.785156-47.785157v-47.785156c0-1.800781-.726562-3.558594-2-4.828125-1.269531-1.273437-3.027343-2-4.824218-2h-40.960938v6.824219h6.824219-6.824219v6.828125h34.132813v40.960937c-.003907 9.445313-3.808594 17.933594-10 24.132813-6.195313 6.1875-14.6875 9.996094-24.132813 10h-81.921875v-329.09375c.003907-7.171875 2.886719-13.605469 7.585938-18.3125 4.707031-4.695313 11.136719-7.574219 18.308593-7.582031h23.304688c7.171875.007812 13.605469 2.886718 18.3125 7.582031 4.695312 4.710937 7.578125 11.136719 7.582031 18.3125v247.171875c0 1.824219.710938 3.539062 2 4.828125 1.289063 1.289063 3.003907 2 4.828125 2zm0 0" fill="#54596e"/><path d="m243.703125 402.773438h-200.085937c-8.84375 0-16.011719-7.167969-16.011719-16.007813v-275.183594c0-8.839843 7.167969-16.007812 16.011719-16.007812h200.085937c8.84375 0 16.011719 7.167969 16.011719 16.007812v275.183594c0 8.839844-7.167969 16.007813-16.011719 16.007813zm0 0" fill="#54596e"/><path d="m243.703125 402.773438v-6.828126h-200.085937c-5.074219-.007812-9.171876-4.113281-9.183594-9.179687v-275.183594c.007812-5.070312 4.109375-9.171875 9.183594-9.183593h200.085937c5.070313.011718 9.171875 4.113281 9.183594 9.183593v275.183594c-.007813 5.066406-4.113281 9.171875-9.183594 9.179687v13.65625c12.617187-.003906 22.832031-10.21875 22.835937-22.832031v-275.1875c-.003906-12.617187-10.21875-22.832031-22.835937-22.835937h-200.085937c-12.617188.003906-22.832032 10.21875-22.835938 22.835937v275.183594c.003906 12.613281 10.21875 22.828125 22.835938 22.832031h200.085937zm0 0" fill="#54596e"/><path d="m223.222656 402.773438h-200.085937c-8.84375 0-16.011719-7.167969-16.011719-16.007813v-275.183594c0-8.839843 7.167969-16.007812 16.011719-16.007812h200.085937c8.84375 0 16.011719 7.167969 16.011719 16.007812v275.183594c0 8.839844-7.167969 16.007813-16.011719 16.007813zm0 0" fill="#999"/><path d="m223.222656 402.773438v-6.828126h-200.085937c-5.070313-.007812-9.171875-4.113281-9.183594-9.179687v-275.183594c.007813-5.070312 4.113281-9.171875 9.183594-9.183593h200.085937c5.074219.011718 9.171875 4.113281 9.183594 9.183593v275.183594c-.007812 5.066406-4.109375 9.171875-9.183594 9.179687v13.65625c12.617188-.003906 22.832032-10.21875 22.835938-22.832031v-275.1875c-.003906-12.617187-10.21875-22.832031-22.835938-22.835937h-200.085937c-12.617188.003906-22.832031 10.21875-22.835938 22.835937v275.183594c.003907 12.613281 10.21875 22.828125 22.835938 22.832031h200.085937zm0 0" fill="#54596e"/><path d="m7.125 129.707031h232.109375v102.398438h-232.109375zm0 0" fill="#9af43b"/><path d="m239.234375 232.105469v-6.824219h-225.28125v-88.75h218.453125v95.574219h6.828125v-6.824219 6.824219h6.824219v-102.398438c0-1.800781-.726563-3.558593-2-4.828125-1.269532-1.269531-3.027344-2-4.824219-2h-232.109375c-1.796875 0-3.554688.726563-4.824219 2-1.273437 1.273438-2 3.03125-2 4.828125v102.398438c0 1.824219.710938 3.539062 2 4.828125 1.289063 1.289062 3.003907 2 4.824219 2h232.109375c1.820313 0 3.535156-.707032 4.824219-2 1.292968-1.289063 2-3.003906 2-4.824219h-6.824219zm0 0" fill="#54596e"/><path d="m314.328125 375.464844c-11.3125 0-20.480469-9.164063-20.480469-20.476563v-68.269531h40.960938v68.269531c0 11.3125-9.171875 20.476563-20.480469 20.476563zm0 0" fill="#d8d8d8"/><path d="m314.328125 375.464844v-6.824219c-7.539063-.015625-13.640625-6.113281-13.65625-13.652344v-61.445312h27.308594v61.445312c-.015625 7.539063-6.117188 13.636719-13.652344 13.652344v13.652344c15.082031-.003907 27.300781-12.21875 27.304687-27.304688v-68.265625c0-1.800781-.726562-3.558594-2-4.828125-1.269531-1.273437-3.027343-2-4.824218-2h-40.960938c-1.796875 0-3.558594.726563-4.828125 1.996094-1.269531 1.273437-2 3.03125-2 4.828125v68.269531c.003907 15.082031 12.226563 27.300781 27.308594 27.304688zm0 0" fill="#54596e"/><path d="m65.152344 279.894531h-20.480469c-5.65625 0-10.238281-4.589843-10.238281-10.242187s4.582031-10.238282 10.238281-10.238282h20.480469c5.65625 0 10.242187 4.585938 10.242187 10.238282s-4.585937 10.242187-10.242187 10.242187zm0 0" fill="#fff35f"/><path d="m65.152344 279.894531v-6.828125h-20.480469c-1.882813-.003906-3.410156-1.53125-3.410156-3.414062 0-1.882813 1.527343-3.410156 3.410156-3.414063h20.480469c1.882812.003907 3.410156 1.53125 3.414062 3.414063-.003906 1.882812-1.53125 3.410156-3.414062 3.414062v13.652344c9.433594-.003906 17.0625-7.640625 17.066406-17.0625-.003906-9.425781-7.632812-17.0625-17.066406-17.066406h-20.480469c-9.429687.003906-17.058594 7.640625-17.066406 17.066406.007812 9.421875 7.636719 17.058594 17.066406 17.0625h20.480469zm0 0" fill="#54596e"/><path d="m126.59375 279.894531h-20.480469c-5.65625 0-10.238281-4.589843-10.238281-10.242187s4.582031-10.238282 10.238281-10.238282h20.480469c5.65625 0 10.238281 4.585938 10.238281 10.238282s-4.582031 10.242187-10.238281 10.242187zm0 0" fill="#fff35f"/><path d="m126.59375 279.894531v-6.828125h-20.480469c-1.882812-.003906-3.410156-1.53125-3.414062-3.414062.003906-1.882813 1.53125-3.410156 3.414062-3.414063h20.480469c1.882812.003907 3.410156 1.53125 3.414062 3.414063-.003906 1.882812-1.53125 3.410156-3.414062 3.414062v13.652344c9.429688-.003906 17.0625-7.640625 17.066406-17.0625-.003906-9.425781-7.636718-17.0625-17.066406-17.066406h-20.480469c-9.429687.003906-17.0625 7.640625-17.066406 17.066406.003906 9.421875 7.636719 17.058594 17.066406 17.0625h20.480469zm0 0" fill="#54596e"/><path d="m188.035156 279.894531h-20.480468c-5.65625 0-10.242188-4.589843-10.242188-10.242187s4.585938-10.238282 10.242188-10.238282h20.480468c5.652344 0 10.238282 4.585938 10.238282 10.238282s-4.585938 10.242187-10.238282 10.242187zm0 0" fill="#fff35f"/><path d="m188.035156 279.894531v-6.828125h-20.480468c-1.882813-.003906-3.410157-1.53125-3.414063-3.414062.003906-1.882813 1.53125-3.410156 3.414063-3.414063h20.480468c1.878906.003907 3.40625 1.53125 3.410156 3.414063-.003906 1.882812-1.53125 3.410156-3.410156 3.414062v13.652344c9.429688-.003906 17.058594-7.640625 17.066406-17.0625-.007812-9.425781-7.636718-17.0625-17.066406-17.066406h-20.480468c-9.433594.003906-17.0625 7.640625-17.066407 17.066406.003907 9.421875 7.632813 17.058594 17.066407 17.0625h20.480468zm0 0" fill="#54596e"/><path d="m65.152344 320.851562h-20.480469c-5.65625 0-10.238281-4.585937-10.238281-10.238281 0-5.652343 4.582031-10.238281 10.238281-10.238281h20.480469c5.65625 0 10.242187 4.585938 10.242187 10.238281 0 5.652344-4.585937 10.238281-10.242187 10.238281zm0 0" fill="#fff35f"/><path d="m65.152344 320.851562v-6.824218h-20.480469c-1.882813-.003906-3.410156-1.535156-3.410156-3.414063 0-1.882812 1.527343-3.410156 3.410156-3.414062h20.480469c1.882812.003906 3.410156 1.53125 3.414062 3.414062-.003906 1.878907-1.53125 3.410157-3.414062 3.414063v13.652344c9.433594-.003907 17.0625-7.640626 17.066406-17.066407-.003906-9.425781-7.632812-17.058593-17.066406-17.066406h-20.480469c-9.429687.007813-17.058594 7.640625-17.066406 17.066406.007812 9.425781 7.636719 17.0625 17.066406 17.066407h20.480469zm0 0" fill="#54596e"/><path d="m126.59375 320.851562h-20.480469c-5.65625 0-10.238281-4.585937-10.238281-10.238281 0-5.652343 4.582031-10.238281 10.238281-10.238281h20.480469c5.65625 0 10.238281 4.585938 10.238281 10.238281 0 5.652344-4.582031 10.238281-10.238281 10.238281zm0 0" fill="#fff35f"/><path d="m126.59375 320.851562v-6.824218h-20.480469c-1.882812-.003906-3.410156-1.535156-3.414062-3.414063.003906-1.882812 1.53125-3.410156 3.414062-3.414062h20.480469c1.882812.003906 3.410156 1.53125 3.414062 3.414062-.003906 1.878907-1.53125 3.410157-3.414062 3.414063v13.652344c9.429688-.003907 17.0625-7.640626 17.066406-17.066407-.003906-9.425781-7.636718-17.058593-17.066406-17.066406h-20.480469c-9.429687.007813-17.0625 7.640625-17.066406 17.066406.003906 9.425781 7.636719 17.0625 17.066406 17.066407h20.480469zm0 0" fill="#54596e"/><path d="m188.035156 320.851562h-20.480468c-5.65625 0-10.242188-4.585937-10.242188-10.238281 0-5.652343 4.585938-10.238281 10.242188-10.238281h20.480468c5.652344 0 10.238282 4.585938 10.238282 10.238281 0 5.652344-4.585938 10.238281-10.238282 10.238281zm0 0" fill="#fff35f"/><path d="m188.035156 320.851562v-6.824218h-20.480468c-1.882813-.003906-3.410157-1.535156-3.414063-3.414063.003906-1.882812 1.53125-3.410156 3.414063-3.414062h20.480468c1.878906.003906 3.40625 1.53125 3.410156 3.414062-.003906 1.878907-1.53125 3.410157-3.410156 3.414063v13.652344c9.429688-.003907 17.058594-7.640626 17.066406-17.066407-.007812-9.425781-7.636718-17.058593-17.066406-17.066406h-20.480468c-9.433594.007813-17.0625 7.640625-17.066407 17.066406.003907 9.425781 7.632813 17.0625 17.066407 17.066407h20.480468zm0 0" fill="#54596e"/><path d="m65.152344 361.8125h-20.480469c-5.65625 0-10.238281-4.585938-10.238281-10.238281 0-5.652344 4.582031-10.242188 10.238281-10.242188h20.480469c5.65625 0 10.242187 4.589844 10.242187 10.242188 0 5.652343-4.585937 10.238281-10.242187 10.238281zm0 0" fill="#fff35f"/><path d="m65.152344 361.8125v-6.824219h-20.480469c-1.882813-.007812-3.410156-1.535156-3.410156-3.414062 0-1.882813 1.527343-3.410157 3.410156-3.414063h20.480469c1.882812.003906 3.410156 1.53125 3.414062 3.414063-.003906 1.878906-1.53125 3.40625-3.414062 3.414062v13.652344c9.433594-.003906 17.0625-7.640625 17.066406-17.066406-.003906-9.425781-7.632812-17.0625-17.066406-17.066407h-20.480469c-9.429687.003907-17.058594 7.640626-17.066406 17.066407.007812 9.425781 7.636719 17.0625 17.066406 17.066406h20.480469zm0 0" fill="#54596e"/><path d="m194.859375 361.8125h-88.746094c-5.652343 0-10.238281-4.585938-10.238281-10.238281 0-5.652344 4.585938-10.242188 10.238281-10.242188h88.746094c5.65625 0 10.242187 4.589844 10.242187 10.242188 0 5.652343-4.585937 10.238281-10.242187 10.238281zm0 0" fill="#fff35f"/><path d="m194.859375 361.8125v-6.824219h-88.746094c-1.878906-.007812-3.410156-1.539062-3.414062-3.414062.003906-1.878907 1.535156-3.410157 3.414062-3.414063h88.746094c1.882813.003906 3.410156 1.53125 3.414063 3.414063-.003907 1.878906-1.53125 3.40625-3.414063 3.414062v13.652344c9.433594-.003906 17.0625-7.640625 17.066406-17.066406-.003906-9.425781-7.632812-17.0625-17.066406-17.066407h-88.746094c-9.429687.003907-17.058593 7.636719-17.066406 17.066407.007813 9.429687 7.636719 17.0625 17.066406 17.066406h88.746094zm0 0" fill="#54596e"/><g fill="#999"><path d="m82.21875 40.960938h88.746094c3.773437 0 6.828125-3.058594 6.828125-6.828126 0-3.769531-3.054688-6.824218-6.828125-6.824218h-88.746094c-3.769531 0-6.824219 3.054687-6.824219 6.824218 0 3.769532 3.054688 6.828126 6.824219 6.828126"/><path d="m82.21875 61.441406h27.308594c3.769531 0 6.824218-3.058594 6.824218-6.828125 0-3.773437-3.054687-6.828125-6.824218-6.828125h-27.308594c-3.769531 0-6.824219 3.054688-6.824219 6.828125 0 3.769531 3.054688 6.828125 6.824219 6.828125"/><path d="m130.007812 61.441406h40.957032c3.773437 0 6.828125-3.058594 6.828125-6.828125 0-3.773437-3.054688-6.828125-6.828125-6.828125h-40.957032c-3.769531 0-6.828124 3.054688-6.828124 6.828125 0 3.769531 3.058593 6.828125 6.828124 6.828125"/><path d="m82.21875 81.921875h61.441406c3.769532 0 6.828125-3.058594 6.828125-6.828125 0-3.773438-3.058593-6.828125-6.828125-6.828125h-61.441406c-3.769531 0-6.824219 3.054687-6.824219 6.828125 0 3.769531 3.054688 6.828125 6.824219 6.828125"/></g><path d="m54.914062 167.253906c0 5.65625-4.585937 10.238282-10.242187 10.238282-5.652344 0-10.238281-4.582032-10.238281-10.238282s4.585937-10.242187 10.238281-10.242187c5.65625 0 10.242187 4.585937 10.242187 10.242187zm0 0" fill="#54596e"/><path d="m184.621094 167.253906c0 5.65625-4.585938 10.238282-10.242188 10.238282s-10.238281-4.582032-10.238281-10.238282 4.582031-10.242187 10.238281-10.242187 10.242188 4.585937 10.242188 10.242187zm0 0" fill="#54596e"/><path d="m140.605469 191.867188-12.210938 6.105468h-37.738281l-12.210938-6.105468c-3.371093-1.6875-7.472656-.320313-9.160156 3.054687-1.6875 3.371094-.320312 7.472656 3.054688 9.15625l13.652344 6.828125c.96875.480469 1.976562.71875 3.054687.71875h40.960937c1.078126 0 2.085938-.238281 3.050782-.71875l13.65625-6.828125c3.371094-1.683594 4.734375-5.785156 3.050781-9.15625-1.6875-3.371094-5.785156-4.738281-9.160156-3.054687zm0 0" fill="#54596e"/></svg>