<?xml version="1.0" encoding="UTF-8" standalone="no"?>
<!-- Generator: Adobe Illustrator 22.1.0, SVG Export Plug-In . SVG Version: 6.00 Build 0)  -->

<svg
   xmlns:dc="http://purl.org/dc/elements/1.1/"
   xmlns:cc="http://creativecommons.org/ns#"
   xmlns:rdf="http://www.w3.org/1999/02/22-rdf-syntax-ns#"
   xmlns:svg="http://www.w3.org/2000/svg"
   xmlns="http://www.w3.org/2000/svg"
   xmlns:sodipodi="http://sodipodi.sourceforge.net/DTD/sodipodi-0.dtd"
   xmlns:inkscape="http://www.inkscape.org/namespaces/inkscape"
   version="1.1"
   id="Layer_1"
   x="0px"
   y="0px"
   viewBox="0 0 512 512"
   style="enable-background:new 0 0 512 512;"
   xml:space="preserve"
   sodipodi:docname="terminal.svg"
   inkscape:version="0.92.4 (33fec40, 2019-01-16)"><metadata
   id="metadata39"><rdf:RDF><cc:Work
       rdf:about=""><dc:format>image/svg+xml</dc:format><dc:type
         rdf:resource="http://purl.org/dc/dcmitype/StillImage" /></cc:Work></rdf:RDF></metadata><defs
   id="defs37" /><sodipodi:namedview
   pagecolor="#ffffff"
   bordercolor="#666666"
   borderopacity="1"
   objecttolerance="10"
   gridtolerance="10"
   guidetolerance="10"
   inkscape:pageopacity="0"
   inkscape:pageshadow="2"
   inkscape:window-width="1850"
   inkscape:window-height="1016"
   id="namedview35"
   showgrid="false"
   inkscape:zoom="1.3037281"
   inkscape:cx="226.4224"
   inkscape:cy="227.21409"
   inkscape:window-x="70"
   inkscape:window-y="27"
   inkscape:window-maximized="1"
   inkscape:current-layer="Layer_1" />
<style
   type="text/css"
   id="style2">
	.st0{fill:#5D5360;}
	.st1{fill:#DAD8DB;}
	.st2{fill:#FF8086;}
	.st3{fill:#86C459;}
	.st4{fill:#4B3F4E;}
	.st5{fill:#86D359;}
	.st6{fill:#FFFFFF;}
	.st7{fill:#ECEAEC;}
	.st8{fill:#FFE07D;}
	.st9{fill:#B3E59F;}
	.st10{fill:#4AD359;}
</style>
<path
   class="st0"
   d="M317.7,57.8H136c-6,0-11.7,1.6-16.5,4.4l-8.4,28.6v379.8c0,18.2,14.8,33,33,33h173.6l28.6-8.2  c2.8-4.9,4.4-10.5,4.4-16.5V90.8C350.7,72.6,336,57.8,317.7,57.8z"
   id="path4" />
<path
   class="st1"
   d="M177.3,297.3c0,9.1-7.4,16.5-16.5,16.5s-16.5-7.4-16.5-16.5s7.4-16.5,16.5-16.5S177.3,288.2,177.3,297.3z"
   id="path6" />
<path
   class="st2"
   d="M177.3,429.4c0,9.1-7.4,16.5-16.5,16.5s-16.5-7.4-16.5-16.5s7.4-16.5,16.5-16.5S177.3,420.3,177.3,429.4z"
   id="path8" />
<path
   class="st1"
   d="M177.3,363.4c0,9.1-7.4,16.5-16.5,16.5s-16.5-7.4-16.5-16.5s7.4-16.5,16.5-16.5S177.3,354.2,177.3,363.4z"
   id="path10" />
<path
   class="st3"
   d="M160.8,123.9c-9.1,0-16.5,7.4-16.5,16.5V223c0,9.1,7.4,16.5,16.5,16.5h49.6V123.9H160.8z"
   id="path12" />
<path
   class="st4"
   d="M309.4,479H144.3c-4.6,0-8.3-3.7-8.3-8.3c0-4.6,3.7-8.3,8.3-8.3h165.2c4.6,0,8.3,3.7,8.3,8.3  C317.7,475.3,314,479,309.4,479z"
   id="path14" />
<path
   class="st4"
   d="M136,495.5c-9.1,0-16.5-7.4-16.5-16.5V62.2c-9.8,5.7-16.5,16.4-16.5,28.6V479c0,18.2,14.8,33,33,33h181.7  c12.2,0,22.9-6.7,28.6-16.5H136z"
   id="path16" />
<path
   class="st5"
   d="M210.4,223h-24.8c-13.7,0-24.8-11.1-24.8-24.8v-33c0-13.7,11.1-24.8,24.8-24.8h24.8V223z"
   id="path18" />
<path
   class="st0"
   d="M383.8,0H243.5l-6.1,24.8v330.5h146.4l24.8-8.6V24.8C408.5,11.1,397.5,0,383.8,0z"
   id="path20" />
<path
   class="st4"
   d="M251.7,346.7c-4.6,0-8.3-3.7-8.3-8.3V0h-8.3c-13.7,0-24.8,11.1-24.8,24.8v330.1c0,13.7,11.1,24.8,24.8,24.8  h148.6c13.7,0,24.8-11.1,24.8-24.8v-8.3H251.7V346.7z"
   id="path22" />

<path
   class="st7"
   d="M251.7,346.7c-4.6,0-8.3-3.7-8.3-8.3V16.5h-8.3c-4.6,0-8.3,3.7-8.3,8.3v330.1c0,4.6,3.7,8.3,8.3,8.3h148.6  c4.6,0,8.3-3.7,8.3-8.3v-8.3H251.7V346.7z"
   id="path26" /><path
   class="st6"
   d="m 383.8,16.5 h -17.7 c -3.4,0 -6.8,2.048833 -7.9,5.326964 -2.2,6.761148 -8.4,11.575904 -15.7,11.575904 h -66 c -7.3,0 -13.5,-4.814756 -15.7,-11.575904 C 259.7,18.44639 256.3,16.5 252.9,16.5 h -9.5 l -6.1,8.502655 V 353.43052 c 0,4.71231 3.7,8.50265 8.3,8.50265 h 138.1 l 8.3,-7.06848 V 25.002655 C 392,20.29034 388.3,16.5 383.8,16.5 Z"
   id="path24"
   inkscape:connector-curvature="0"
   style="fill:#ffffff;stroke-width:1.01213455" />
<path
   class="st8"
   d="M243.4,429.4c0,9.1-7.4,16.5-16.5,16.5s-16.5-7.4-16.5-16.5s7.4-16.5,16.5-16.5S243.4,420.3,243.4,429.4z"
   id="path28" />
<path
   class="st9"
   d="M309.4,429.4c0,9.1-7.4,16.5-16.5,16.5s-16.5-7.4-16.5-16.5s7.4-16.5,16.5-16.5S309.4,420.3,309.4,429.4z"
   id="path30" />
<path
   class="st10"
   d="m 348.1,209.1 -6.5,-4.2 c 8.7,-13.3 13.4,-28.9 13.5,-45 -0.1,-16.1 -4.8,-31.6 -13.5,-45 l 6.5,-4.2 c 9.5,14.6 14.7,31.7 14.9,49.2 v 0 0 c -0.2,17.5 -5.4,34.6 -14.9,49.2 z m -6.9,-49.3 v 0 0 C 341,146 337,132.8 329.4,121.6 l -6.5,4.4 c 6.7,10 10.3,21.7 10.6,33.7 -0.1,12 -3.8,23.8 -10.6,33.7 l 6.5,4.4 c 7.5,-11.1 11.6,-24.3 11.8,-38 z M 315,181.3 c 3.2,-6.9 4.8,-14.2 4.7,-21.6 -0.2,-9.5 -3.2,-18.8 -8.8,-26.7 l -6.4,4.5 c 4.7,6.7 7.2,14.5 7.3,22.5 0.1,4.5 -0.6,9.1 -2.1,13.4 l -42.2,-32.5 -2,4.6 c -0.1,0.2 -2.9,6.8 -2.9,15.7 0,9.3 5.3,17.6 5.5,17.9 l 6.5,-4.2 c 0,-0.1 -4.2,-6.8 -4.2,-13.7 0,-2.9 0.3,-5.5 0.8,-7.6 l 41.7,32 z"
   id="path32"
   inkscape:connector-curvature="0"
   style="fill:#4ad359" />
</svg>